<?xml version="1.0" encoding="UTF-8" standalone="no"?>
<!-- Created with Inkscape (http://www.inkscape.org/) -->

<svg
   xmlns:dc="http://purl.org/dc/elements/1.1/"
   xmlns:cc="http://creativecommons.org/ns#"
   xmlns:rdf="http://www.w3.org/1999/02/22-rdf-syntax-ns#"
   xmlns:svg="http://www.w3.org/2000/svg"
   xmlns="http://www.w3.org/2000/svg"
   xmlns:sodipodi="http://sodipodi.sourceforge.net/DTD/sodipodi-0.dtd"
   xmlns:inkscape="http://www.inkscape.org/namespaces/inkscape"
   version="1.1"
   id="svg991"
   width="170.07874"
   height="197.03864"
   viewBox="0 0 170.07874 197.03864"
   sodipodi:docname="tux.svg"
   inkscape:version="0.92.5 (2060ec1f9f, 2020-04-08)">
  <metadata
     id="metadata997">
    <rdf:RDF>
      <cc:Work
         rdf:about="">
        <dc:format>image/svg+xml</dc:format>
        <dc:type
           rdf:resource="http://purl.org/dc/dcmitype/StillImage" />
        <dc:title />
      </cc:Work>
    </rdf:RDF>
  </metadata>
  <defs
     id="defs995" />
  <sodipodi:namedview
     pagecolor="#ffffff"
     bordercolor="#666666"
     borderopacity="1"
     objecttolerance="10"
     gridtolerance="10"
     guidetolerance="10"
     inkscape:pageopacity="0"
     inkscape:pageshadow="2"
     inkscape:window-width="1864"
     inkscape:window-height="1016"
     id="namedview993"
     showgrid="false"
     inkscape:zoom="2.4043819"
     inkscape:cx="144.16721"
     inkscape:cy="31.823345"
     inkscape:window-x="56"
     inkscape:window-y="27"
     inkscape:window-maximized="1"
     inkscape:current-layer="svg991"
     showguides="false" />
  <path
     style="fill:none;fill-opacity:1;fill-rule:evenodd;stroke:#000000;stroke-width:0.21712485;stroke-opacity:1"
     d="m 110.91755,190.147 c 0.38451,0.63804 0.83032,1.28497 1.39933,1.76551 l 1.31754,1.24391 c 1.39987,1.31994 3.17507,2.26493 5.37441,2.86141 1.97258,0.53503 8.24474,0.67766 10.39903,0.23713 3.47993,-0.71137 5.08175,-1.74083 9.43419,-6.06331 4.3075,-4.2776 8.37539,-7.1345 13.9059,-9.77253 1.62134,-0.77337 3.9476,-1.88299 5.17128,-2.46547 2.14182,-1.01966 7.03049,-4.11656 9.67403,-6.12741 0.87419,-0.6651 1.44915,-1.31758 1.8394,-2.09177 0.65335,-1.29605 0.69661,-1.88516 0.23691,-3.21563 -0.55759,-1.61418 -1.84544,-2.82587 -5.63109,-5.30751 -5.16074,-3.38287 -8.02435,-6.36524 -9.15211,-9.53268 -0.26149,-0.73445 -0.50999,-2.22222 -0.62069,-3.70937 -0.03,-1.28888 -0.0355,-2.31612 -0.63647,-3.24298 -0.6434,-0.99145 -1.07376,-1.13696 -2.90602,-2.05793 -1.83218,-0.9211 -3.28143,-1.13005 -3.28143,-1.13005 l 0.001,-6e-4 c 1.56887,-1.58233 2.27648,-2.49015 2.94473,-3.45012 0.96836,-1.39082 1.64463,-3.05413 2.05384,-5.05089 0.49108,-2.39525 0.31919,-5.79928 -0.54446,-10.75705 -1.90646,-10.9436 -3.82521,-17.2545 -7.36908,-24.241861 -2.4365,-4.803995 -4.66606,-8.167626 -9.6909,-14.617078 C 129.89265,77.07454 127.46685,73.344064 123.24738,65.593506 117.2464,54.570129 117.00201,53.627795 115.73726,36.467827 114.9213,25.396653 114.3019,21.000485 113.11354,17.879246 109.21424,7.638132 100.0246,1.496451 86.794373,0.28624495 c -1.02799,-0.0941 -2.05451,-0.15093503 -3.07235,-0.17012903 -7.12528,-0.134404 -13.85894,1.53370608 -18.18845,4.58787708 -5.29899,3.738065 -8.53504,10.205733 -9.52446,19.026452 -0.4651,4.146116 -0.30297,12.388937 0.59813,30.438981 0.20741,4.155707 0.37509,8.477286 0.37526,9.605264 3.9e-4,2.489591 -0.12067,2.754699 -3.46172,7.449375 -1.26754,1.781021 -2.16756,3.101298 -2.41498,3.483447 l -0.67424,1.006829 c -0.4081,0.636388 -5.37582,7.615996 -7.74431,10.737586 -4.643,6.119499 -5.49814,7.742084 -8.83606,16.722733 -2.32141,6.24593 -4.73456,11.54061 -8.30285,18.22043 -2.18468,4.08998 -2.40737,4.97402 -2.39524,9.51888 0,0 -0.32538,2.69668 0.10624,4.42735 0.27113,1.08566 -0.60665,1.82105 -0.9858,2.55374 -0.48069,0.92876 -0.84122,2.11846 -0.84122,2.11846 l -0.41304,1.37346 c 0,0 0.11447,-0.38798 -0.58096,1.63681 -0.95531,2.78231 -1.5471,3.87692 -2.7535,5.07596 -1.82662,1.81509 -2.78496,2.06768 -8.4101598,2.23115 -5.14183,0.14942 -5.39096,0.20656 -6.70325,1.55912 -1.00635,1.03718 -1.41731,2.18974 -1.54309,4.32842 -0.12142003,2.06179 0.12037,3.65821 0.95349,6.3004 1.30644,4.14265 1.16443,6.64715 -0.68558,12.10975 -0.65586003,1.93672 -1.19025003,3.89328 -1.18766003,4.35075 0.01,1.75899 1.39601003,3.55112 3.44189003,4.44568 1.33388,0.58328 7.5971098,2.11073 14.4587098,3.52807 9.36922,1.93523 12.20669,2.76959 19.9603,5.85968 9.74101,3.88213 12.67697,4.60496 15.64081,3.85429 1.80263,-0.45646 2.63152,-0.95838 5.56351,-3.36902 5.41319,-4.45079 8.00144,-5.60375 14.08624,-6.26972 2.79338,-0.30556 28.002997,-0.38887 32.131017,-0.10548 l 1.89021,0.12287 c 0.4318,0.0373 0.83604,0.0657 1.48396,0.46022 z"
     id="path884"
     inkscape:connector-curvature="0"
     sodipodi:nodetypes="cccccsccccccccazcccsccssssssssssscccsscsscscscccccccssccccccc" />
</svg>
