<?xml version="1.0" encoding="UTF-8" standalone="no"?>
<!-- Created with Inkscape (http://www.inkscape.org/) -->

<svg
   xmlns:dc="http://purl.org/dc/elements/1.1/"
   xmlns:cc="http://creativecommons.org/ns#"
   xmlns:rdf="http://www.w3.org/1999/02/22-rdf-syntax-ns#"
   xmlns:svg="http://www.w3.org/2000/svg"
   xmlns="http://www.w3.org/2000/svg"
   xmlns:sodipodi="http://sodipodi.sourceforge.net/DTD/sodipodi-0.dtd"
   xmlns:inkscape="http://www.inkscape.org/namespaces/inkscape"
   width="210mm"
   height="297mm"
   viewBox="0 0 210 297"
   version="1.1"
   id="svg4655"
   sodipodi:docname="tux_silkscreen_01.svg"
   inkscape:version="0.92.5 (2060ec1f9f, 2020-04-08)">
  <defs
     id="defs4649" />
  <sodipodi:namedview
     id="base"
     pagecolor="#ffffff"
     bordercolor="#666666"
     borderopacity="1.0"
     inkscape:pageopacity="0.0"
     inkscape:pageshadow="2"
     inkscape:zoom="5.6"
     inkscape:cx="386.13949"
     inkscape:cy="690.55289"
     inkscape:document-units="mm"
     inkscape:current-layer="layer1"
     showgrid="false"
     inkscape:window-width="1864"
     inkscape:window-height="953"
     inkscape:window-x="56"
     inkscape:window-y="27"
     inkscape:window-maximized="1" />
  <metadata
     id="metadata4652">
    <rdf:RDF>
      <cc:Work
         rdf:about="">
        <dc:format>image/svg+xml</dc:format>
        <dc:type
           rdf:resource="http://purl.org/dc/dcmitype/StillImage" />
      </cc:Work>
    </rdf:RDF>
  </metadata>
  <g
     inkscape:label="Layer 1"
     inkscape:groupmode="layer"
     id="layer1">
    <path
       sodipodi:type="inkscape:offset"
       inkscape:radius="0"
       inkscape:original="M 101.47656 97.769531 C 100.18475 97.744885 98.966088 98.054059 98.193359 98.605469 C 97.245267 99.282004 96.66009 100.45436 96.480469 102.07422 C 96.396745 102.82913 96.424819 104.3594 96.589844 107.70312 C 96.627868 108.47361 96.660156 109.26923 96.660156 109.48633 C 96.660196 109.71827 96.653964 109.86618 96.566406 110.05664 C 96.478848 110.2471 96.317844 110.47698 96.011719 110.91211 C 95.78 111.24145 95.615324 111.4874 95.572266 111.55469 A 0.078533366 0.078533366 0 0 1 95.570312 111.55469 L 95.445312 111.74219 L 95.447266 111.74219 C 95.402362 111.81297 95.162208 112.1556 94.871094 112.56641 C 94.57998 112.97721 94.243369 113.44572 94.025391 113.73633 C 93.176119 114.8686 93.028918 115.15167 92.417969 116.81445 C 91.991631 117.97477 91.549328 118.95927 90.894531 120.19922 C 90.495502 120.95484 90.460668 121.08823 90.462891 121.92773 A 0.078533366 0.078533366 0 0 1 90.462891 121.9375 C 90.462891 121.9375 90.408022 122.43517 90.480469 122.72852 C 90.511011 122.85213 90.475166 122.9619 90.427734 123.04688 C 90.380303 123.13183 90.323343 123.2003 90.294922 123.25586 C 90.211946 123.41796 90.146484 123.63672 90.146484 123.63672 L 90.070312 123.89062 A 0.078533366 0.078533366 0 0 1 90.0625 123.90234 A 0.078533366 0.078533366 0 0 1 90.0625 123.90625 C 90.052639 123.93219 90.024493 124.008 89.960938 124.19531 C 89.784802 124.71417 89.668368 124.9359 89.439453 125.16602 C 89.268672 125.3377 89.122255 125.44842 88.894531 125.50977 C 88.666808 125.57111 88.361967 125.58834 87.845703 125.60352 C 87.374996 125.61736 87.129089 125.62851 86.984375 125.66211 C 86.839661 125.6957 86.790635 125.74339 86.671875 125.86719 C 86.500254 126.0461 86.432722 126.23117 86.410156 126.61914 C 86.388453 126.99261 86.430834 127.27458 86.582031 127.75977 C 86.824506 128.53757 86.79583 129.03494 86.455078 130.05273 C 86.395498 130.23069 86.341464 130.40891 86.302734 130.55273 C 86.28337 130.62465 86.268286 130.68899 86.257812 130.73828 C 86.24734 130.78757 86.242154 130.82615 86.242188 130.83203 C 86.243938 131.11745 86.474964 131.42863 86.826172 131.58398 C 86.929996 131.62991 87.28456 131.73267 87.757812 131.84961 C 88.231066 131.96655 88.831417 132.10325 89.458984 132.23438 C 91.176476 132.59323 91.707066 132.75103 93.128906 133.32422 C 94.020064 133.68348 94.598434 133.89428 95.015625 133.99805 C 95.432816 134.10182 95.683748 134.09971 95.943359 134.0332 C 96.265947 133.95055 96.396147 133.87118 96.931641 133.42578 C 97.927494 132.59751 98.432676 132.37032 99.554688 132.24609 C 99.695048 132.23057 100.07253 132.21952 100.58984 132.21094 C 101.10716 132.20235 101.75719 132.19749 102.41406 132.19531 C 103.72782 132.19095 105.06548 132.19956 105.45508 132.22656 L 105.80078 132.25 A 0.078533366 0.078533366 0 0 1 105.80273 132.25 C 105.84986 132.25418 105.90753 132.26593 105.97266 132.28711 C 105.92908 131.95024 105.945 131.59458 106.00195 131.27148 C 106.00195 131.30849 105.99588 131.34176 105.98047 131.37305 C 105.96505 131.40433 105.93431 131.44531 105.87695 131.44531 C 105.85309 131.44531 105.82588 131.43292 105.81055 131.41797 C 105.79521 131.40302 105.78828 131.38861 105.7832 131.375 C 105.77304 131.34777 105.76958 131.32158 105.76758 131.28906 C 105.76357 131.22402 105.76805 131.13315 105.77734 131.00195 C 105.80609 130.5965 105.86476 130.31351 106.08789 129.48242 C 106.26756 128.81328 106.30533 128.49831 106.24805 128.24609 C 106.22095 128.12681 106.1809 128.04696 106.14258 128.00586 C 106.10426 127.96476 106.0749 127.95377 106.02148 127.96289 C 105.91465 127.98113 105.72115 128.13021 105.49805 128.42773 C 104.86988 129.26541 104.32514 129.6672 103.42578 129.95312 C 102.68853 130.18751 101.55518 130.31035 100.53906 130.27148 C 99.646196 130.23728 99.308348 130.12358 98.753906 129.66992 C 98.597272 129.54175 98.498671 129.47078 98.427734 129.4375 C 98.356798 129.40422 98.313466 129.40217 98.226562 129.41211 C 98.184003 129.41697 98.163459 129.42839 98.162109 129.42969 C 98.16076 129.43098 98.159674 129.42096 98.164062 129.43945 C 98.172842 129.47645 98.242566 129.58311 98.376953 129.71875 C 98.661783 130.00624 98.811781 130.28895 98.880859 130.66992 C 98.967571 131.14799 98.84677 131.60371 98.546875 131.91406 C 98.481709 131.98149 98.430381 132.03224 98.388672 132.06836 C 98.367817 132.08642 98.349314 132.10153 98.330078 132.11328 C 98.310843 132.12503 98.291097 132.13813 98.251953 132.13477 C 98.232381 132.13308 98.20859 132.12333 98.193359 132.10742 C 98.178129 132.09151 98.171211 132.07434 98.167969 132.06055 C 98.161485 132.03295 98.164658 132.01281 98.167969 131.99023 C 98.17459 131.94509 98.190529 131.89022 98.212891 131.81836 C 98.314667 131.49135 98.31081 131.19701 98.162109 130.80859 C 98.013409 130.42018 97.714992 129.94177 97.222656 129.27344 C 97.149671 129.17437 97.079077 129.07964 97.025391 129.00586 C 96.971705 128.93208 96.940353 128.88855 96.923828 128.86133 C 96.910957 128.84015 96.908115 128.81126 96.912109 128.79102 C 96.916104 128.77077 96.923238 128.75623 96.931641 128.74414 C 96.948446 128.71997 96.969002 128.70306 96.994141 128.68359 C 97.044418 128.64466 97.115075 128.60118 97.210938 128.55078 C 97.538905 128.37843 97.879523 128.06948 97.982422 127.87305 C 98.037466 127.76802 98.061152 127.66506 98.0625 127.48633 C 98.064367 127.25257 97.993879 127.03937 97.818359 126.80078 C 97.64284 126.5622 97.360634 126.30094 96.945312 125.98633 C 95.97514 125.25141 95.186873 124.58803 93.935547 123.45117 C 93.347628 122.91704 92.975753 122.53927 92.726562 122.17969 C 92.477373 121.8201 92.354949 121.47877 92.263672 121.03125 C 92.157016 120.50838 92.144091 120.26152 92.205078 119.75586 C 92.241675 119.4523 92.319949 119.13875 92.410156 118.89648 C 92.45526 118.77535 92.50319 118.67317 92.552734 118.5957 C 92.577506 118.55697 92.603698 118.52414 92.632812 118.49805 C 92.661928 118.47195 92.697183 118.44922 92.744141 118.44922 C 92.778768 118.44922 92.822965 118.46478 92.847656 118.49805 C 92.872347 118.53132 92.87869 118.56756 92.878906 118.60352 C 92.879339 118.67542 92.859034 118.76288 92.822266 118.89062 C 92.739673 119.17588 92.684434 119.59689 92.667969 119.99414 C 92.651503 120.39139 92.674275 120.77038 92.732422 120.96094 C 92.851398 121.35073 92.979456 121.56321 93.292969 121.87695 C 93.467139 122.05124 93.598407 122.15239 93.681641 122.1875 C 93.723258 122.20505 93.750175 122.20559 93.769531 122.20117 C 93.788888 122.19676 93.806937 122.18678 93.830078 122.1582 C 93.853251 122.12959 93.863527 122.11087 93.873047 122.00195 C 93.882567 121.89304 93.884766 121.70602 93.884766 121.38086 C 93.884766 120.13815 94.02999 119.01052 94.296875 118.20312 C 94.681849 117.03847 95.153561 116.007 95.613281 115.32617 C 95.698663 115.19973 95.779655 115.07428 95.841797 114.97656 C 95.872868 114.9277 95.898625 114.88573 95.917969 114.85352 C 95.937313 114.82131 95.951467 114.79423 95.951172 114.79492 C 95.946485 114.80589 95.951164 114.79615 95.953125 114.7832 C 95.955086 114.77025 95.956834 114.75165 95.958984 114.72852 C 95.963286 114.68225 95.966987 114.61834 95.970703 114.54297 C 95.978135 114.39222 95.984736 114.19432 95.986328 113.98633 C 95.993355 113.1076 96.05677 112.78461 96.333984 112.24219 L 96.4375 112.0332 A 0.078533366 0.078533366 0 0 1 96.441406 112.02734 C 96.466384 111.98645 96.496408 111.92681 96.539062 111.83789 A 0.078533366 0.078533366 0 0 1 96.542969 111.83008 C 96.598429 111.74144 96.678717 111.59651 96.783203 111.38281 L 96.783203 111.38086 C 97.070487 110.77786 97.155916 110.56021 97.261719 110.14844 C 97.29313 110.02611 97.319438 109.93781 97.347656 109.87305 C 97.361765 109.84066 97.375706 109.81441 97.394531 109.79102 C 97.413357 109.76763 97.440035 109.74532 97.476562 109.73828 C 97.549227 109.72429 97.590859 109.75813 97.640625 109.79492 C 97.690391 109.83171 97.744409 109.88237 97.800781 109.94336 C 97.913526 110.06533 98.037007 110.22921 98.134766 110.39648 C 98.317564 110.70928 98.705372 111.1943 98.953125 111.42188 C 99.245422 111.69036 99.392662 111.74288 99.816406 111.7207 C 100.2752 111.69667 100.39856 111.64119 100.85352 111.24805 C 101.05238 111.07622 101.30113 110.8678 101.41602 110.78125 C 101.63774 110.61423 101.9828 110.38891 102.3125 110.18945 C 102.6422 109.99 102.94964 109.8192 103.11523 109.75391 C 103.29864 109.68158 103.4552 109.60581 103.57031 109.53711 C 103.68543 109.46841 103.7595 109.39909 103.77344 109.37305 C 103.80184 109.31995 103.80644 109.27965 103.80078 109.25 C 103.79512 109.22035 103.77982 109.19586 103.74023 109.16992 C 103.68721 109.13516 103.64808 109.12578 103.56836 109.14453 C 103.48864 109.16328 103.37394 109.21844 103.20898 109.31641 C 102.90267 109.49838 102.3399 109.76283 101.78906 110 C 101.23822 110.23717 100.70621 110.44365 100.44141 110.50586 C 100.06799 110.59364 99.571584 110.57662 99.289062 110.45117 C 99.159508 110.39369 98.938974 110.23178 98.734375 110.07031 C 98.632076 109.98958 98.536416 109.90973 98.464844 109.84375 C 98.429058 109.81076 98.397818 109.78187 98.375 109.75586 C 98.363591 109.74286 98.354345 109.73029 98.345703 109.7168 C 98.337062 109.70331 98.326172 109.69217 98.326172 109.65625 C 98.326172 109.61912 98.347581 109.56356 98.388672 109.53711 C 98.429763 109.51066 98.473381 109.50398 98.533203 109.5 C 98.652847 109.49204 98.844282 109.5035 99.179688 109.52734 C 100.18219 109.59853 100.68612 109.49939 101.57227 109.05469 C 101.80568 108.93755 102.30506 108.7388 102.69531 108.60547 C 103.0984 108.46775 103.41132 108.34599 103.63281 108.24414 C 103.85431 108.14229 103.98481 108.04776 104.00586 108.01562 C 104.03143 107.97661 104.03449 107.93826 104.01953 107.89844 C 104.00457 107.85861 103.96901 107.81889 103.91211 107.79297 C 103.87457 107.77587 103.83734 107.77647 103.79102 107.80273 C 103.74469 107.829 103.69494 107.88232 103.6543 107.96094 C 103.63358 108.00099 103.60888 108.04401 103.56836 108.08203 C 103.52784 108.12005 103.47603 108.15253 103.39453 108.19141 C 103.23153 108.26916 102.94831 108.37438 102.39844 108.57812 C 100.95832 109.11178 100.04517 109.31458 99.21875 109.27734 C 98.905691 109.26323 98.68206 109.22565 98.488281 109.11914 C 98.294503 109.01263 98.138823 108.84166 97.953125 108.58203 C 97.816999 108.39171 97.74314 108.32455 97.568359 108.23633 C 97.419513 108.16119 97.318081 108.09621 97.251953 108.00586 C 97.185825 107.9155 97.166016 107.80719 97.166016 107.67578 C 97.166016 107.31828 97.357941 107.02519 97.775391 106.72266 C 97.814358 106.6944 97.915459 106.60915 97.994141 106.54492 C 97.953199 106.5697 97.910967 106.59322 97.865234 106.59766 C 97.806941 106.60331 97.749962 106.59956 97.699219 106.57227 C 97.648476 106.54497 97.611675 106.50226 97.568359 106.44531 C 97.301857 106.09494 97.166016 105.452 97.166016 104.66602 C 97.166016 104.28809 97.184922 104.10074 97.248047 103.89648 C 97.437955 103.28161 97.899462 102.89272 98.460938 102.89062 C 98.858964 102.88904 99.181769 103.0808 99.394531 103.4375 C 99.607294 103.7942 99.719778 104.31094 99.740234 104.98047 C 99.74468 105.11911 99.753385 105.24 99.763672 105.32812 C 99.768815 105.3722 99.774037 105.40795 99.779297 105.43164 C 99.780704 105.43798 99.781984 105.44099 99.783203 105.44531 C 99.785986 105.44685 99.778817 105.44109 99.789062 105.44336 C 99.809553 105.44789 99.84152 105.45302 99.880859 105.45703 C 99.959539 105.46506 100.06766 105.47113 100.19531 105.47266 C 100.46272 105.47572 100.7316 105.50556 100.90234 105.55078 C 100.99955 105.57656 101.07252 105.59648 101.12305 105.60742 C 101.15834 105.61507 101.1664 105.61264 101.17773 105.61328 C 101.17784 105.59809 101.17771 105.58376 101.17578 105.55078 C 101.13759 104.89885 101.14846 104.45067 101.21875 104.1875 C 101.29786 103.89141 101.43635 103.59189 101.59961 103.3418 C 101.76286 103.09171 101.94937 102.889 102.13867 102.79102 C 102.32282 102.69572 102.5448 102.65913 102.82422 102.67383 C 102.91735 102.679 103.01612 102.68911 103.12305 102.70508 C 103.61568 102.77874 103.94355 102.8827 104.1875 103.12109 C 104.43145 103.35948 104.58118 103.71773 104.74414 104.2832 C 104.96306 105.04282 104.98507 105.79242 104.76758 106.21289 C 104.66935 106.40276 104.4349 106.50929 104.21875 106.46875 C 104.1106 106.44848 104.00087 106.39706 103.91211 106.33594 C 103.82334 106.27482 103.74693 106.2116 103.73242 106.11133 C 103.72782 106.08048 103.73204 106.05986 103.73633 106.0293 C 103.74062 105.99873 103.74707 105.96201 103.75586 105.92188 C 103.77343 105.84157 103.80004 105.74468 103.83008 105.64844 C 103.9161 105.37241 103.92955 105.27116 103.91797 105.01562 C 103.90889 104.81544 103.87503 104.67956 103.80664 104.57227 C 103.73826 104.46497 103.63159 104.37949 103.45312 104.28711 C 103.24224 104.17794 103.18962 104.16602 102.95117 104.16602 C 102.72884 104.16602 102.57525 104.2032 102.45117 104.28906 C 102.32709 104.37493 102.22638 104.51551 102.12891 104.73828 C 102.08531 104.83786 102.06378 104.98099 102.0625 105.26758 C 102.06151 105.43572 102.06465 105.5385 102.07617 105.61133 C 102.08769 105.68416 102.10524 105.72872 102.14062 105.79492 C 102.23095 105.96381 102.36101 106.09538 102.60547 106.23438 C 102.84993 106.37336 103.20923 106.51601 103.74023 106.69141 C 104.10581 106.81217 104.31934 106.88833 104.46875 106.9668 C 104.61816 107.04527 104.7017 107.13083 104.78125 107.24609 C 104.82506 107.30955 104.8568 107.3662 104.86914 107.4375 C 104.88148 107.5088 104.87683 107.58735 104.86719 107.71289 C 104.85437 107.8788 104.79925 108.1357 104.74023 108.30664 C 104.58898 108.74484 104.54368 109.08235 104.61328 109.42188 C 104.68288 109.76139 104.87021 110.10976 105.20508 110.55859 C 105.37837 110.79087 105.57811 111.07688 105.6543 111.20703 C 105.93319 111.6835 106.22583 112.49595 106.45898 113.42383 C 106.59032 113.94649 106.68161 114.16359 107.05859 114.8418 C 107.9591 116.46184 108.254 117.23348 108.40039 118.35742 C 108.42968 118.58219 108.45422 119.20503 108.4668 119.7832 C 108.47309 120.07229 108.47595 120.34823 108.47461 120.55273 C 108.47394 120.65499 108.47193 120.74027 108.46875 120.80078 C 108.46716 120.83104 108.46571 120.85505 108.46289 120.875 C 108.46148 120.88498 108.45887 120.89234 108.45508 120.9043 C 108.45413 120.90729 108.45287 120.91015 108.45117 120.91406 C 108.44947 120.91797 108.4437 120.92918 108.44336 120.92969 C 108.44302 120.93019 108.42418 120.94896 108.42383 120.94922 C 108.42365 120.94935 108.40447 120.96087 108.4043 120.96094 C 108.40412 120.961 108.37713 120.96484 108.37695 120.96484 C 108.37681 120.96484 108.35956 120.96294 108.35938 120.96289 C 108.35918 120.96285 108.34789 120.95907 108.34766 120.95898 C 108.34719 120.95881 108.33875 120.95663 108.33594 120.95508 C 108.33031 120.95197 108.32764 120.9497 108.32422 120.94727 C 108.31737 120.94239 108.31013 120.93584 108.30273 120.92969 C 108.28795 120.91737 108.26926 120.90198 108.24609 120.88086 C 108.19976 120.83862 108.13573 120.77724 108.05859 120.70312 C 107.90433 120.55492 107.69851 120.35105 107.47461 120.12695 L 106.66211 119.31445 A 0.078533366 0.078533366 0 0 1 106.63867 119.24805 L 106.66406 119.06836 C 106.68715 118.91445 106.68232 118.81628 106.62695 118.69922 C 106.57159 118.58216 106.45847 118.44364 106.26172 118.24023 C 106.06647 118.03841 105.82412 117.81683 105.75586 117.76953 C 105.68324 117.71921 105.65451 117.70256 105.60156 117.69336 C 105.54861 117.68416 105.4619 117.68518 105.29688 117.69336 C 105.02715 117.70675 104.91622 117.73265 104.72656 117.81836 C 104.60283 117.87427 104.54083 117.9047 104.47266 117.91211 C 104.43857 117.91581 104.40093 117.9094 104.37305 117.89453 C 104.34517 117.87967 104.32649 117.8607 104.30469 117.8418 C 104.28452 117.8243 104.20945 117.756 104.07422 117.63086 C 103.93899 117.50572 103.74981 117.33124 103.52539 117.12305 C 103.07656 116.70666 102.4833 116.15583 101.88477 115.59961 C 100.68769 114.48717 99.470223 113.35371 99.328125 113.21875 L 99.195312 113.0918 L 98.996094 113.12109 L 98.757812 113.1543 A 0.078533366 0.078533366 0 0 1 98.699219 113.13867 L 98.068359 112.66406 C 97.607974 112.31742 97.33356 112.11859 97.166016 112.01562 C 97.082243 111.96415 97.025135 111.93741 96.990234 111.92773 C 96.955333 111.91806 96.948351 111.92101 96.933594 111.92773 C 96.912367 111.93741 96.897977 111.94459 96.892578 111.94922 L 96.890625 111.95117 C 96.890678 111.95089 96.894509 111.99161 96.945312 112.07031 C 97.04692 112.22771 97.298843 112.52446 97.775391 113.06836 L 98.242188 113.59766 A 0.078533366 0.078533366 0 0 1 98.261719 113.65039 L 98.261719 113.91992 L 98.261719 114.1543 L 99.455078 115.27148 C 100.126 115.89822 101.28296 116.97577 102.02539 117.66602 C 102.39705 118.01155 102.73517 118.33225 102.98047 118.57227 C 103.10312 118.69227 103.20385 118.79259 103.27344 118.86523 C 103.30823 118.90155 103.33374 118.93011 103.35352 118.95312 C 103.3634 118.96465 103.37186 118.97449 103.37891 118.98438 C 103.38243 118.98931 103.38688 118.99493 103.39062 119.00195 C 103.3925 119.00546 103.39434 119.00763 103.39648 119.01367 C 103.39756 119.01669 103.39836 119.02504 103.39844 119.02539 C 103.39851 119.02574 103.40039 119.04269 103.40039 119.04297 C 103.40038 119.08687 103.39016 119.11919 103.375 119.17188 C 103.35984 119.22454 103.33948 119.28698 103.31641 119.34766 C 103.28566 119.42854 103.31977 119.47004 103.30273 119.54492 C 103.31618 119.48858 103.32312 119.43173 103.33984 119.38086 C 103.35933 119.32159 103.38097 119.27019 103.40234 119.22852 C 103.41303 119.20768 103.42321 119.18908 103.4375 119.17188 C 103.45179 119.15466 103.47022 119.12891 103.51953 119.12891 C 103.52 119.12891 103.53608 119.12958 103.54102 119.13086 C 103.54595 119.13214 103.54965 119.13354 103.55273 119.13477 C 103.55891 119.13721 103.56216 119.14028 103.56641 119.14258 C 103.5749 119.14717 103.58294 119.15232 103.5918 119.1582 C 103.60951 119.16996 103.63138 119.18431 103.65625 119.20312 C 103.70598 119.24079 103.7695 119.29148 103.83594 119.34766 C 103.97858 119.46827 104.08993 119.54076 104.18555 119.57422 C 104.20318 119.58039 104.21956 119.57038 104.23633 119.57422 C 104.22855 119.5742 104.22252 119.57151 104.2168 119.57031 C 104.19392 119.56553 104.18128 119.55803 104.16602 119.54883 C 104.10497 119.51202 104.01213 119.43604 103.83203 119.27539 C 103.47183 118.95409 102.77698 118.30478 101.45117 117.06836 C 100.26485 115.96202 99.580081 115.32358 99.199219 114.95898 C 99.008788 114.77669 98.893352 114.66207 98.828125 114.5918 C 98.795511 114.55666 98.776893 114.53416 98.761719 114.50977 C 98.757925 114.50367 98.753492 114.49891 98.75 114.49023 C 98.748254 114.4859 98.747491 114.48083 98.746094 114.47461 C 98.744696 114.46839 98.744106 114.45197 98.744141 114.45117 C 98.744175 114.45038 98.751668 114.41855 98.751953 114.41797 C 98.752238 114.41738 98.77682 114.38711 98.777344 114.38672 C 98.777867 114.38633 98.803938 114.37325 98.804688 114.37305 C 98.805436 114.37285 98.820471 114.37124 98.826172 114.37109 C 98.826972 114.37108 98.84048 114.37207 98.845703 114.37305 C 98.850926 114.37403 98.855443 114.3737 98.859375 114.375 C 98.867239 114.37761 98.87302 114.38173 98.878906 114.38477 C 98.890679 114.39084 98.901541 114.39746 98.914062 114.40625 C 98.939105 114.42382 98.970273 114.44799 99.013672 114.48438 C 99.085006 114.54417 99.213888 114.66187 99.361328 114.79492 C 99.30051 114.73701 99.215871 114.65554 99.169922 114.61133 C 99.111522 114.55513 99.066704 114.50997 99.035156 114.47852 C 99.019382 114.46279 99.007151 114.45111 98.998047 114.44141 C 98.993495 114.43656 98.990222 114.43242 98.986328 114.42773 C 98.984381 114.42539 98.981554 114.42246 98.978516 114.41797 C 98.976996 114.41572 98.972784 114.40846 98.972656 114.4082 C 98.972529 114.40795 98.964844 114.37319 98.964844 114.37305 C 98.964844 114.37254 98.965733 114.35835 98.966797 114.35352 C 98.967861 114.34868 98.969506 114.3451 98.970703 114.3418 C 98.973097 114.33518 98.974245 114.3305 98.976562 114.32617 C 98.9812 114.31751 98.986905 114.31214 98.992188 114.30469 C 99.00275 114.28979 99.015563 114.2721 99.03125 114.25391 C 99.062623 114.21751 99.103933 114.17389 99.150391 114.12891 C 99.232633 114.04923 99.353737 113.89623 99.404297 113.80859 C 99.432971 113.75888 99.46132 113.71153 99.482422 113.67578 C 99.492973 113.65791 99.500951 113.64221 99.507812 113.63086 C 99.514675 113.61951 99.515579 113.61869 99.525391 113.60547 C 99.525443 113.6054 99.607248 113.57613 99.607422 113.57617 C 99.695959 113.60258 99.866474 113.86142 99.820312 113.75195 C 99.933799 113.8549 100.09515 114.003 100.29297 114.18555 C 100.68861 114.55064 101.2265 115.05032 101.79883 115.58398 C 102.94349 116.65131 104.22642 117.85451 104.78711 118.39258 L 105.05859 118.6543 A 0.078533366 0.078533366 0 0 1 105.07617 118.67969 C 105.06694 118.65541 105.06196 118.63293 105.04688 118.60547 C 104.99251 118.50661 104.9008 118.39154 104.77148 118.26562 C 104.71992 118.21542 104.67377 118.16649 104.63867 118.12695 C 104.62112 118.10718 104.60534 118.08971 104.59375 118.07422 C 104.58796 118.06647 104.58314 118.05943 104.57812 118.05078 C 104.57563 118.04646 104.57301 118.04189 104.57031 118.03516 C 104.56897 118.03179 104.56769 118.0286 104.56641 118.02344 C 104.56513 118.01828 104.56445 118.00245 104.56445 118.00195 C 104.56445 117.94919 104.59455 117.92804 104.61523 117.91211 C 104.63592 117.89618 104.65732 117.88328 104.68359 117.87109 C 104.73613 117.84673 104.80263 117.82375 104.87695 117.80273 C 105.02559 117.7607 105.20106 117.72843 105.33398 117.72852 C 105.58046 117.72866 105.7724 117.78532 105.89258 117.92383 C 106.01276 118.06233 106.04887 118.26473 106.0293 118.52344 C 105.99848 118.93087 105.7906 119.35558 105.46094 119.73047 C 105.50162 119.69794 105.548 119.66203 105.57812 119.625 C 105.86589 119.25881 106.03024 118.92777 106.10547 118.45898 C 106.1139 118.40652 106.1195 118.37208 106.13281 118.33789 C 106.13947 118.3208 106.14711 118.29884 106.17773 118.28125 C 106.20836 118.26366 106.25043 118.27003 106.26953 118.2793 L 106.23633 118.27148 A 0.078533366 0.078533366 0 0 1 106.26758 118.27734 C 106.26758 118.27734 106.26953 118.2793 106.26953 118.2793 C 106.29487 118.29124 106.30843 118.30647 106.32227 118.32031 C 106.35535 118.35339 106.38535 118.41076 106.38477 118.47266 C 106.38418 118.53455 106.36851 118.60538 106.33984 118.72852 C 106.30192 118.89221 106.20269 119.1608 106.11328 119.3457 C 106.06577 119.44398 105.98203 119.50264 105.9043 119.55664 C 105.82701 119.61033 105.75394 119.66017 105.70312 119.72266 C 105.70601 119.71899 105.70471 119.7179 105.70117 119.73047 C 105.69763 119.74303 105.69066 119.76976 105.66992 119.79492 C 105.63387 119.83865 105.5908 119.85937 105.55859 119.875 C 105.52639 119.89063 105.50461 119.90113 105.49023 119.91602 C 105.33055 120.08124 105.17731 120.27096 105.01953 120.43359 C 104.86175 120.59623 104.69904 120.73531 104.51172 120.78906 C 104.43734 120.8104 104.38237 120.82506 104.34375 120.83789 C 104.33475 120.84088 104.33717 120.84098 104.33008 120.84375 C 104.34405 120.85968 104.35594 120.87493 104.36523 120.89062 C 104.37584 120.90854 104.38579 120.92869 104.38477 120.96094 C 104.38374 120.99319 104.35089 121.03482 104.32227 121.04492 C 104.29364 121.05502 104.2741 121.05048 104.25586 121.04688 C 104.18291 121.03243 104.10827 120.9862 104.02539 120.91211 L 103.89648 120.79883 A 0.078533366 0.078533366 0 0 1 103.93359 120.66406 L 104.16406 120.61914 C 104.40504 120.57077 104.69103 120.39668 104.96484 120.17773 C 104.73447 120.34908 104.53584 120.45954 104.26758 120.53906 C 104.14289 120.57601 104.06548 120.59699 103.98828 120.59961 C 103.91108 120.60223 103.84394 120.58326 103.75781 120.55273 C 103.60093 120.49712 103.49056 120.40349 103.4043 120.29297 C 103.52809 120.48211 103.68337 120.69142 103.97461 120.92969 L 104.24414 121.14844 L 104.58008 121.14844 L 104.94336 121.14844 A 0.078533366 0.078533366 0 0 1 104.99609 121.16797 L 106.18555 122.22266 L 107.375 123.2793 A 0.078533366 0.078533366 0 0 1 107.38086 123.39062 L 107.23633 123.55078 C 107.1667 123.62784 107.05316 123.80191 107 123.91602 L 106.90234 124.125 L 106.87305 126.4082 C 106.86524 127.04031 106.85442 127.66657 106.8418 128.16602 C 106.82916 128.66601 106.81561 129.03566 106.80273 129.16992 C 106.782 129.38597 106.76943 129.50291 106.74219 129.5957 C 106.71494 129.6885 106.67092 129.74972 106.60547 129.82617 C 106.53988 129.90284 106.41222 130.0988 106.33789 130.24023 C 106.2704 130.36867 106.18419 130.59039 106.11719 130.79883 C 106.10728 130.82966 106.10081 130.85485 106.0918 130.88477 C 106.37363 129.92775 106.87931 129.40651 107.71875 129.22266 C 107.9501 129.17202 108.19844 129.162 108.80469 129.17383 C 109.74648 129.19216 110.32312 129.1906 110.73047 129.15234 C 110.82999 129.143 110.87687 129.11031 110.95898 129.0957 C 110.5728 129.15194 110.07943 129.16556 109.24414 129.1582 C 108.57409 129.15221 108.12993 129.15742 107.9043 129.17188 A 0.078533366 0.078533366 0 0 1 107.90234 129.17188 C 107.82367 129.17674 107.77096 129.18489 107.75391 129.18945 L 107.58594 129.23438 A 0.078533366 0.078533366 0 0 1 107.48828 129.1582 L 107.49023 128.65234 C 107.49222 128.12578 107.44543 127.77127 107.24023 126.74219 C 107.12806 126.17967 107.11632 126.03925 107.11914 125.38672 C 107.12115 124.91288 107.13934 124.59746 107.20117 124.35352 C 107.26301 124.10957 107.37312 123.93939 107.53711 123.77539 C 107.58853 123.72397 107.62662 123.68139 107.67188 123.65039 C 107.71711 123.61939 107.77646 123.60086 107.83398 123.60938 C 107.94882 123.62638 108.04325 123.70911 108.23438 123.85547 C 108.51658 124.07152 108.64838 124.21344 108.83594 124.49219 C 109.21131 125.05009 109.58477 125.34232 110.04297 125.45703 C 110.16623 125.48785 110.31663 125.55486 110.4082 125.62305 C 110.48431 125.6798 110.64497 125.80129 110.76758 125.89453 C 110.8832 125.98242 111.0655 126.0856 111.14062 126.11133 C 111.25114 126.14917 111.41628 126.24034 111.5332 126.32617 C 111.62194 126.39143 111.66955 126.42021 111.71094 126.43359 C 111.75232 126.44698 111.79792 126.44944 111.89453 126.44336 L 112.11328 126.42969 A 0.078533366 0.078533366 0 0 1 112.17969 126.45898 L 112.375 126.70508 C 112.33796 126.65622 112.33866 126.62047 112.29492 126.56836 C 112.24152 126.50473 112.20805 126.46418 112.18945 126.41211 C 112.18015 126.38607 112.17624 126.35455 112.18359 126.32617 C 112.19094 126.2978 112.20619 126.2753 112.2207 126.25781 C 112.23889 126.23593 112.25828 126.21688 112.2793 126.20117 C 112.30031 126.18547 112.31398 126.16797 112.36523 126.16797 C 112.40129 126.16797 112.41288 126.17888 112.42578 126.1875 C 112.43868 126.19612 112.45102 126.20583 112.46289 126.2168 C 112.48662 126.23873 112.51175 126.26702 112.54102 126.30078 C 112.59955 126.3683 112.67034 126.45773 112.74023 126.55273 C 112.81013 126.64774 112.8792 126.74753 112.93555 126.83594 C 112.98383 126.91171 113.01438 126.97094 113.03711 127.02539 C 113.02758 127.00467 113.03716 126.98552 113.02539 126.96094 C 112.96263 126.82973 112.80092 126.58576 112.67773 126.43945 C 112.56395 126.30431 112.50126 126.23262 112.46484 126.1543 C 112.42843 126.07597 112.43101 126.00075 112.4375 125.90039 C 112.44366 125.80524 112.44344 125.76717 112.42773 125.72852 C 112.41203 125.68986 112.3702 125.63682 112.2832 125.53516 C 112.22995 125.47277 112.1799 125.40631 112.14062 125.3457 C 112.10137 125.2851 112.07397 125.23907 112.0625 125.18359 C 112.05307 125.13785 112.02337 125.05361 112.00781 125.02539 C 111.99598 125.00386 111.98316 124.97932 111.98242 124.94727 C 111.98169 124.91522 111.99711 124.88291 112.01367 124.86133 C 112.0468 124.81816 112.08712 124.79172 112.15234 124.74023 C 112.19693 124.70496 112.31648 124.58047 112.45703 124.46094 C 112.59758 124.34141 112.76437 124.22161 112.94141 124.18359 C 113.07277 124.1554 113.2124 124.19255 113.33984 124.24023 C 113.46729 124.28792 113.58061 124.34884 113.64258 124.38477 C 113.69874 124.41735 113.80936 124.47425 113.9043 124.55078 C 113.95177 124.58905 113.99638 124.63301 114.0293 124.68555 C 114.06221 124.73809 114.08322 124.80258 114.07227 124.87109 C 113.99045 125.38254 113.97015 126.04061 114.33203 126.79297 C 114.46524 127.06992 114.59563 127.24902 114.7793 127.38477 C 114.96296 127.52051 115.20712 127.6145 115.57422 127.70508 C 116.25778 127.87372 116.69057 128.09747 116.85352 128.41211 C 116.93499 128.56943 116.93883 128.74931 116.86914 128.92773 C 116.79945 129.10616 116.65943 129.28736 116.45508 129.47656 C 116.065 129.83773 115.6073 130.05244 114.37305 130.46094 C 114.09153 130.55411 113.8107 130.65009 113.58789 130.73047 C 113.36508 130.81085 113.19309 130.87972 113.14844 130.90234 C 112.66446 131.14755 112.12206 131.52588 111.15234 132.30273 C 110.54203 132.79166 110.24734 132.95726 109.79297 133.05859 C 109.04697 133.22499 108.37502 133.04714 107.84375 132.53711 C 107.56516 132.2696 107.38939 132 107.30859 131.65625 C 107.2278 131.3125 107.2394 130.89885 107.31836 130.33594 L 107.38477 129.85547 A 0.078533366 0.078533366 0 0 1 107.39453 129.82812 C 107.37788 129.83665 107.36541 129.84027 107.34766 129.84961 C 106.86722 130.10182 106.54895 130.67785 106.44141 131.54883 C 106.41226 132.19183 106.40435 132.42207 106.53516 132.86914 C 106.60252 132.98134 106.67664 133.09029 106.76758 133.16797 A 0.078533366 0.078533366 0 0 1 106.77148 133.17188 L 107.01367 133.40234 C 107.25972 133.63703 107.57211 133.80631 107.96484 133.91406 C 108.12669 133.95845 108.50629 133.99346 108.88477 134.00195 C 109.26324 134.01044 109.65112 133.99446 109.83203 133.95703 C 110.14574 133.89215 110.3652 133.81482 110.60938 133.65625 C 110.85353 133.49768 111.12407 133.2547 111.52148 132.85547 C 112.31559 132.05774 113.07042 131.52119 114.08984 131.0293 C 114.38682 130.88601 114.81288 130.68024 115.03711 130.57227 C 115.41555 130.39002 116.31497 129.81312 116.79297 129.44531 C 116.94656 129.32712 117.0438 129.21554 117.10938 129.08398 C 117.22539 128.85115 117.22989 128.78731 117.14844 128.54883 C 117.1014 128.41111 117.02705 128.29317 116.875 128.14844 C 116.72295 128.0037 116.49368 127.83635 116.14844 127.60742 C 115.19657 126.97625 114.65474 126.4105 114.43945 125.79883 C 114.38564 125.64596 114.3429 125.37203 114.32227 125.0918 A 0.078533366 0.078533366 0 0 1 114.32227 125.08789 C 114.31623 124.84774 114.31497 124.67871 114.21875 124.5293 C 114.16324 124.44277 114.12547 124.40121 114.05664 124.35547 C 113.98781 124.30972 113.88538 124.26151 113.7168 124.17578 C 113.39168 124.01046 113.13867 123.97266 113.13867 123.97266 A 0.078533366 0.078533366 0 0 1 113.09375 123.83984 C 113.37889 123.54892 113.50416 123.38652 113.625 123.21094 C 113.79555 122.96314 113.91695 122.66636 113.99023 122.30469 C 114.07655 121.87855 114.04614 121.25423 113.88867 120.33984 C 113.5401 118.31583 113.19262 117.159 112.54688 115.87109 C 112.1026 114.985 111.69849 114.36923 110.7793 113.17578 C 109.87213 111.99798 109.42424 111.29922 108.65039 109.86133 C 107.55071 107.81796 107.49734 107.61364 107.26562 104.43359 C 107.11625 102.38361 107.00133 101.57372 106.78906 101.00977 C 106.08551 99.140603 104.43759 98.02308 102.03516 97.800781 C 101.84885 97.783546 101.66114 97.773046 101.47656 97.769531 z M 113.03711 127.02539 C 113.04925 127.05181 113.0438 127.08504 113.05273 127.10742 C 113.04855 127.09297 113.05933 127.07028 113.05469 127.05664 C 113.05177 127.04808 113.0409 127.03447 113.03711 127.02539 z M 113.05273 127.10742 C 113.12041 127.34135 113.08664 127.65142 113.03711 127.92969 C 113.06078 127.80838 113.14278 127.73502 113.14258 127.56641 C 113.14237 127.30817 113.10278 127.23277 113.05273 127.10742 z M 113.03711 127.92969 C 113.01456 128.04524 112.98725 128.17662 112.93555 128.27539 C 112.95241 128.24159 113.0189 128.21695 113.03125 128.18359 C 113.05725 128.11339 113.02181 128.01562 113.03711 127.92969 z M 112.93555 128.27539 C 112.80837 128.53033 112.51421 128.75306 112.21289 128.9668 C 112.44716 128.80148 112.73806 128.68814 112.86328 128.52148 C 112.91803 128.44862 112.89874 128.3457 112.93555 128.27539 z M 112.21289 128.9668 C 112.02451 129.09973 111.88462 129.23681 111.68945 129.32422 C 111.76109 129.29324 111.8382 129.28917 111.91406 129.25195 C 112.05064 129.18494 112.08845 129.05507 112.21289 128.9668 z M 111.68945 129.32422 C 111.49348 129.40897 111.29067 129.47568 111.07422 129.51953 C 111.19713 129.49806 111.37319 129.50106 111.48047 129.4668 C 111.55312 129.4436 111.61155 129.35911 111.68945 129.32422 z M 111.07422 129.51953 C 110.83362 129.56155 110.6191 129.61237 110.2793 129.625 C 110.50785 129.61585 110.71551 129.60386 110.88672 129.58008 C 110.95934 129.56999 111.00815 129.53292 111.07422 129.51953 z M 112.375 126.70508 C 112.39136 126.72667 112.39507 126.74459 112.41016 126.76562 C 112.40283 126.75622 112.41 126.74788 112.40234 126.73828 L 112.375 126.70508 z M 112.41016 126.76562 C 112.64741 127.06988 112.71604 127.28449 112.69922 127.63867 C 112.7064 127.52302 112.74821 127.39534 112.71875 127.28516 C 112.67647 127.12701 112.54038 126.94718 112.41016 126.76562 z M 112.69922 127.63867 C 112.69739 127.66808 112.6975 127.69818 112.69336 127.72852 C 112.69541 127.7074 112.70952 127.69585 112.71094 127.67383 C 112.71189 127.65906 112.69854 127.65294 112.69922 127.63867 z M 112.69336 127.72852 C 112.68072 127.85841 112.63571 127.96263 112.58984 128.06641 C 112.6026 128.03868 112.67132 128.01135 112.67969 127.98438 C 112.70996 127.88683 112.68156 127.81486 112.69336 127.72852 z M 112.58984 128.06641 C 112.46458 128.33869 112.16006 128.63442 111.70117 128.86523 C 111.79374 128.81713 111.88589 128.77467 111.98242 128.71094 C 112.2499 128.53434 112.42371 128.39409 112.53711 128.23438 C 112.57112 128.18646 112.56699 128.11811 112.58984 128.06641 z M 111.70117 128.86523 C 111.65021 128.89172 111.59971 128.92894 111.54688 128.95117 C 111.58092 128.93656 111.61544 128.92849 111.65039 128.91211 C 111.67776 128.89927 111.67463 128.87858 111.70117 128.86523 z M 110.95898 129.0957 C 110.97613 129.09321 111.01852 129.09644 111.03516 129.09375 C 111.22857 129.06247 111.38831 129.01681 111.53711 128.95508 C 111.37074 129.02572 111.1665 129.05878 110.95898 129.0957 z M 103.4043 120.29297 C 103.39267 120.2752 103.36145 120.24932 103.35156 120.23242 C 103.35537 120.23894 103.35142 120.24948 103.35547 120.25586 C 103.36598 120.2724 103.39224 120.27752 103.4043 120.29297 z M 103.35156 120.23242 C 103.29555 120.13662 103.28684 120.01411 103.28125 119.89062 C 103.28833 119.96529 103.23964 120.07974 103.26562 120.13672 C 103.27686 120.16134 103.33572 120.20534 103.35156 120.23242 z M 103.28125 119.89062 C 103.2713 119.78575 103.2729 119.67609 103.30273 119.54492 C 103.28485 119.61986 103.26224 119.69493 103.25586 119.76367 C 103.25131 119.81271 103.27917 119.84481 103.28125 119.89062 z M 104.23633 119.57422 C 104.31049 119.59118 104.37918 119.60067 104.46094 119.57617 C 104.57923 119.54072 104.73171 119.42873 104.85547 119.28711 C 104.97923 119.14548 105.07702 118.97568 105.10547 118.83984 C 105.11225 118.80743 105.09775 118.75942 105.08203 118.71094 A 0.078533366 0.078533366 0 0 1 105.07812 118.73633 L 105.03125 118.875 C 105.0013 118.9621 104.93907 119.08696 104.88477 119.17383 C 104.82754 119.26533 104.73571 119.36975 104.6543 119.42773 L 104.53516 119.51172 A 0.078533366 0.078533366 0 0 1 104.4375 119.50586 L 104.22266 119.31445 C 104.23805 119.33022 104.25736 119.35004 104.26758 119.36133 C 104.28627 119.38198 104.29671 119.38463 104.31055 119.42383 C 104.31458 119.43525 104.31755 119.44489 104.32031 119.45898 C 104.32169 119.46603 104.32434 119.47381 104.32422 119.48438 C 104.32416 119.48965 104.32369 119.49685 104.32227 119.50391 C 104.32084 119.51096 104.31295 119.52649 104.3125 119.52734 C 104.31205 119.5282 104.29366 119.55215 104.29297 119.55273 C 104.29227 119.55332 104.26463 119.56806 104.26367 119.56836 C 104.26271 119.56866 104.2441 119.57424 104.23633 119.57422 z M 105.08203 118.71094 A 0.078533366 0.078533366 0 0 0 105.08008 118.69531 C 105.08219 118.70128 105.08014 118.70512 105.08203 118.71094 z M 103.84375 99.546875 C 103.90978 99.537285 103.97851 99.550397 104.05078 99.574219 C 104.21449 99.628268 104.40653 99.767108 104.57031 99.916016 C 104.6522 99.990469 104.72634 100.06662 104.78125 100.13867 C 104.83616 100.21073 104.87792 100.27375 104.87891 100.35352 C 104.87926 100.39051 104.87168 100.43062 104.84766 100.46484 C 104.82364 100.49907 104.78743 100.52218 104.74805 100.53711 C 104.66928 100.56697 104.56681 100.57489 104.41016 100.58008 C 104.31418 100.58347 104.26274 100.59163 104.20312 100.61523 C 104.14352 100.63884 104.07232 100.68181 103.95312 100.76367 C 103.81144 100.86097 103.70484 100.92228 103.60938 100.94922 C 103.5139 100.97615 103.41721 100.95628 103.35547 100.89453 C 103.31 100.84906 103.27725 100.77965 103.29102 100.71289 C 103.30478 100.64613 103.34503 100.59193 103.4043 100.52148 C 103.4719 100.44118 103.49656 100.37068 103.52148 100.14844 C 103.54134 99.971201 103.56931 99.837461 103.61719 99.736328 C 103.66506 99.635196 103.74509 99.562267 103.84375 99.546875 z M 98.330078 104.13867 C 98.203201 104.13402 98.06276 104.17691 97.914062 104.27539 C 97.793848 104.35502 97.722035 104.44735 97.683594 104.57422 C 97.645153 104.70108 97.643806 104.86538 97.681641 105.07617 C 97.763192 105.53077 97.920928 105.78327 98.144531 105.87695 C 98.18441 105.89369 98.220467 105.91189 98.25 105.93164 C 98.264767 105.94151 98.276442 105.95206 98.289062 105.96484 C 98.295373 105.97123 98.302234 105.97777 98.308594 105.98828 C 98.311774 105.99354 98.315654 105.99993 98.318359 106.00781 C 98.319712 106.01175 98.319415 106.01662 98.320312 106.02148 C 98.321212 106.02635 98.322266 106.03653 98.322266 106.03711 C 98.322266 106.03827 98.321604 106.05517 98.320312 106.06055 C 98.319022 106.06592 98.31786 106.07 98.316406 106.07422 C 98.313499 106.08266 98.30859 106.09078 98.304688 106.09961 C 98.29688 106.11728 98.287765 106.13834 98.275391 106.16211 C 98.250642 106.20964 98.218081 106.26893 98.181641 106.33008 C 98.138402 106.40259 98.104579 106.44348 98.068359 106.48438 C 98.131723 106.43173 98.174837 106.40123 98.234375 106.34961 C 98.402182 106.20411 98.649381 106.00193 98.787109 105.89648 C 98.926609 105.78969 99.00039 105.7077 99.041016 105.60742 C 99.081641 105.50714 99.090824 105.37833 99.076172 105.17383 C 99.057085 104.90694 98.850995 104.4549 98.683594 104.29688 C 98.573242 104.19268 98.456955 104.14333 98.330078 104.13867 z M 103.04883 104.23047 A 0.078533366 0.078533366 0 0 1 103.05078 104.23047 C 103.1776 104.23223 103.30866 104.27699 103.42383 104.3457 C 103.539 104.41442 103.63864 104.50761 103.69531 104.61719 C 103.7487 104.72045 103.78633 104.84598 103.80664 104.9668 C 103.82695 105.08761 103.83484 105.19752 103.80078 105.28711 C 103.7832 105.33329 103.75848 105.37516 103.7207 105.4043 C 103.68292 105.43344 103.63417 105.44531 103.58789 105.44531 C 103.53936 105.44531 103.48105 105.43221 103.44531 105.38867 C 103.40958 105.34514 103.39875 105.29655 103.38672 105.23242 C 103.37178 105.15281 103.32864 105.0338 103.27539 104.92773 C 103.22214 104.82167 103.15519 104.72594 103.11914 104.69336 C 103.09121 104.6681 103.00248 104.61959 102.95703 104.60742 C 102.90755 104.59419 102.86176 104.57683 102.82812 104.53906 C 102.79451 104.50129 102.78516 104.45059 102.78516 104.4043 C 102.78516 104.37994 102.78454 104.35631 102.79297 104.32812 C 102.80139 104.29995 102.82646 104.26711 102.85547 104.25195 C 102.91349 104.22163 102.96167 104.2294 103.04883 104.23047 z M 98.429688 104.33203 C 98.483707 104.33127 98.728775 104.39696 98.583984 104.38477 C 98.628881 104.41855 98.668808 104.46422 98.712891 104.52344 C 98.782585 104.61707 98.838187 104.77471 98.882812 104.93945 C 98.905125 105.02182 98.922666 105.10395 98.933594 105.17773 C 98.944522 105.25152 98.95142 105.31485 98.941406 105.37109 C 98.931178 105.42857 98.919352 105.47592 98.880859 105.51562 C 98.842367 105.55535 98.787766 105.56445 98.740234 105.56445 C 98.7011 105.56445 98.665161 105.55878 98.630859 105.53906 C 98.596558 105.51935 98.564453 105.47602 98.564453 105.42969 C 98.564453 105.35032 98.540387 105.23514 98.503906 105.12891 C 98.467425 105.02268 98.416467 104.92391 98.376953 104.87891 C 98.300379 104.79169 98.250612 104.6979 98.236328 104.60742 C 98.222044 104.51695 98.250906 104.41858 98.330078 104.36719 C 98.357048 104.34964 98.39054 104.33471 98.429688 104.33203 z M 99.472656 106.00781 C 99.302369 106.01952 99.153797 106.05626 99.214844 106.05664 C 99.131262 106.09155 99.087512 106.1332 99.072266 106.16406 C 99.057019 106.19492 99.057959 106.22087 99.089844 106.26953 C 99.12608 106.32485 99.143015 106.32695 99.162109 106.32227 C 99.181204 106.31758 99.225545 106.28322 99.265625 106.20117 C 99.293451 106.14425 99.322306 106.09922 99.359375 106.06445 C 99.395353 106.03071 99.443794 106.01136 99.492188 106.00977 C 99.484679 106.00973 99.480473 106.00762 99.472656 106.00781 z M 101.04688 106.01367 C 100.98403 106.01157 100.93515 106.01378 100.88672 106.01562 C 100.93256 106.04319 100.98644 106.07304 101.06445 106.10156 C 101.17114 106.14058 101.24477 106.15616 101.28516 106.1543 C 101.32554 106.15244 101.33248 106.14765 101.35156 106.11719 C 101.36271 106.09944 101.36328 106.09174 101.36328 106.08789 C 101.36328 106.08405 101.36271 106.07635 101.35156 106.05859 C 101.3458 106.04943 101.34589 106.04522 101.30078 106.03516 C 101.25568 106.02509 101.17463 106.01827 101.04688 106.01367 z M 106.00586 108.38672 C 106.13969 108.40484 106.43701 108.68142 106.33594 108.60352 C 106.48734 108.74369 106.68775 108.876 106.93555 108.99414 C 107.16032 109.10131 107.29337 109.16921 107.37109 109.27148 C 107.40995 109.32262 107.43023 109.38343 107.43164 109.44531 C 107.43305 109.5072 107.42054 109.57062 107.40039 109.64258 C 107.37059 109.74893 107.31482 109.88386 107.26562 109.96484 C 107.23136 110.02121 107.19465 110.06715 107.14258 110.09766 C 107.09051 110.12816 107.02456 110.13567 106.96289 110.12109 C 106.83955 110.09195 106.71492 109.99881 106.52734 109.83789 C 106.12381 109.49171 105.88477 109.08671 105.88477 108.70508 C 105.88477 108.6426 105.89001 108.58227 105.89844 108.5332 C 105.90265 108.50867 105.90683 108.48726 105.91406 108.4668 C 105.9213 108.44633 105.92308 108.42509 105.96289 108.40039 C 105.9636 108.39995 105.979 108.39258 105.98633 108.39062 C 105.99365 108.38868 106.00004 108.38697 106.00586 108.38672 z M 97.15625 112.09375 C 97.216813 112.04076 98.119764 112.75089 97.470703 112.27344 C 97.571391 112.34686 97.697767 112.44031 97.832031 112.54297 C 98.100559 112.7483 98.400512 112.98416 98.583984 113.13867 C 98.749176 113.27779 98.844928 113.36483 98.890625 113.46289 C 98.913473 113.51192 98.919018 113.57016 98.902344 113.61914 C 98.890184 113.65486 98.864422 113.68129 98.839844 113.70898 C 98.870355 113.67858 98.911493 113.66467 98.933594 113.62891 C 98.978447 113.55631 98.997594 113.49645 99 113.45898 C 99.002406 113.42152 98.995505 113.40731 98.970703 113.38672 C 98.947842 113.36776 98.930688 113.34679 98.917969 113.32031 C 98.905249 113.29383 98.899013 113.25697 98.912109 113.22461 C 98.925206 113.19225 98.953323 113.17281 98.978516 113.16211 C 99.003708 113.15141 99.028465 113.14789 99.054688 113.14844 C 99.099959 113.04816 99.525508 113.50049 99.287109 113.25977 C 99.315402 113.30429 99.320313 113.35434 99.320312 113.4082 C 99.320312 113.71255 99.121723 114.01254 98.830078 114.16211 C 98.696943 114.23038 98.573157 114.25705 98.466797 114.22852 C 98.360437 114.19998 98.285156 114.09723 98.285156 113.97656 C 98.285156 113.95443 98.284925 113.9359 98.287109 113.91797 C 98.289293 113.90004 98.289111 113.88177 98.3125 113.85352 C 98.315424 113.84998 98.318297 113.84525 98.322266 113.8418 C 98.326234 113.83834 98.335422 113.83233 98.335938 113.83203 C 98.336968 113.83143 98.36795 113.82242 98.369141 113.82227 C 98.370331 113.82212 98.389909 113.82044 98.398438 113.82227 C 98.406965 113.82409 98.414101 113.82735 98.419922 113.83008 C 98.443204 113.841 98.452899 113.85332 98.464844 113.86523 C 98.47836 113.87875 98.500083 113.88616 98.535156 113.88672 C 98.570229 113.88728 98.616932 113.87826 98.666016 113.85742 C 98.683391 113.85005 98.695289 113.82634 98.712891 113.81641 C 98.689671 113.8303 98.669356 113.8457 98.630859 113.8457 C 98.62997 113.8457 98.613482 113.8454 98.607422 113.84375 C 98.601362 113.8421 98.595967 113.83973 98.591797 113.83789 C 98.583456 113.83421 98.578382 113.83009 98.572266 113.82617 C 98.560032 113.81833 98.548242 113.80969 98.535156 113.79883 C 98.508985 113.77709 98.476201 113.74678 98.4375 113.70898 C 98.360099 113.63339 98.256562 113.52612 98.130859 113.39062 C 97.879454 113.11966 97.542696 112.73938 97.166016 112.30273 C 97.145583 112.27911 97.12898 112.26115 97.117188 112.24609 C 97.11129 112.23857 97.106571 112.2325 97.101562 112.22461 C 97.099059 112.22066 97.09665 112.21727 97.09375 112.21094 C 97.0923 112.20777 97.09137 112.20232 97.089844 112.19727 C 97.088318 112.19221 97.085955 112.17817 97.085938 112.17773 C 97.085919 112.1773 97.091658 112.14094 97.091797 112.14062 C 97.091935 112.14033 97.124705 112.10565 97.125 112.10547 C 97.125295 112.10529 97.155799 112.0938 97.15625 112.09375 z M 98.712891 113.81641 C 98.718322 113.81316 98.726818 113.81398 98.732422 113.81055 C 98.761984 113.79242 98.789684 113.76891 98.816406 113.74219 C 98.826558 113.73204 98.830717 113.71927 98.839844 113.70898 C 98.79869 113.75 98.759891 113.78988 98.712891 113.81641 z M 108.04297 113.21875 C 108.17623 113.26736 108.52093 113.51617 108.4082 113.43164 C 108.59402 113.5722 108.80136 113.76421 108.9668 113.96289 C 109.46143 114.55691 109.99715 115.44498 110.41406 116.36328 C 110.81979 117.25693 110.97479 117.96883 110.97266 118.90625 C 110.97064 119.60741 110.90296 120.0959 110.69531 120.8418 C 110.64696 121.01543 110.61402 121.14674 110.59766 121.23438 C 110.58947 121.27818 110.58457 121.31104 110.58398 121.33008 C 110.58707 121.33219 110.58589 121.32973 110.58984 121.33203 C 110.60397 121.34025 110.62332 121.35178 110.64648 121.36328 C 110.69282 121.38628 110.752 121.41293 110.8125 121.4375 C 110.94408 121.49104 111.11894 121.58202 111.21875 121.65039 C 111.33268 121.72845 111.46127 121.83719 111.56445 121.93555 C 111.61604 121.98472 111.66149 122.02999 111.69531 122.07031 C 111.71223 122.09047 111.72475 122.11027 111.73633 122.12891 C 111.7479 122.14754 111.76172 122.16139 111.76172 122.20117 C 111.76172 122.2253 111.75464 122.25502 111.73633 122.27734 C 111.71802 122.29967 111.6923 122.31062 111.66992 122.31641 C 111.62516 122.32798 111.58511 122.3235 111.53516 122.3125 C 111.43524 122.29049 111.29958 122.23876 111.11914 122.15625 C 110.56057 121.9008 110.20487 121.84685 109.63477 121.93164 C 109.48794 121.95347 109.40933 121.96599 109.33789 121.95703 C 109.26645 121.94807 109.21443 121.90681 109.16602 121.86133 C 109.13316 121.83046 109.10795 121.80539 109.08789 121.7793 C 109.06783 121.75321 109.04768 121.72618 109.04883 121.67969 C 109.0494 121.65644 109.05993 121.63045 109.07617 121.61328 C 109.09241 121.59612 109.11098 121.58745 109.12695 121.58203 C 109.1589 121.57119 109.18864 121.57031 109.22461 121.57031 C 109.46613 121.57031 109.66953 121.47872 109.8418 121.30664 C 110.01406 121.13456 110.15167 120.87837 110.24609 120.55469 C 110.43494 119.90732 110.44662 118.99213 110.22852 117.96094 C 109.98433 116.8064 109.42605 115.66177 108.28125 113.97266 C 108.16514 113.80133 108.06314 113.64321 107.99219 113.52734 C 107.95671 113.46941 107.92898 113.42226 107.91016 113.38672 C 107.90074 113.36895 107.89438 113.35455 107.88867 113.33984 C 107.88582 113.33249 107.88285 113.32654 107.88086 113.3125 C 107.88036 113.30899 107.87891 113.29932 107.87891 113.29883 C 107.87891 113.29833 107.88077 113.27966 107.88086 113.2793 C 107.88095 113.27893 107.8963 113.24828 107.89648 113.24805 C 107.89667 113.24782 107.93332 113.22275 107.93359 113.22266 C 107.9732 113.20873 108.00787 113.20943 108.04297 113.21875 z M 94.144531 114.76953 C 94.235583 114.76953 94.317353 114.82482 94.355469 114.9043 C 94.393584 114.98377 94.400396 115.0807 94.382812 115.19336 C 94.364751 115.30912 94.340003 115.39842 94.277344 115.49609 C 94.214684 115.59377 94.118267 115.70035 93.951172 115.87695 C 93.818411 116.01727 93.720342 116.10789 93.632812 116.16016 C 93.589049 116.18629 93.546487 116.20361 93.5 116.20508 C 93.453513 116.20655 93.406379 116.18567 93.375 116.1543 C 93.346535 116.12583 93.326485 116.08569 93.324219 116.04492 C 93.321952 116.00415 93.332411 115.96516 93.349609 115.92578 C 93.384007 115.84703 93.448493 115.76229 93.542969 115.6543 C 93.690095 115.48618 93.736185 115.39994 93.771484 115.24219 C 93.802515 115.10349 93.846313 114.99131 93.90625 114.9082 C 93.966187 114.8251 94.049516 114.76953 94.144531 114.76953 z M 106.70312 119.48828 C 106.82064 119.43755 106.8041 120.02892 106.74805 119.71875 C 106.72037 119.78507 106.67802 119.86587 106.62695 119.95508 C 106.52482 120.13349 106.38921 120.33954 106.26562 120.48633 C 106.12624 120.65189 105.8999 120.86486 105.74609 120.97461 C 105.67597 121.02465 105.61487 121.07245 105.57227 121.10938 C 105.56546 121.11526 105.56234 121.11783 105.55664 121.12305 C 105.58086 121.14652 105.61171 121.17722 105.6543 121.2168 C 105.74815 121.30402 105.88534 121.42722 106.05469 121.58008 C 106.39339 121.8858 106.86615 122.30799 107.4082 122.78711 C 107.57597 122.93539 107.72701 123.07355 107.83789 123.17773 C 107.89333 123.22983 107.93864 123.27417 107.9707 123.30664 C 107.98673 123.32288 107.99968 123.33609 108.00977 123.34766 C 108.01481 123.35344 108.0187 123.35855 108.02344 123.36523 C 108.02581 123.36857 108.02807 123.3708 108.03125 123.37695 C 108.03284 123.38003 108.03698 123.39024 108.03711 123.39062 C 108.03724 123.39102 108.04102 123.41574 108.04102 123.41602 C 108.04102 123.43875 108.03351 123.46553 108.01758 123.48438 C 108.00164 123.50321 107.98033 123.51397 107.96289 123.51953 C 107.928 123.53066 107.89913 123.52678 107.86719 123.52148 C 107.8033 123.5109 107.7321 123.4831 107.66211 123.43945 C 107.62374 123.41553 107.56764 123.37151 107.48438 123.30273 C 107.40111 123.23396 107.29524 123.14377 107.17383 123.03906 C 106.931 122.82966 106.62701 122.56193 106.33008 122.29688 C 106.03314 122.03181 105.74352 121.76847 105.52539 121.56641 C 105.41633 121.46538 105.32469 121.37994 105.25977 121.31641 C 105.22731 121.28464 105.20082 121.25889 105.18164 121.23828 C 105.17205 121.22798 105.16513 121.21957 105.1582 121.21094 C 105.15474 121.20662 105.152 121.20078 105.14844 121.19531 C 105.14666 121.19258 105.14471 121.1897 105.14258 121.18555 C 105.14045 121.18139 105.13492 121.16857 105.13477 121.16797 C 105.13458 121.16721 105.1323 121.14824 105.13281 121.14062 C 105.13332 121.13303 105.1352 121.12645 105.13672 121.12109 C 105.13977 121.11038 105.14282 121.10413 105.14648 121.09766 C 105.15382 121.08471 105.16129 121.07439 105.16992 121.06445 C 105.18718 121.04457 105.20793 121.02499 105.23438 121.00195 C 105.28724 120.95588 105.359 120.90068 105.43945 120.8457 C 105.73589 120.64316 106.11757 120.2423 106.3457 119.89258 C 106.43039 119.76275 106.48948 119.67443 106.53125 119.61523 C 106.57302 119.55604 106.58857 119.52606 106.63477 119.5 C 106.65225 119.4901 106.67865 119.48329 106.70312 119.48828 z M 91.498047 122.56836 C 91.809337 122.56886 92.122376 122.69482 92.484375 122.99609 C 93.145865 123.54664 93.994052 124.68655 95.416016 126.82422 C 96.12526 127.89045 96.520225 128.49036 96.769531 128.91602 C 97.018837 129.34167 97.123557 129.59503 97.248047 129.95312 C 97.368297 130.29821 97.380278 130.38248 97.380859 130.88672 C 97.381361 131.34378 97.363547 131.49244 97.283203 131.75 C 97.078279 132.40657 96.729022 132.85122 96.242188 133.04688 C 96.137726 133.08886 96.051429 133.11549 95.931641 133.12891 C 95.811853 133.14233 95.658968 133.14427 95.402344 133.14453 L 94.822266 133.14453 A 0.078533366 0.078533366 0 0 1 94.802734 133.14258 L 92.962891 132.6875 C 89.768898 131.8977 88.216619 131.51452 87.447266 131.30078 C 87.062589 131.19391 86.874399 131.13211 86.765625 131.07422 C 86.656851 131.01632 86.625203 130.93546 86.607422 130.88867 C 86.570559 130.79173 86.566624 130.68665 86.615234 130.56445 C 86.663845 130.44225 86.758042 130.29478 86.917969 130.0625 C 87.231818 129.60664 87.296687 129.45502 87.365234 129.01562 C 87.435952 128.56205 87.337987 128.13458 86.939453 127.23828 C 86.812272 126.9522 86.734026 126.73385 86.701172 126.55273 C 86.668318 126.37162 86.68311 126.22518 86.748047 126.09961 C 86.823776 125.95317 86.956383 125.85367 87.140625 125.81445 C 87.324867 125.77524 87.562498 125.785 87.886719 125.83203 C 88.415083 125.90867 89.034309 125.88453 89.304688 125.79102 C 89.529957 125.71311 89.795596 125.47242 89.910156 125.23828 C 90.059901 124.93222 90.227847 124.2446 90.244141 123.92188 A 0.078533366 0.078533366 0 0 1 90.248047 123.89844 L 90.427734 123.41406 L 90.427734 123.41211 C 90.482287 123.25704 90.608375 123.08938 90.720703 122.95312 C 90.833394 122.81645 90.933594 122.71484 90.933594 122.71484 A 0.078533366 0.078533366 0 0 1 90.9375 122.71094 C 91.093174 122.56985 91.305154 122.5681 91.498047 122.56836 z M 109.83594 129.63477 C 109.62599 129.63704 109.43193 129.63929 109.16211 129.63672 C 108.83333 129.63358 108.73145 129.64511 108.5293 129.64844 C 108.73608 129.64548 108.90656 129.64225 109.30273 129.64453 C 109.55453 129.64605 109.64603 129.63662 109.83594 129.63477 z M 108.14453 129.65625 C 108.09055 129.65982 107.95679 129.65484 107.91211 129.66016 C 107.74821 129.67967 107.63473 129.71819 107.51758 129.76953 L 107.7207 129.71484 C 107.83867 129.6829 107.95956 129.6667 108.14453 129.65625 z M 106.07617 130.94336 C 106.06185 130.99219 106.01497 131.19661 106.00586 131.25 C 106.02547 131.14243 106.04939 131.04031 106.07617 130.94336 z "
       style="fill:#000000;fill-opacity:1;fill-rule:evenodd;stroke:#000000;stroke-width:0.15000001;stroke-miterlimit:4;stroke-dasharray:none;stroke-opacity:1"
       id="path884-6"
       d="m 101.47656,97.769531 c -1.29181,-0.02465 -2.510472,0.284528 -3.283201,0.835938 -0.948092,0.676535 -1.533269,1.848891 -1.71289,3.468751 -0.08372,0.75491 -0.05565,2.28518 0.109375,5.6289 0.03802,0.77049 0.07031,1.56611 0.07031,1.78321 4e-5,0.23194 -0.0062,0.37985 -0.09375,0.57031 -0.08756,0.19046 -0.248562,0.42034 -0.554687,0.85547 -0.231719,0.32934 -0.396395,0.57529 -0.439453,0.64258 a 0.07853337,0.07853337 0 0 1 -0.002,0 l -0.125,0.1875 h 0.002 c -0.0449,0.0708 -0.285058,0.41341 -0.576172,0.82422 -0.291114,0.4108 -0.627725,0.87931 -0.845703,1.16992 -0.849272,1.13227 -0.996473,1.41534 -1.607422,3.07812 -0.426338,1.16032 -0.868641,2.14482 -1.523438,3.38477 -0.399029,0.75562 -0.433863,0.88901 -0.43164,1.72851 a 0.07853337,0.07853337 0 0 1 0,0.01 c 0,0 -0.05487,0.49767 0.01758,0.79102 0.03054,0.12361 -0.0053,0.23338 -0.05273,0.31836 -0.04743,0.0849 -0.104391,0.15342 -0.132812,0.20898 -0.08298,0.1621 -0.148438,0.38086 -0.148438,0.38086 l -0.07617,0.2539 a 0.07853337,0.07853337 0 0 1 -0.0078,0.0117 0.07853337,0.07853337 0 0 1 0,0.004 c -0.0099,0.0259 -0.03801,0.10175 -0.101562,0.28906 -0.176136,0.51886 -0.29257,0.74059 -0.521485,0.97071 -0.170781,0.17168 -0.317198,0.2824 -0.544922,0.34375 -0.227723,0.0613 -0.532564,0.0786 -1.048828,0.0937 -0.470707,0.0138 -0.716614,0.025 -0.861328,0.0586 -0.144714,0.0336 -0.19374,0.0813 -0.3125,0.20508 -0.171621,0.17891 -0.239153,0.36398 -0.261719,0.75195 -0.0217,0.37347 0.02068,0.65544 0.171875,1.14063 0.242475,0.7778 0.213799,1.27517 -0.126953,2.29296 -0.05958,0.17796 -0.113614,0.35618 -0.152344,0.5 -0.01936,0.0719 -0.03445,0.13626 -0.04492,0.18555 -0.01047,0.0493 -0.01566,0.0879 -0.01562,0.0937 0.0018,0.28542 0.232776,0.5966 0.583984,0.75195 0.103824,0.0459 0.458388,0.14869 0.93164,0.26563 0.473254,0.11694 1.073605,0.25364 1.701172,0.38477 1.717492,0.35885 2.248082,0.51665 3.669922,1.08984 0.891158,0.35926 1.469528,0.57006 1.886719,0.67383 0.417191,0.10377 0.668123,0.10166 0.927734,0.0351 0.322588,-0.0827 0.452788,-0.16202 0.988282,-0.60742 0.995853,-0.82827 1.501035,-1.05546 2.623047,-1.17969 0.14036,-0.0155 0.517842,-0.0266 1.035152,-0.0352 0.51732,-0.009 1.16735,-0.0135 1.82422,-0.0156 1.31376,-0.004 2.65142,0.004 3.04102,0.0312 l 0.3457,0.0234 a 0.07853337,0.07853337 0 0 1 0.002,0 c 0.0471,0.004 0.1048,0.0159 0.16993,0.0371 -0.0436,-0.33687 -0.0277,-0.69253 0.0293,-1.01563 0,0.037 -0.006,0.0703 -0.0215,0.10157 -0.0154,0.0313 -0.0462,0.0723 -0.10352,0.0723 -0.0239,0 -0.0511,-0.0124 -0.0664,-0.0273 -0.0153,-0.0149 -0.0223,-0.0294 -0.0274,-0.043 -0.0102,-0.0272 -0.0136,-0.0534 -0.0156,-0.0859 -0.004,-0.065 4.7e-4,-0.15591 0.01,-0.28711 0.0288,-0.40545 0.0874,-0.68844 0.31055,-1.51953 0.17967,-0.66914 0.21744,-0.98411 0.16016,-1.23633 -0.0271,-0.11928 -0.0672,-0.19913 -0.10547,-0.24023 -0.0383,-0.0411 -0.0677,-0.0521 -0.1211,-0.043 -0.10683,0.0182 -0.30033,0.16732 -0.52343,0.46484 -0.62817,0.83768 -1.17291,1.23947 -2.07227,1.52539 -0.73725,0.23439 -1.8706,0.35723 -2.88672,0.31836 -0.892864,-0.0342 -1.230712,-0.1479 -1.785154,-0.60156 -0.156634,-0.12817 -0.255235,-0.19914 -0.326172,-0.23242 -0.07094,-0.0333 -0.114268,-0.0353 -0.201172,-0.0254 -0.04256,0.005 -0.0631,0.0163 -0.06445,0.0176 -0.0013,0.001 -0.0024,-0.009 0.002,0.01 0.0088,0.037 0.0785,0.14366 0.212891,0.2793 0.28483,0.28749 0.434828,0.5702 0.503906,0.95117 0.08671,0.47807 -0.03409,0.93379 -0.333984,1.24414 -0.06517,0.0674 -0.116494,0.11818 -0.158203,0.1543 -0.02085,0.0181 -0.03936,0.0332 -0.05859,0.0449 -0.01923,0.0118 -0.03898,0.0248 -0.07813,0.0215 -0.01957,-0.002 -0.04336,-0.0114 -0.05859,-0.0274 -0.01523,-0.0159 -0.02215,-0.0331 -0.02539,-0.0469 -0.0065,-0.0276 -0.0033,-0.0477 0,-0.0703 0.0066,-0.0451 0.02256,-0.10001 0.04492,-0.17187 0.101776,-0.32701 0.09792,-0.62135 -0.05078,-1.00977 -0.1487,-0.38841 -0.447117,-0.86682 -0.939453,-1.53515 -0.07299,-0.0991 -0.143579,-0.1938 -0.197265,-0.26758 -0.05369,-0.0738 -0.08504,-0.11731 -0.101563,-0.14453 -0.01287,-0.0212 -0.01571,-0.0501 -0.01172,-0.0703 0.004,-0.0203 0.01113,-0.0348 0.01953,-0.0469 0.01681,-0.0242 0.03736,-0.0411 0.0625,-0.0605 0.05028,-0.0389 0.120934,-0.0824 0.216797,-0.13281 0.327967,-0.17235 0.668585,-0.4813 0.771484,-0.67773 0.05504,-0.10503 0.07873,-0.20799 0.08008,-0.38672 0.0019,-0.23376 -0.06862,-0.44696 -0.244141,-0.68555 -0.175519,-0.23858 -0.457725,-0.49984 -0.873047,-0.81445 -0.970172,-0.73492 -1.758439,-1.3983 -3.009765,-2.53516 -0.587919,-0.53413 -0.959794,-0.9119 -1.208985,-1.27148 -0.249189,-0.35959 -0.371613,-0.70092 -0.46289,-1.14844 -0.106656,-0.52287 -0.119581,-0.76973 -0.05859,-1.27539 0.0366,-0.30356 0.114871,-0.61711 0.205078,-0.85938 0.0451,-0.12113 0.09303,-0.22331 0.142578,-0.30078 0.02477,-0.0387 0.05096,-0.0716 0.08008,-0.0976 0.02912,-0.0261 0.06437,-0.0488 0.111329,-0.0488 0.03463,0 0.07882,0.0156 0.103515,0.0488 0.02469,0.0333 0.03103,0.0695 0.03125,0.10547 4.33e-4,0.0719 -0.01987,0.15936 -0.05664,0.2871 -0.08259,0.28526 -0.137832,0.70627 -0.154297,1.10352 -0.01647,0.39725 0.0063,0.77624 0.06445,0.9668 0.118976,0.38979 0.247034,0.60227 0.560547,0.91601 0.17417,0.17429 0.305438,0.27544 0.388672,0.31055 0.04162,0.0175 0.06853,0.0181 0.08789,0.0137 0.01936,-0.004 0.03741,-0.0144 0.06055,-0.043 0.02317,-0.0286 0.03345,-0.0473 0.04297,-0.15625 0.0095,-0.10891 0.01172,-0.29593 0.01172,-0.62109 0,-1.24271 0.145224,-2.37034 0.412109,-3.17774 0.384974,-1.16465 0.856686,-2.19612 1.316406,-2.87695 0.08538,-0.12644 0.166374,-0.25189 0.228516,-0.34961 0.03107,-0.0489 0.05683,-0.0908 0.07617,-0.12304 0.01934,-0.0322 0.0335,-0.0593 0.0332,-0.0586 -0.0047,0.011 -8e-6,0.001 0.002,-0.0117 0.002,-0.0129 0.0037,-0.0315 0.0059,-0.0547 0.0043,-0.0463 0.008,-0.11018 0.01172,-0.18555 0.0074,-0.15075 0.01403,-0.34865 0.01563,-0.55664 0.007,-0.87873 0.07044,-1.20172 0.347656,-1.74414 L 96.4375,112.0332 a 0.07853337,0.07853337 0 0 1 0.0039,-0.006 c 0.02498,-0.0409 0.055,-0.10053 0.09766,-0.18945 a 0.07853337,0.07853337 0 0 1 0.0039,-0.008 c 0.05546,-0.0886 0.135748,-0.23357 0.240234,-0.44727 v -0.002 c 0.287284,-0.603 0.372713,-0.82065 0.478516,-1.23242 0.03141,-0.12233 0.05772,-0.21063 0.08594,-0.27539 0.01411,-0.0324 0.02805,-0.0586 0.04687,-0.082 0.01883,-0.0234 0.0455,-0.0457 0.08203,-0.0527 0.07267,-0.014 0.114297,0.0198 0.164063,0.0566 0.04977,0.0368 0.103784,0.0874 0.160156,0.14844 0.112745,0.12197 0.236226,0.28585 0.333985,0.45312 0.182798,0.3128 0.570606,0.79782 0.818359,1.0254 0.292297,0.26848 0.439537,0.321 0.863281,0.29882 0.458794,-0.024 0.582154,-0.0795 1.037114,-0.47265 0.19886,-0.17183 0.44761,-0.38025 0.5625,-0.4668 0.22172,-0.16702 0.56678,-0.39234 0.89648,-0.5918 0.3297,-0.19945 0.63714,-0.37025 0.80273,-0.43554 0.18341,-0.0723 0.33997,-0.1481 0.45508,-0.2168 0.11512,-0.0687 0.18919,-0.13802 0.20313,-0.16406 0.0284,-0.0531 0.033,-0.0934 0.0273,-0.12305 -0.006,-0.0297 -0.021,-0.0541 -0.0606,-0.0801 -0.053,-0.0348 -0.0922,-0.0441 -0.17187,-0.0254 -0.0797,0.0187 -0.19442,0.0739 -0.35938,0.17188 -0.30631,0.18197 -0.86908,0.44642 -1.41992,0.68359 -0.55084,0.23717 -1.08285,0.44365 -1.34765,0.50586 -0.37342,0.0878 -0.869826,0.0708 -1.152348,-0.0547 -0.129554,-0.0575 -0.350088,-0.21939 -0.554687,-0.38086 -0.102299,-0.0807 -0.197959,-0.16058 -0.269531,-0.22656 -0.03579,-0.033 -0.06703,-0.0619 -0.08984,-0.0879 -0.01141,-0.013 -0.02066,-0.0256 -0.0293,-0.0391 -0.0086,-0.0135 -0.01953,-0.0246 -0.01953,-0.0606 0,-0.0371 0.02141,-0.0927 0.0625,-0.11914 0.04109,-0.0264 0.08471,-0.0331 0.144531,-0.0371 0.119644,-0.008 0.311079,0.004 0.646485,0.0273 1.002502,0.0712 1.506432,-0.0279 2.392582,-0.47265 0.23341,-0.11714 0.73279,-0.31589 1.12304,-0.44922 0.40309,-0.13772 0.71601,-0.25948 0.9375,-0.36133 0.2215,-0.10185 0.352,-0.19638 0.37305,-0.22852 0.0256,-0.039 0.0286,-0.0774 0.0137,-0.11718 -0.015,-0.0398 -0.0505,-0.0795 -0.10742,-0.10547 -0.0375,-0.0171 -0.0748,-0.0165 -0.12109,0.01 -0.0463,0.0263 -0.0961,0.0796 -0.13672,0.15821 -0.0207,0.0401 -0.0454,0.0831 -0.0859,0.12109 -0.0405,0.038 -0.0923,0.0705 -0.17383,0.10938 -0.163,0.0777 -0.44622,0.18297 -0.99609,0.38671 -1.44012,0.53366 -2.35327,0.73646 -3.17969,0.69922 -0.313059,-0.0141 -0.53669,-0.0517 -0.730469,-0.1582 -0.193778,-0.10651 -0.349458,-0.27748 -0.535156,-0.53711 -0.136126,-0.19032 -0.209985,-0.25748 -0.384766,-0.3457 -0.148846,-0.0751 -0.250278,-0.14012 -0.316406,-0.23047 -0.06613,-0.0904 -0.08594,-0.19867 -0.08594,-0.33008 0,-0.3575 0.191925,-0.65059 0.609375,-0.95312 0.03897,-0.0283 0.140068,-0.11351 0.21875,-0.17774 -0.04094,0.0248 -0.08317,0.0483 -0.128907,0.0527 -0.05829,0.006 -0.115272,0.002 -0.166015,-0.0254 -0.05074,-0.0273 -0.08754,-0.07 -0.13086,-0.12696 -0.266502,-0.35037 -0.402343,-0.99331 -0.402343,-1.77929 0,-0.37793 0.01891,-0.56528 0.08203,-0.76954 0.189908,-0.61487 0.651415,-1.00376 1.212891,-1.00586 0.398026,-0.002 0.720831,0.19018 0.933593,0.54688 0.212763,0.3567 0.325247,0.87344 0.345703,1.54297 0.0044,0.13864 0.01315,0.25953 0.02344,0.34765 0.0051,0.0441 0.01037,0.0798 0.01563,0.10352 0.0014,0.006 0.0027,0.009 0.0039,0.0137 0.0028,0.002 -0.0044,-0.004 0.0059,-0.002 0.02049,0.005 0.05246,0.01 0.0918,0.0137 0.07868,0.008 0.186801,0.0141 0.314451,0.0156 0.26741,0.003 0.53629,0.0329 0.70703,0.0781 0.0972,0.0258 0.17018,0.0457 0.22071,0.0566 0.0353,0.008 0.0433,0.005 0.0547,0.006 1.1e-4,-0.0152 -2e-5,-0.0295 -0.002,-0.0625 -0.0382,-0.65193 -0.0273,-1.10011 0.043,-1.36328 0.0791,-0.29609 0.2176,-0.59561 0.38086,-0.8457 0.16325,-0.25009 0.34976,-0.4528 0.53906,-0.55078 0.18415,-0.0953 0.40613,-0.13189 0.68555,-0.11719 0.0931,0.005 0.1919,0.0153 0.29883,0.0312 0.49263,0.0737 0.8205,0.17762 1.06445,0.41601 0.24395,0.23839 0.39368,0.59664 0.55664,1.16211 0.21892,0.75962 0.24093,1.50922 0.0234,1.92969 -0.0982,0.18987 -0.33268,0.2964 -0.54883,0.25586 -0.10815,-0.0203 -0.21788,-0.0717 -0.30664,-0.13281 -0.0888,-0.0611 -0.16518,-0.12434 -0.17969,-0.22461 -0.005,-0.0309 -3.8e-4,-0.0515 0.004,-0.082 0.004,-0.0306 0.0107,-0.0673 0.0195,-0.10742 0.0176,-0.0803 0.0442,-0.1772 0.0742,-0.27344 0.086,-0.27603 0.0995,-0.37728 0.0879,-0.63282 -0.009,-0.20018 -0.0429,-0.33606 -0.11133,-0.44335 -0.0684,-0.1073 -0.17505,-0.19278 -0.35352,-0.28516 -0.21088,-0.10917 -0.2635,-0.12109 -0.50195,-0.12109 -0.22233,0 -0.37592,0.0372 -0.5,0.12304 -0.12408,0.0859 -0.22479,0.22645 -0.32226,0.44922 -0.0436,0.0996 -0.0651,0.24271 -0.0664,0.5293 -9.9e-4,0.16814 0.002,0.27092 0.0137,0.34375 0.0115,0.0728 0.0291,0.11739 0.0644,0.18359 0.0903,0.16889 0.22039,0.30046 0.46485,0.43946 0.24446,0.13898 0.60376,0.28163 1.13476,0.45703 0.36558,0.12076 0.57911,0.19692 0.72852,0.27539 0.14941,0.0785 0.23295,0.16403 0.3125,0.27929 0.0438,0.0635 0.0756,0.12011 0.0879,0.19141 0.0123,0.0713 0.008,0.14985 -0.002,0.27539 -0.0128,0.16591 -0.0679,0.42281 -0.12696,0.59375 -0.15125,0.4382 -0.19655,0.77571 -0.12695,1.11524 0.0696,0.33951 0.25693,0.68788 0.5918,1.13671 0.17329,0.23228 0.37303,0.51829 0.44922,0.64844 0.27889,0.47647 0.57153,1.28892 0.80468,2.2168 0.13134,0.52266 0.22263,0.73976 0.59961,1.41797 0.90051,1.62004 1.19541,2.39168 1.3418,3.51562 0.0293,0.22477 0.0538,0.84761 0.0664,1.42578 0.006,0.28909 0.009,0.56503 0.008,0.76953 -6.7e-4,0.10226 -0.003,0.18754 -0.006,0.24805 -0.002,0.0303 -0.003,0.0543 -0.006,0.0742 -0.001,0.01 -0.004,0.0173 -0.008,0.0293 -9.5e-4,0.003 -0.002,0.006 -0.004,0.01 -0.002,0.004 -0.007,0.0151 -0.008,0.0156 -3.4e-4,5e-4 -0.0192,0.0193 -0.0195,0.0195 -1.8e-4,1.3e-4 -0.0194,0.0117 -0.0195,0.0117 -1.8e-4,6e-5 -0.0272,0.004 -0.0274,0.004 -1.4e-4,0 -0.0174,-0.002 -0.0176,-0.002 -2e-4,-4e-5 -0.0115,-0.004 -0.0117,-0.004 -4.7e-4,-1.7e-4 -0.009,-0.002 -0.0117,-0.004 -0.006,-0.003 -0.008,-0.005 -0.0117,-0.008 -0.007,-0.005 -0.0141,-0.0114 -0.0215,-0.0176 -0.0148,-0.0123 -0.0335,-0.0277 -0.0566,-0.0488 -0.0463,-0.0422 -0.11036,-0.10362 -0.1875,-0.17774 -0.15426,-0.1482 -0.36008,-0.35207 -0.58398,-0.57617 l -0.8125,-0.8125 a 0.07853337,0.07853337 0 0 1 -0.0234,-0.0664 l 0.0254,-0.17969 c 0.0231,-0.15391 0.0183,-0.25208 -0.0371,-0.36914 -0.0554,-0.11706 -0.16848,-0.25558 -0.36523,-0.45899 -0.19525,-0.20182 -0.4376,-0.4234 -0.50586,-0.4707 -0.0726,-0.0503 -0.10135,-0.067 -0.1543,-0.0762 -0.053,-0.009 -0.13966,-0.008 -0.30468,0 -0.26973,0.0134 -0.38066,0.0393 -0.57032,0.125 -0.12373,0.0559 -0.18573,0.0863 -0.2539,0.0937 -0.0341,0.004 -0.0717,-0.003 -0.0996,-0.0176 -0.0279,-0.0149 -0.0466,-0.0338 -0.0684,-0.0527 -0.0202,-0.0175 -0.0952,-0.0858 -0.23047,-0.21094 -0.13523,-0.12514 -0.32441,-0.29962 -0.54883,-0.50781 -0.44883,-0.41639 -1.04209,-0.96722 -1.64062,-1.52344 -1.19708,-1.11244 -2.414547,-2.2459 -2.556645,-2.38086 l -0.132813,-0.12695 -0.199218,0.0293 -0.238282,0.0332 a 0.07853337,0.07853337 0 0 1 -0.05859,-0.0156 l -0.63086,-0.47461 c -0.460385,-0.34664 -0.734799,-0.54547 -0.902343,-0.64844 -0.08377,-0.0515 -0.140881,-0.0782 -0.175782,-0.0879 -0.0349,-0.01 -0.04188,-0.007 -0.05664,0 -0.02123,0.01 -0.03562,0.0169 -0.04102,0.0215 l -0.002,0.002 c 5.3e-5,-2.8e-4 0.0039,0.0404 0.05469,0.11914 0.101608,0.1574 0.353531,0.45415 0.830079,0.99805 l 0.466797,0.5293 a 0.07853337,0.07853337 0 0 1 0.01953,0.0527 v 0.26953 0.23438 l 1.193359,1.11718 c 0.670922,0.62674 1.827882,1.70429 2.570312,2.39454 0.37166,0.34553 0.70978,0.66623 0.95508,0.90625 0.12265,0.12 0.22338,0.22032 0.29297,0.29296 0.0348,0.0363 0.0603,0.0649 0.0801,0.0879 0.01,0.0115 0.0183,0.0214 0.0254,0.0313 0.004,0.005 0.008,0.0105 0.0117,0.0176 0.002,0.004 0.004,0.006 0.006,0.0117 0.001,0.003 0.002,0.0114 0.002,0.0117 7e-5,3.5e-4 0.002,0.0173 0.002,0.0176 -1e-5,0.0439 -0.0102,0.0762 -0.0254,0.12891 -0.0152,0.0527 -0.0355,0.1151 -0.0586,0.17578 -0.0308,0.0809 0.003,0.12238 -0.0137,0.19726 0.0135,-0.0563 0.0204,-0.11319 0.0371,-0.16406 0.0195,-0.0593 0.0411,-0.11067 0.0625,-0.15234 0.0107,-0.0208 0.0209,-0.0394 0.0352,-0.0566 0.0143,-0.0172 0.0327,-0.043 0.082,-0.043 4.7e-4,0 0.0165,6.7e-4 0.0215,0.002 0.005,0.001 0.009,0.003 0.0117,0.004 0.006,0.002 0.009,0.006 0.0137,0.008 0.008,0.005 0.0165,0.01 0.0254,0.0156 0.0177,0.0118 0.0396,0.0261 0.0644,0.0449 0.0497,0.0377 0.11325,0.0884 0.17969,0.14454 0.14264,0.12061 0.25399,0.1931 0.34961,0.22656 0.0176,0.006 0.034,-0.004 0.0508,0 -0.008,-2e-5 -0.0138,-0.003 -0.0195,-0.004 -0.0229,-0.005 -0.0355,-0.0123 -0.0508,-0.0215 -0.0611,-0.0368 -0.15389,-0.11279 -0.33399,-0.27344 -0.3602,-0.3213 -1.05505,-0.97061 -2.38086,-2.20703 -1.18632,-1.10634 -1.871089,-1.74478 -2.251951,-2.10938 -0.190431,-0.18229 -0.305867,-0.29691 -0.371094,-0.36718 -0.03261,-0.0351 -0.05123,-0.0576 -0.06641,-0.082 -0.0038,-0.006 -0.0082,-0.0109 -0.01172,-0.0195 -0.0017,-0.004 -0.0025,-0.009 -0.0039,-0.0156 -0.0014,-0.006 -0.002,-0.0226 -0.002,-0.0234 3.4e-5,-7.9e-4 0.0075,-0.0326 0.0078,-0.0332 2.85e-4,-5.9e-4 0.02487,-0.0309 0.02539,-0.0312 5.23e-4,-3.9e-4 0.02659,-0.0135 0.02734,-0.0137 7.48e-4,-2e-4 0.01578,-0.002 0.02148,-0.002 8e-4,-10e-6 0.01431,9.8e-4 0.01953,0.002 0.0052,9.8e-4 0.0097,6.5e-4 0.01367,0.002 0.0079,0.003 0.01364,0.007 0.01953,0.01 0.01177,0.006 0.02263,0.0127 0.03516,0.0215 0.02504,0.0176 0.05621,0.0417 0.09961,0.0781 0.07133,0.0598 0.200216,0.17749 0.347656,0.31054 -0.06082,-0.0579 -0.145457,-0.13938 -0.191406,-0.18359 -0.0584,-0.0562 -0.103218,-0.10136 -0.134766,-0.13281 -0.01577,-0.0157 -0.02801,-0.0274 -0.03711,-0.0371 -0.0046,-0.005 -0.0078,-0.009 -0.01172,-0.0137 -0.0019,-0.002 -0.0048,-0.005 -0.0078,-0.01 -0.0015,-0.002 -0.0057,-0.01 -0.0059,-0.01 -1.27e-4,-2.5e-4 -0.0078,-0.035 -0.0078,-0.0351 0,-5.1e-4 8.89e-4,-0.0147 0.002,-0.0195 0.0011,-0.005 0.0027,-0.008 0.0039,-0.0117 0.0024,-0.007 0.0035,-0.0113 0.0059,-0.0156 0.0046,-0.009 0.01034,-0.014 0.01563,-0.0215 0.01056,-0.0149 0.02338,-0.0326 0.03906,-0.0508 0.03137,-0.0364 0.07268,-0.08 0.119141,-0.125 0.08224,-0.0797 0.203346,-0.23268 0.253906,-0.32032 0.02867,-0.0497 0.05702,-0.0971 0.07813,-0.13281 0.01055,-0.0179 0.01853,-0.0336 0.02539,-0.0449 0.0069,-0.0113 0.0078,-0.0122 0.01758,-0.0254 5.2e-5,-7e-5 0.08186,-0.0293 0.08203,-0.0293 0.08854,0.0264 0.259052,0.28525 0.21289,0.17578 0.113487,0.10295 0.274838,0.25105 0.472658,0.4336 0.39564,0.36509 0.93353,0.86477 1.50586,1.39843 1.14466,1.06733 2.42759,2.27053 2.98828,2.8086 l 0.27148,0.26172 a 0.07853337,0.07853337 0 0 1 0.0176,0.0254 c -0.009,-0.0243 -0.0142,-0.0468 -0.0293,-0.0742 -0.0544,-0.0989 -0.14608,-0.21393 -0.2754,-0.33985 -0.0516,-0.0502 -0.0977,-0.0991 -0.13281,-0.13867 -0.0175,-0.0198 -0.0333,-0.0372 -0.0449,-0.0527 -0.006,-0.008 -0.0106,-0.0148 -0.0156,-0.0234 -0.002,-0.004 -0.005,-0.009 -0.008,-0.0156 -0.001,-0.003 -0.003,-0.007 -0.004,-0.0117 -0.001,-0.005 -0.002,-0.021 -0.002,-0.0215 0,-0.0528 0.0301,-0.0739 0.0508,-0.0898 0.0207,-0.0159 0.0421,-0.0288 0.0684,-0.041 0.0525,-0.0244 0.11904,-0.0473 0.19336,-0.0684 0.14864,-0.042 0.32411,-0.0743 0.45703,-0.0742 0.24648,1.4e-4 0.43842,0.0568 0.5586,0.19531 0.12018,0.1385 0.15629,0.3409 0.13672,0.59961 -0.0308,0.40743 -0.2387,0.83214 -0.56836,1.20703 0.0407,-0.0325 0.0871,-0.0684 0.11718,-0.10547 0.28777,-0.36619 0.45212,-0.69723 0.52735,-1.16602 0.008,-0.0525 0.014,-0.0869 0.0273,-0.12109 0.007,-0.0171 0.0143,-0.0391 0.0449,-0.0566 0.0306,-0.0176 0.0727,-0.0112 0.0918,-0.002 l -0.0332,-0.008 a 0.07853337,0.07853337 0 0 1 0.0312,0.006 c 0,0 0.002,0.002 0.002,0.002 0.0253,0.0119 0.0389,0.0272 0.0527,0.041 0.0331,0.0331 0.0631,0.0904 0.0625,0.15235 -5.9e-4,0.0619 -0.0163,0.13272 -0.0449,0.25586 -0.0379,0.16369 -0.13715,0.43228 -0.22656,0.61718 -0.0475,0.0983 -0.13125,0.15694 -0.20898,0.21094 -0.0773,0.0537 -0.15036,0.10353 -0.20118,0.16602 0.003,-0.004 0.002,-0.005 -0.002,0.008 -0.004,0.0126 -0.0105,0.0393 -0.0312,0.0645 -0.0361,0.0437 -0.0791,0.0644 -0.11133,0.0801 -0.0322,0.0156 -0.054,0.0261 -0.0684,0.041 -0.15968,0.16522 -0.31292,0.35494 -0.4707,0.51757 -0.15778,0.16264 -0.32049,0.30172 -0.50781,0.35547 -0.0744,0.0213 -0.12935,0.036 -0.16797,0.0488 -0.009,0.003 -0.007,0.003 -0.0137,0.006 0.014,0.0159 0.0259,0.0312 0.0352,0.0469 0.0106,0.0179 0.0206,0.0381 0.0195,0.0703 -0.001,0.0323 -0.0339,0.0739 -0.0625,0.084 -0.0286,0.0101 -0.0482,0.006 -0.0664,0.002 -0.0729,-0.0144 -0.14759,-0.0607 -0.23047,-0.13477 l -0.12891,-0.11328 a 0.07853337,0.07853337 0 0 1 0.0371,-0.13477 l 0.23047,-0.0449 c 0.24098,-0.0484 0.52697,-0.22246 0.80078,-0.44141 -0.23037,0.17135 -0.429,0.28181 -0.69726,0.36133 -0.12469,0.0369 -0.2021,0.0579 -0.2793,0.0605 -0.0772,0.003 -0.14434,-0.0164 -0.23047,-0.0469 -0.15688,-0.0556 -0.26725,-0.14924 -0.35351,-0.25976 0.12379,0.18914 0.27907,0.39845 0.57031,0.63672 l 0.26953,0.21875 h 0.33594 0.36328 a 0.07853337,0.07853337 0 0 1 0.0527,0.0195 l 1.18946,1.05469 1.18945,1.05664 a 0.07853337,0.07853337 0 0 1 0.006,0.11132 l -0.14453,0.16016 c -0.0696,0.0771 -0.18317,0.25113 -0.23633,0.36524 l -0.0977,0.20898 -0.0293,2.2832 c -0.008,0.63211 -0.0186,1.25837 -0.0312,1.75782 -0.0126,0.49999 -0.0262,0.86964 -0.0391,1.0039 -0.0207,0.21605 -0.0333,0.33299 -0.0605,0.42578 -0.0272,0.0928 -0.0713,0.15402 -0.13672,0.23047 -0.0656,0.0767 -0.19325,0.27263 -0.26758,0.41406 -0.0675,0.12844 -0.1537,0.35016 -0.2207,0.5586 -0.01,0.0308 -0.0164,0.056 -0.0254,0.0859 0.28183,-0.95702 0.78751,-1.47826 1.62695,-1.66211 0.23135,-0.0506 0.47969,-0.0607 1.08594,-0.0488 0.94179,0.0183 1.51843,0.0168 1.92578,-0.0215 0.0995,-0.009 0.1464,-0.042 0.22851,-0.0566 -0.38618,0.0562 -0.87955,0.0699 -1.71484,0.0625 -0.67005,-0.006 -1.11421,-7.8e-4 -1.33984,0.0137 a 0.07853337,0.07853337 0 0 1 -0.002,0 c -0.0787,0.005 -0.13138,0.013 -0.14843,0.0176 l -0.16797,0.0449 a 0.07853337,0.07853337 0 0 1 -0.0977,-0.0762 l 0.002,-0.50586 c 0.002,-0.52656 -0.0448,-0.88107 -0.25,-1.91015 -0.11217,-0.56252 -0.12391,-0.70294 -0.12109,-1.35547 0.002,-0.47384 0.0202,-0.78926 0.082,-1.0332 0.0618,-0.24395 0.17195,-0.41413 0.33594,-0.57813 0.0514,-0.0514 0.0895,-0.094 0.13477,-0.125 0.0452,-0.031 0.10458,-0.0495 0.1621,-0.041 0.11484,0.017 0.20927,0.0997 0.4004,0.24609 0.2822,0.21605 0.414,0.35797 0.60156,0.63672 0.37537,0.5579 0.74883,0.85013 1.20703,0.96484 0.12326,0.0308 0.27366,0.0978 0.36523,0.16602 0.0761,0.0567 0.23677,0.17824 0.35938,0.27148 0.11562,0.0879 0.29792,0.19107 0.37304,0.2168 0.11052,0.0378 0.27566,0.12901 0.39258,0.21484 0.0887,0.0653 0.13635,0.094 0.17774,0.10742 0.0414,0.0134 0.087,0.0159 0.18359,0.01 l 0.21875,-0.0137 a 0.07853337,0.07853337 0 0 1 0.0664,0.0293 l 0.19531,0.2461 c -0.037,-0.0489 -0.0363,-0.0846 -0.0801,-0.13672 -0.0534,-0.0636 -0.0869,-0.10418 -0.10547,-0.15625 -0.009,-0.026 -0.0132,-0.0576 -0.006,-0.0859 0.007,-0.0284 0.0226,-0.0509 0.0371,-0.0684 0.0182,-0.0219 0.0376,-0.0409 0.0586,-0.0566 0.021,-0.0157 0.0347,-0.0332 0.0859,-0.0332 0.0361,0 0.0477,0.0109 0.0606,0.0195 0.0129,0.009 0.0252,0.0183 0.0371,0.0293 0.0237,0.0219 0.0489,0.0502 0.0781,0.084 0.0585,0.0675 0.12932,0.15695 0.19921,0.25195 0.0699,0.095 0.13897,0.1948 0.19532,0.28321 0.0483,0.0758 0.0788,0.135 0.10156,0.18945 -0.01,-0.0207 5e-5,-0.0399 -0.0117,-0.0645 -0.0628,-0.13121 -0.22447,-0.37518 -0.34766,-0.52149 -0.11378,-0.13514 -0.17647,-0.20683 -0.21289,-0.28515 -0.0364,-0.0783 -0.0338,-0.15355 -0.0273,-0.25391 0.006,-0.0952 0.006,-0.13322 -0.01,-0.17187 -0.0157,-0.0387 -0.0575,-0.0917 -0.14453,-0.19336 -0.0532,-0.0624 -0.1033,-0.12885 -0.14258,-0.18946 -0.0392,-0.0606 -0.0666,-0.10663 -0.0781,-0.16211 -0.009,-0.0457 -0.0391,-0.12998 -0.0547,-0.1582 -0.0118,-0.0215 -0.0247,-0.0461 -0.0254,-0.0781 -7.3e-4,-0.032 0.0147,-0.0644 0.0312,-0.0859 0.0331,-0.0432 0.0734,-0.0696 0.13867,-0.1211 0.0446,-0.0353 0.16414,-0.15976 0.30469,-0.27929 0.14055,-0.11953 0.30734,-0.23933 0.48438,-0.27735 0.13136,-0.0282 0.27099,0.009 0.39843,0.0566 0.12745,0.0477 0.24077,0.10861 0.30274,0.14454 0.0562,0.0326 0.16678,0.0895 0.26172,0.16601 0.0475,0.0383 0.0921,0.0822 0.125,0.13477 0.0329,0.0525 0.0539,0.11703 0.043,0.18554 -0.0818,0.51145 -0.10212,1.16952 0.25976,1.92188 0.13321,0.27695 0.2636,0.45605 0.44727,0.5918 0.18366,0.13574 0.42782,0.22973 0.79492,0.32031 0.68356,0.16864 1.11635,0.39239 1.2793,0.70703 0.0815,0.15732 0.0853,0.3372 0.0156,0.51562 -0.0697,0.17843 -0.20971,0.35963 -0.41406,0.54883 -0.39008,0.36117 -0.84778,0.57588 -2.08203,0.98438 -0.28152,0.0932 -0.56235,0.18915 -0.78516,0.26953 -0.22281,0.0804 -0.3948,0.14925 -0.43945,0.17187 -0.48398,0.24521 -1.02638,0.62354 -1.9961,1.40039 -0.61031,0.48893 -0.905,0.65453 -1.35937,0.75586 -0.746,0.1664 -1.41795,-0.0114 -1.94922,-0.52148 -0.27859,-0.26751 -0.45436,-0.53711 -0.53516,-0.88086 -0.0808,-0.34375 -0.0692,-0.7574 0.01,-1.32031 l 0.0664,-0.48047 a 0.07853337,0.07853337 0 0 1 0.01,-0.0273 c -0.0166,0.009 -0.0291,0.0121 -0.0469,0.0215 -0.48044,0.25221 -0.79871,0.82824 -0.90625,1.69922 -0.0292,0.643 -0.0371,0.87324 0.0937,1.32031 0.0674,0.1122 0.14148,0.22115 0.23242,0.29883 a 0.07853337,0.07853337 0 0 1 0.004,0.004 l 0.24219,0.23046 c 0.24605,0.23469 0.55844,0.40397 0.95117,0.51172 0.16185,0.0444 0.54145,0.0794 0.91993,0.0879 0.37847,0.008 0.76635,-0.007 0.94726,-0.0449 0.31371,-0.0649 0.53317,-0.14221 0.77735,-0.30078 0.24415,-0.15857 0.51469,-0.40155 0.9121,-0.80078 0.79411,-0.79773 1.54894,-1.33428 2.56836,-1.82617 0.29698,-0.14329 0.72304,-0.34906 0.94727,-0.45703 0.37844,-0.18225 1.27786,-0.75915 1.75586,-1.12696 0.15359,-0.11819 0.25083,-0.22977 0.31641,-0.36133 0.11601,-0.23283 0.12051,-0.29667 0.0391,-0.53515 -0.047,-0.13772 -0.12139,-0.25566 -0.27344,-0.40039 -0.15205,-0.14474 -0.38132,-0.31209 -0.72656,-0.54102 -0.95187,-0.63117 -1.4937,-1.19692 -1.70899,-1.80859 -0.0538,-0.15287 -0.0965,-0.4268 -0.11718,-0.70703 a 0.07853337,0.07853337 0 0 1 0,-0.004 c -0.006,-0.24015 -0.007,-0.40918 -0.10352,-0.55859 -0.0555,-0.0865 -0.0933,-0.12809 -0.16211,-0.17383 -0.0688,-0.0457 -0.17126,-0.094 -0.33984,-0.17969 -0.32512,-0.16532 -0.57813,-0.20312 -0.57813,-0.20312 a 0.07853337,0.07853337 0 0 1 -0.0449,-0.13282 c 0.28514,-0.29092 0.41041,-0.45332 0.53125,-0.6289 0.17055,-0.2478 0.29195,-0.54458 0.36523,-0.90625 0.0863,-0.42614 0.0559,-1.05046 -0.10156,-1.96485 -0.34857,-2.02401 -0.69605,-3.18084 -1.34179,-4.46875 -0.44428,-0.88609 -0.84839,-1.50186 -1.76758,-2.69531 -0.90717,-1.1778 -1.35506,-1.87656 -2.12891,-3.31445 -1.09968,-2.04337 -1.15305,-2.24769 -1.38477,-5.42774 -0.14937,-2.04998 -0.26429,-2.85987 -0.47656,-3.42382 -0.70355,-1.869167 -2.35147,-2.98669 -4.7539,-3.208989 -0.18631,-0.01723 -0.37402,-0.02774 -0.5586,-0.03125 z m 11.56055,29.255859 c 0.0121,0.0264 0.007,0.0597 0.0156,0.082 -0.004,-0.0145 0.007,-0.0371 0.002,-0.0508 -0.003,-0.009 -0.0138,-0.0222 -0.0176,-0.0312 z m 0.0156,0.082 c 0.0677,0.23393 0.0339,0.544 -0.0156,0.82227 0.0237,-0.12131 0.10567,-0.19467 0.10547,-0.36328 -2.1e-4,-0.25824 -0.0398,-0.33364 -0.0898,-0.45899 z m -0.0156,0.82227 c -0.0225,0.11555 -0.0499,0.24693 -0.10156,0.3457 0.0169,-0.0338 0.0833,-0.0584 0.0957,-0.0918 0.026,-0.0702 -0.009,-0.16797 0.006,-0.2539 z m -0.10156,0.3457 c -0.12718,0.25494 -0.42134,0.47767 -0.72266,0.69141 0.23427,-0.16532 0.52517,-0.27866 0.65039,-0.44532 0.0547,-0.0729 0.0355,-0.17578 0.0723,-0.24609 z m -0.72266,0.69141 c -0.18838,0.13293 -0.32827,0.27001 -0.52344,0.35742 0.0716,-0.031 0.14875,-0.035 0.22461,-0.0723 0.13658,-0.067 0.17439,-0.19688 0.29883,-0.28515 z m -0.52344,0.35742 c -0.19597,0.0848 -0.39878,0.15146 -0.61523,0.19531 0.12291,-0.0215 0.29897,-0.0185 0.40625,-0.0527 0.0727,-0.0232 0.13108,-0.10769 0.20898,-0.14258 z m -0.61523,0.19531 c -0.2406,0.042 -0.45512,0.0928 -0.79492,0.10547 0.22855,-0.009 0.43621,-0.0211 0.60742,-0.0449 0.0726,-0.0101 0.12143,-0.0472 0.1875,-0.0606 z m 1.30078,-2.81445 c 0.0164,0.0216 0.0201,0.0395 0.0352,0.0605 -0.007,-0.009 -1.6e-4,-0.0177 -0.008,-0.0273 z m 0.0352,0.0605 c 0.23725,0.30426 0.30588,0.51887 0.28906,0.87305 0.007,-0.11565 0.049,-0.24333 0.0195,-0.35351 -0.0423,-0.15815 -0.17837,-0.33798 -0.30859,-0.51954 z m 0.28906,0.87305 c -0.002,0.0294 -0.002,0.0595 -0.006,0.0898 0.002,-0.0211 0.0162,-0.0327 0.0176,-0.0547 9.5e-4,-0.0148 -0.0124,-0.0209 -0.0117,-0.0352 z m -0.006,0.0898 c -0.0126,0.12989 -0.0576,0.23411 -0.10352,0.33789 0.0128,-0.0277 0.0815,-0.0551 0.0898,-0.082 0.0303,-0.0975 0.002,-0.16952 0.0137,-0.25586 z m -0.10352,0.33789 c -0.12526,0.27228 -0.42978,0.56801 -0.88867,0.79882 0.0926,-0.0481 0.18472,-0.0906 0.28125,-0.15429 0.26748,-0.1766 0.44129,-0.31685 0.55469,-0.47656 0.034,-0.0479 0.0299,-0.11627 0.0527,-0.16797 z m -0.88867,0.79882 c -0.051,0.0265 -0.10146,0.0637 -0.15429,0.0859 0.034,-0.0146 0.0686,-0.0227 0.10351,-0.0391 0.0274,-0.0128 0.0242,-0.0335 0.0508,-0.0469 z m -0.74219,0.23047 c 0.0172,-0.002 0.0595,7.4e-4 0.0762,-0.002 0.19341,-0.0313 0.35315,-0.0769 0.50195,-0.13867 -0.16637,0.0706 -0.37061,0.1037 -0.57813,0.14062 z m -7.55468,-8.80273 c -0.0116,-0.0178 -0.0429,-0.0436 -0.0527,-0.0605 0.004,0.007 -1.4e-4,0.0171 0.004,0.0234 0.0105,0.0165 0.0368,0.0217 0.0488,0.0371 z m -0.0527,-0.0605 c -0.056,-0.0958 -0.0647,-0.21831 -0.0703,-0.3418 0.007,0.0747 -0.0416,0.18912 -0.0156,0.2461 0.0112,0.0246 0.0701,0.0686 0.0859,0.0957 z m -0.0703,-0.3418 c -0.01,-0.10487 -0.008,-0.21453 0.0215,-0.3457 -0.0179,0.0749 -0.0405,0.15001 -0.0469,0.21875 -0.005,0.049 0.0233,0.0811 0.0254,0.12695 z m 0.95508,-0.3164 c 0.0742,0.017 0.14285,0.0264 0.22461,0.002 0.11829,-0.0355 0.27077,-0.14744 0.39453,-0.28906 0.12376,-0.14163 0.22155,-0.31143 0.25,-0.44727 0.007,-0.0324 -0.008,-0.0804 -0.0234,-0.1289 a 0.07853337,0.07853337 0 0 1 -0.004,0.0254 l -0.0469,0.13867 c -0.0299,0.0871 -0.0922,0.21196 -0.14648,0.29883 -0.0572,0.0915 -0.14906,0.19592 -0.23047,0.2539 l -0.11914,0.084 a 0.07853337,0.07853337 0 0 1 -0.0977,-0.006 l -0.21484,-0.19141 c 0.0154,0.0158 0.0347,0.0356 0.0449,0.0469 0.0187,0.0207 0.0291,0.0233 0.043,0.0625 0.004,0.0114 0.007,0.0211 0.01,0.0352 0.001,0.007 0.004,0.0148 0.004,0.0254 -6e-5,0.005 -5.3e-4,0.0125 -0.002,0.0195 -0.001,0.007 -0.009,0.0226 -0.01,0.0234 -4.5e-4,8.6e-4 -0.0188,0.0248 -0.0195,0.0254 -7e-4,5.9e-4 -0.0283,0.0153 -0.0293,0.0156 -9.6e-4,3e-4 -0.0196,0.006 -0.0273,0.006 z m 0.8457,-0.86328 a 0.07853337,0.07853337 0 0 0 -0.002,-0.0156 c 0.002,0.006 6e-5,0.01 0.002,0.0156 z m -1.23828,-19.164065 c 0.066,-0.0096 0.13476,0.0035 0.20703,0.02734 0.16371,0.05405 0.35575,0.192889 0.51953,0.341797 0.0819,0.07445 0.15603,0.150604 0.21094,0.222654 0.0549,0.0721 0.0967,0.13508 0.0977,0.21485 3.5e-4,0.037 -0.007,0.0771 -0.0312,0.11132 -0.024,0.0342 -0.0602,0.0573 -0.0996,0.0723 -0.0788,0.0299 -0.18124,0.0378 -0.33789,0.043 -0.096,0.003 -0.14742,0.0115 -0.20704,0.0352 -0.0596,0.0236 -0.1308,0.0666 -0.25,0.14844 -0.14168,0.0973 -0.24828,0.15861 -0.34374,0.18555 -0.0955,0.0269 -0.19217,0.007 -0.25391,-0.0547 -0.0455,-0.0455 -0.0782,-0.11488 -0.0644,-0.18164 0.0138,-0.0668 0.054,-0.12096 0.11328,-0.19141 0.0676,-0.0803 0.0923,-0.1508 0.11718,-0.37304 0.0199,-0.177239 0.0478,-0.310979 0.0957,-0.412112 0.0479,-0.101132 0.1279,-0.174061 0.22656,-0.189453 z m -5.513672,4.591795 c -0.126877,-0.005 -0.267318,0.0382 -0.416016,0.13672 -0.120214,0.0796 -0.192027,0.17196 -0.230468,0.29883 -0.03844,0.12686 -0.03979,0.29116 -0.002,0.50195 0.08155,0.4546 0.239287,0.7071 0.46289,0.80078 0.03988,0.0167 0.07594,0.0349 0.105469,0.0547 0.01477,0.01 0.02644,0.0204 0.03906,0.0332 0.0063,0.006 0.01317,0.0129 0.01953,0.0234 0.0032,0.005 0.0071,0.0117 0.0098,0.0195 0.0014,0.004 0.0011,0.009 0.002,0.0137 9e-4,0.005 0.002,0.0151 0.002,0.0156 0,0.001 -6.62e-4,0.0181 -0.002,0.0234 -0.0013,0.005 -0.0025,0.009 -0.0039,0.0137 -0.0029,0.008 -0.0078,0.0166 -0.01172,0.0254 -0.0078,0.0177 -0.01692,0.0387 -0.0293,0.0625 -0.02475,0.0475 -0.05731,0.10682 -0.09375,0.16797 -0.04324,0.0725 -0.07706,0.1134 -0.113282,0.1543 0.06336,-0.0526 0.106478,-0.0832 0.166016,-0.13477 0.167807,-0.1455 0.415006,-0.34768 0.552734,-0.45313 0.1395,-0.10679 0.213281,-0.18878 0.253907,-0.28906 0.04063,-0.10028 0.04981,-0.22909 0.03516,-0.43359 -0.01909,-0.26689 -0.225177,-0.71893 -0.392578,-0.87695 -0.110352,-0.1042 -0.226639,-0.15355 -0.353516,-0.15821 z m 4.718752,0.0918 a 0.07853337,0.07853337 0 0 1 0.002,0 c 0.12682,0.002 0.25788,0.0465 0.37305,0.11523 0.11517,0.0687 0.21481,0.16191 0.27148,0.27149 0.0534,0.10326 0.091,0.22879 0.11133,0.34961 0.0203,0.12081 0.0282,0.23072 -0.006,0.32031 -0.0176,0.0462 -0.0423,0.088 -0.0801,0.11719 -0.0378,0.0291 -0.0865,0.041 -0.13281,0.041 -0.0485,0 -0.10684,-0.0131 -0.14258,-0.0566 -0.0357,-0.0435 -0.0466,-0.0921 -0.0586,-0.15625 -0.0149,-0.0796 -0.0581,-0.19862 -0.11133,-0.30469 -0.0533,-0.10606 -0.1202,-0.20179 -0.15625,-0.23437 -0.0279,-0.0253 -0.11666,-0.0738 -0.16211,-0.0859 -0.0495,-0.0132 -0.0953,-0.0306 -0.12891,-0.0684 -0.0336,-0.0378 -0.043,-0.0885 -0.043,-0.13476 0,-0.0244 -6.2e-4,-0.048 0.008,-0.0762 0.008,-0.0282 0.0335,-0.061 0.0625,-0.0762 0.058,-0.0303 0.1062,-0.0225 0.19336,-0.0215 z m -4.619142,0.10156 c 0.05402,-7.6e-4 0.299087,0.0649 0.154296,0.0527 0.0449,0.0338 0.08482,0.0794 0.128907,0.13867 0.06969,0.0936 0.125296,0.25127 0.169921,0.41601 0.02231,0.0824 0.03985,0.1645 0.05078,0.23828 0.01093,0.0738 0.01783,0.13712 0.0078,0.19336 -0.01023,0.0575 -0.02205,0.10483 -0.06055,0.14453 -0.03849,0.0397 -0.09309,0.0488 -0.140625,0.0488 -0.03913,0 -0.07507,-0.006 -0.109375,-0.0254 -0.0343,-0.0197 -0.06641,-0.063 -0.06641,-0.10937 0,-0.0794 -0.02407,-0.19455 -0.06055,-0.30078 -0.03648,-0.10623 -0.08744,-0.205 -0.126953,-0.25 -0.07657,-0.0872 -0.126341,-0.18101 -0.140625,-0.27149 -0.01428,-0.0905 0.01458,-0.18884 0.09375,-0.24023 0.02697,-0.0175 0.06046,-0.0325 0.09961,-0.0352 z m 1.042968,1.67578 c -0.170287,0.0117 -0.318859,0.0484 -0.257812,0.0488 -0.08358,0.0349 -0.127332,0.0766 -0.142578,0.10742 -0.01525,0.0309 -0.01431,0.0568 0.01758,0.10547 0.03624,0.0553 0.05317,0.0574 0.07227,0.0527 0.01909,-0.005 0.06344,-0.0391 0.103516,-0.1211 0.02783,-0.0569 0.05668,-0.10195 0.09375,-0.13672 0.03598,-0.0337 0.08442,-0.0531 0.132813,-0.0547 -0.0075,-4e-5 -0.01171,-0.002 -0.01953,-0.002 z m 1.574224,0.006 c -0.0628,-0.002 -0.11173,1.1e-4 -0.16016,0.002 0.0458,0.0276 0.0997,0.0574 0.17773,0.0859 0.10669,0.039 0.18032,0.0546 0.22071,0.0527 0.0404,-0.002 0.0473,-0.007 0.0664,-0.0371 0.0112,-0.0177 0.0117,-0.0254 0.0117,-0.0293 0,-0.004 -5.7e-4,-0.0115 -0.0117,-0.0293 -0.006,-0.009 -0.006,-0.0134 -0.0508,-0.0234 -0.0451,-0.0101 -0.12615,-0.0169 -0.2539,-0.0215 z m 4.95898,2.37305 c 0.13383,0.0181 0.43115,0.2947 0.33008,0.2168 0.1514,0.14017 0.35181,0.27248 0.59961,0.39062 0.22477,0.10717 0.35782,0.17507 0.43554,0.27734 0.0389,0.0511 0.0591,0.11195 0.0606,0.17383 0.001,0.0619 -0.0111,0.12531 -0.0312,0.19727 -0.0298,0.10635 -0.0856,0.24128 -0.13477,0.32226 -0.0343,0.0564 -0.071,0.10231 -0.12304,0.13282 -0.0521,0.0305 -0.11802,0.038 -0.17969,0.0234 -0.12334,-0.0291 -0.24797,-0.12228 -0.43555,-0.2832 -0.40353,-0.34618 -0.64257,-0.75118 -0.64257,-1.13281 0,-0.0625 0.005,-0.12281 0.0137,-0.17188 0.004,-0.0245 0.008,-0.0459 0.0156,-0.0664 0.007,-0.0205 0.009,-0.0417 0.0488,-0.0664 7.1e-4,-4.4e-4 0.0161,-0.008 0.0234,-0.01 0.007,-0.002 0.0137,-0.004 0.0195,-0.004 z m -8.84961,3.70703 c 0.06056,-0.053 0.963514,0.65714 0.314453,0.17969 0.100688,0.0734 0.227064,0.16687 0.361328,0.26953 0.268528,0.20533 0.568481,0.44119 0.751953,0.5957 0.165192,0.13912 0.260944,0.22616 0.306641,0.32422 0.02285,0.049 0.02839,0.10727 0.01172,0.15625 -0.01216,0.0357 -0.03792,0.0622 -0.0625,0.0898 0.03051,-0.0304 0.07165,-0.0443 0.09375,-0.0801 0.04485,-0.0726 0.064,-0.13246 0.06641,-0.16993 0.0024,-0.0375 -0.0045,-0.0517 -0.0293,-0.0723 -0.02286,-0.019 -0.04001,-0.0399 -0.05273,-0.0664 -0.01272,-0.0265 -0.01896,-0.0633 -0.0059,-0.0957 0.0131,-0.0324 0.04121,-0.0518 0.06641,-0.0625 0.02519,-0.0107 0.04995,-0.0142 0.07617,-0.0137 0.04527,-0.10028 0.47082,0.35205 0.232421,0.11133 0.02829,0.0445 0.0332,0.0946 0.0332,0.14843 0,0.30435 -0.198589,0.60434 -0.490234,0.75391 -0.133135,0.0683 -0.256921,0.0949 -0.363281,0.0664 -0.10636,-0.0285 -0.181641,-0.13129 -0.181641,-0.25196 0,-0.0221 -2.31e-4,-0.0407 0.002,-0.0586 0.0022,-0.0179 0.002,-0.0362 0.02539,-0.0644 0.0029,-0.004 0.0058,-0.008 0.0098,-0.0117 0.004,-0.003 0.01316,-0.009 0.01367,-0.01 0.001,-6e-4 0.03201,-0.01 0.0332,-0.01 0.0012,-1.5e-4 0.02077,-0.002 0.0293,0 0.0085,0.002 0.01566,0.005 0.02148,0.008 0.02328,0.0109 0.03298,0.0232 0.04492,0.0352 0.01352,0.0135 0.03524,0.0209 0.07031,0.0215 0.03507,5.6e-4 0.08178,-0.008 0.13086,-0.0293 0.01738,-0.007 0.02927,-0.0311 0.04687,-0.041 -0.02322,0.0139 -0.04354,0.0293 -0.08203,0.0293 -8.89e-4,0 -0.01738,-3e-4 -0.02344,-0.002 -0.0061,-0.002 -0.01145,-0.004 -0.01563,-0.006 -0.0083,-0.004 -0.01341,-0.008 -0.01953,-0.0117 -0.01223,-0.008 -0.02402,-0.0165 -0.03711,-0.0273 -0.02617,-0.0217 -0.05895,-0.052 -0.09766,-0.0898 -0.0774,-0.0756 -0.180938,-0.18286 -0.306641,-0.31836 -0.251405,-0.27096 -0.588163,-0.65124 -0.964843,-1.08789 -0.02043,-0.0236 -0.03704,-0.0416 -0.04883,-0.0566 -0.0059,-0.008 -0.01062,-0.0136 -0.01563,-0.0215 -0.0025,-0.004 -0.0049,-0.007 -0.0078,-0.0137 -0.0015,-0.003 -0.0024,-0.009 -0.0039,-0.0137 -0.0015,-0.005 -0.0039,-0.0191 -0.0039,-0.0195 -1.9e-5,-4.3e-4 0.0057,-0.0368 0.0059,-0.0371 1.38e-4,-2.9e-4 0.03291,-0.035 0.0332,-0.0352 2.95e-4,-1.8e-4 0.0308,-0.0117 0.03125,-0.0117 z m 1.556641,1.72266 c 0.0054,-0.003 0.01393,-0.002 0.01953,-0.006 0.02956,-0.0181 0.05726,-0.0416 0.08398,-0.0684 0.01015,-0.0101 0.01431,-0.0229 0.02344,-0.0332 -0.04115,0.041 -0.07995,0.0809 -0.126953,0.10743 z m 9.330079,-0.59766 c 0.13326,0.0486 0.47796,0.29742 0.36523,0.21289 0.18582,0.14056 0.39316,0.33257 0.5586,0.53125 0.49463,0.59402 1.03035,1.48209 1.44726,2.40039 0.40573,0.89365 0.56073,1.60555 0.5586,2.54297 -0.002,0.70116 -0.0697,1.18965 -0.27735,1.93555 -0.0483,0.17363 -0.0813,0.30494 -0.0977,0.39258 -0.008,0.0438 -0.0131,0.0767 -0.0137,0.0957 0.003,0.002 0.002,-3.5e-4 0.006,0.002 0.0141,0.008 0.0335,0.0198 0.0566,0.0312 0.0463,0.023 0.10552,0.0496 0.16602,0.0742 0.13158,0.0535 0.30644,0.14452 0.40625,0.21289 0.11393,0.0781 0.24252,0.1868 0.3457,0.28516 0.0516,0.0492 0.097,0.0944 0.13086,0.13476 0.0169,0.0202 0.0294,0.04 0.041,0.0586 0.0116,0.0186 0.0254,0.0325 0.0254,0.0723 0,0.0241 -0.007,0.0538 -0.0254,0.0762 -0.0183,0.0223 -0.044,0.0333 -0.0664,0.0391 -0.0448,0.0116 -0.0848,0.007 -0.13476,-0.004 -0.0999,-0.022 -0.23558,-0.0737 -0.41602,-0.15625 -0.55857,-0.25545 -0.91427,-0.3094 -1.48437,-0.22461 -0.14683,0.0218 -0.22544,0.0344 -0.29688,0.0254 -0.0714,-0.009 -0.12346,-0.0502 -0.17187,-0.0957 -0.0329,-0.0309 -0.0581,-0.0559 -0.0781,-0.082 -0.0201,-0.0261 -0.0402,-0.0531 -0.0391,-0.0996 5.7e-4,-0.0232 0.0111,-0.0492 0.0273,-0.0664 0.0162,-0.0172 0.0348,-0.0258 0.0508,-0.0312 0.032,-0.0108 0.0617,-0.0117 0.0977,-0.0117 0.24152,0 0.44492,-0.0916 0.61719,-0.26367 0.17226,-0.17208 0.30987,-0.42827 0.40429,-0.75195 0.18885,-0.64737 0.20053,-1.56256 -0.0176,-2.59375 -0.24419,-1.15454 -0.80247,-2.29917 -1.94727,-3.98828 -0.11611,-0.17133 -0.21811,-0.32945 -0.28906,-0.44532 -0.0355,-0.0579 -0.0632,-0.10508 -0.082,-0.14062 -0.009,-0.0178 -0.0158,-0.0322 -0.0215,-0.0469 -0.003,-0.007 -0.006,-0.0133 -0.008,-0.0273 -5e-4,-0.004 -0.002,-0.0132 -0.002,-0.0137 0,-5e-4 0.002,-0.0192 0.002,-0.0195 9e-5,-3.7e-4 0.0154,-0.031 0.0156,-0.0312 1.9e-4,-2.3e-4 0.0368,-0.0253 0.0371,-0.0254 0.0396,-0.0139 0.0743,-0.0132 0.10938,-0.004 z m -13.898439,1.55078 c 0.09105,0 0.172822,0.0553 0.210938,0.13477 0.03812,0.0795 0.04493,0.1764 0.02734,0.28906 -0.01806,0.11576 -0.04281,0.20506 -0.105468,0.30273 -0.06266,0.0977 -0.159077,0.20426 -0.326172,0.38086 -0.132761,0.14032 -0.23083,0.23094 -0.31836,0.28321 -0.04376,0.0261 -0.08633,0.0434 -0.132812,0.0449 -0.04649,0.001 -0.09362,-0.0194 -0.125,-0.0508 -0.02846,-0.0285 -0.04851,-0.0686 -0.05078,-0.10938 -0.0023,-0.0408 0.0082,-0.0798 0.02539,-0.11914 0.0344,-0.0787 0.09888,-0.16349 0.19336,-0.27148 0.147126,-0.16812 0.193216,-0.25436 0.228515,-0.41211 0.03103,-0.1387 0.07483,-0.25088 0.134766,-0.33399 0.05994,-0.0831 0.143266,-0.13867 0.238281,-0.13867 z m 12.558589,4.71875 c 0.11752,-0.0507 0.10098,0.54064 0.0449,0.23047 -0.0277,0.0663 -0.07,0.14712 -0.1211,0.23633 -0.10213,0.17841 -0.23774,0.38446 -0.36133,0.53125 -0.13938,0.16556 -0.36572,0.37853 -0.51953,0.48828 -0.0701,0.05 -0.13122,0.0978 -0.17382,0.13477 -0.007,0.006 -0.01,0.008 -0.0156,0.0137 0.0242,0.0235 0.0551,0.0542 0.0977,0.0937 0.0938,0.0872 0.23104,0.21042 0.40039,0.36328 0.3387,0.30572 0.81146,0.72791 1.35351,1.20703 0.16777,0.14828 0.31881,0.28644 0.42969,0.39062 0.0554,0.0521 0.10075,0.0964 0.13281,0.12891 0.016,0.0162 0.029,0.0294 0.0391,0.041 0.005,0.006 0.009,0.0109 0.0137,0.0176 0.002,0.003 0.005,0.006 0.008,0.0117 0.002,0.003 0.006,0.0133 0.006,0.0137 1.3e-4,4e-4 0.004,0.0251 0.004,0.0254 0,0.0227 -0.008,0.0495 -0.0234,0.0684 -0.0159,0.0188 -0.0373,0.0296 -0.0547,0.0352 -0.0349,0.0111 -0.0638,0.007 -0.0957,0.002 -0.0639,-0.0106 -0.13509,-0.0384 -0.20508,-0.082 -0.0384,-0.0239 -0.0945,-0.0679 -0.17773,-0.13672 -0.0833,-0.0688 -0.18914,-0.15896 -0.31055,-0.26367 -0.24283,-0.2094 -0.54682,-0.47713 -0.84375,-0.74218 -0.29694,-0.26507 -0.58656,-0.52841 -0.80469,-0.73047 -0.10906,-0.10103 -0.2007,-0.18647 -0.26562,-0.25 -0.0325,-0.0318 -0.059,-0.0575 -0.0781,-0.0781 -0.01,-0.0103 -0.0165,-0.0187 -0.0234,-0.0273 -0.003,-0.004 -0.006,-0.0102 -0.01,-0.0156 -0.002,-0.003 -0.004,-0.006 -0.006,-0.01 -0.002,-0.004 -0.008,-0.017 -0.008,-0.0176 -1.9e-4,-7.6e-4 -0.002,-0.0197 -0.002,-0.0273 5.1e-4,-0.008 0.002,-0.0142 0.004,-0.0195 0.003,-0.0107 0.006,-0.017 0.01,-0.0234 0.007,-0.013 0.0148,-0.0233 0.0234,-0.0332 0.0173,-0.0199 0.038,-0.0395 0.0645,-0.0625 0.0529,-0.0461 0.12462,-0.10127 0.20507,-0.15625 0.29644,-0.20254 0.67812,-0.6034 0.90625,-0.95312 0.0847,-0.12983 0.14378,-0.21815 0.18555,-0.27735 0.0418,-0.0592 0.0573,-0.0892 0.10352,-0.11523 0.0175,-0.01 0.0439,-0.0167 0.0683,-0.0117 z m -15.205073,3.08008 c 0.31129,5e-4 0.624329,0.12646 0.986328,0.42773 0.66149,0.55055 1.509677,1.69046 2.931641,3.82813 0.709244,1.06623 1.104209,1.66614 1.353515,2.0918 0.249306,0.42565 0.354026,0.67901 0.478516,1.0371 0.12025,0.34509 0.132231,0.42936 0.132812,0.9336 5.02e-4,0.45706 -0.01731,0.60572 -0.09766,0.86328 -0.204924,0.65657 -0.554181,1.10122 -1.041015,1.29688 -0.104462,0.042 -0.190759,0.0686 -0.310547,0.082 -0.119788,0.0134 -0.272673,0.0154 -0.529297,0.0156 h -0.580078 a 0.07853337,0.07853337 0 0 1 -0.01953,-0.002 l -1.839843,-0.45508 c -3.193993,-0.7898 -4.746272,-1.17298 -5.515625,-1.38672 -0.384677,-0.10687 -0.572867,-0.16867 -0.681641,-0.22656 -0.108774,-0.0579 -0.140422,-0.13876 -0.158203,-0.18555 -0.03686,-0.0969 -0.0408,-0.20202 0.0078,-0.32422 0.04861,-0.1222 0.142808,-0.26967 0.302735,-0.50195 0.313849,-0.45586 0.378718,-0.60748 0.447265,-1.04688 0.07072,-0.45357 -0.02725,-0.88104 -0.425781,-1.77734 -0.127181,-0.28608 -0.205427,-0.50443 -0.238281,-0.68555 -0.03285,-0.18111 -0.01806,-0.32755 0.04687,-0.45312 0.07573,-0.14644 0.208336,-0.24594 0.392578,-0.28516 0.184242,-0.0392 0.421873,-0.0294 0.746094,0.0176 0.528364,0.0766 1.14759,0.0525 1.417969,-0.041 0.225269,-0.0779 0.490908,-0.3186 0.605468,-0.55274 0.149745,-0.30606 0.317691,-0.99368 0.333985,-1.3164 a 0.07853337,0.07853337 0 0 1 0.0039,-0.0234 l 0.179687,-0.48438 v -0.002 c 0.05455,-0.15507 0.180641,-0.32273 0.292969,-0.45899 0.112691,-0.13667 0.212891,-0.23828 0.212891,-0.23828 a 0.07853337,0.07853337 0 0 1 0.0039,-0.004 c 0.155674,-0.14109 0.367654,-0.14284 0.560547,-0.14258 z m 18.337893,7.06641 c -0.20995,0.002 -0.40401,0.005 -0.67383,0.002 -0.32878,-0.003 -0.43066,0.008 -0.63281,0.0117 0.20678,-0.003 0.37726,-0.006 0.77343,-0.004 0.2518,0.002 0.3433,-0.008 0.53321,-0.01 z m -1.69141,0.0215 c -0.054,0.004 -0.18774,-0.001 -0.23242,0.004 -0.1639,0.0195 -0.27738,0.058 -0.39453,0.10937 l 0.20312,-0.0547 c 0.11797,-0.0319 0.23886,-0.0481 0.42383,-0.0586 z m -2.06836,1.28711 c -0.0143,0.0488 -0.0612,0.25325 -0.0703,0.30664 0.0196,-0.10757 0.0435,-0.20969 0.0703,-0.30664 z" />
  </g>
</svg>
