<?xml version="1.0" encoding="UTF-8" standalone="no"?>
<!-- Created with Inkscape (http://www.inkscape.org/) -->

<svg
   xmlns:dc="http://purl.org/dc/elements/1.1/"
   xmlns:cc="http://creativecommons.org/ns#"
   xmlns:rdf="http://www.w3.org/1999/02/22-rdf-syntax-ns#"
   xmlns:svg="http://www.w3.org/2000/svg"
   xmlns="http://www.w3.org/2000/svg"
   xmlns:sodipodi="http://sodipodi.sourceforge.net/DTD/sodipodi-0.dtd"
   xmlns:inkscape="http://www.inkscape.org/namespaces/inkscape"
   width="44.852863mm"
   height="51.981731mm"
   viewBox="0 0 44.852863 51.981731"
   version="1.1"
   id="svg5980"
   inkscape:version="0.92.5 (2060ec1f9f, 2020-04-08)"
   sodipodi:docname="tux_silkscreen_cuted.svg">
  <defs
     id="defs5974" />
  <sodipodi:namedview
     id="base"
     pagecolor="#ffffff"
     bordercolor="#666666"
     borderopacity="1.0"
     inkscape:pageopacity="0.0"
     inkscape:pageshadow="2"
     inkscape:zoom="2.8"
     inkscape:cx="140.52371"
     inkscape:cy="70.277164"
     inkscape:document-units="mm"
     inkscape:current-layer="layer1"
     showgrid="false"
     inkscape:window-width="1864"
     inkscape:window-height="1016"
     inkscape:window-x="56"
     inkscape:window-y="27"
     inkscape:window-maximized="1" />
  <metadata
     id="metadata5977">
    <rdf:RDF>
      <cc:Work
         rdf:about="">
        <dc:format>image/svg+xml</dc:format>
        <dc:type
           rdf:resource="http://purl.org/dc/dcmitype/StillImage" />
        <dc:title></dc:title>
      </cc:Work>
    </rdf:RDF>
  </metadata>
  <g
     inkscape:label="Layer 1"
     inkscape:groupmode="layer"
     id="layer1"
     transform="translate(-54.680711,-85.044848)">
    <path
       transform="matrix(0.26458333,0,0,0.26458333,-36.967137,84.288515)"
       style="fill:#000000;fill-opacity:1;fill-rule:evenodd;stroke:#000000;stroke-width:0.21712485;stroke-opacity:1"
       d="m 457.28133,192.60157 c 0.3737,0.61691 0.79886,1.22533 1.31836,1.66406 0.004,0.003 0.008,0.007 0.0117,0.01 l 1.31836,1.24414 c 1.36148,1.28374 3.08883,2.20631 5.25195,2.79297 0.91833,0.24908 2.98998,0.42759 5.0625,0.47461 2.07252,0.047 4.1874,-0.0341 5.20508,-0.24219 1.72184,-0.35198 2.94315,-0.77055 4.29101,-1.63672 1.34787,-0.86616 2.82429,-2.19079 4.9961,-4.34765 4.32625,-4.29623 8.43249,-7.18092 13.98633,-9.83008 1.62142,-0.77341 3.94803,-1.88229 5.17187,-2.46485 2.09126,-0.99558 7.0022,-4.10211 9.62305,-6.0957 0.8505,-0.64708 1.38942,-1.26136 1.75781,-1.99219 0.63985,-1.26926 0.67006,-1.69361 0.2207,-2.99414 -0.26377,-0.76359 -0.68766,-1.42004 -1.52929,-2.21289 -0.84164,-0.79285 -2.10088,-1.71 -3.98828,-2.94726 -5.18472,-3.39859 -8.10354,-6.41932 -9.26368,-9.67774 -0.28324,-0.79556 -0.5247,-2.27842 -0.63672,-3.7832 -8.1e-4,-0.005 -10e-4,-0.0104 -0.002,-0.0156 -0.0301,-1.29158 -0.0411,-2.24749 -0.58984,-3.09376 -0.30925,-0.47653 -0.53718,-0.71438 -0.92578,-0.9707 -0.38861,-0.25631 -0.95033,-0.52449 -1.86914,-0.98633 -1.79267,-0.90124 -3.18987,-1.10329 -3.19141,-1.10351 -0.23126,-0.035 -0.32569,-0.31719 -0.16211,-0.48438 1.56059,-1.57398 2.24965,-2.46241 2.91211,-3.41406 0.9428,-1.35412 1.60477,-2.97671 2.00781,-4.94336 v -0.002 c 0.47769,-2.32994 0.31408,-5.70618 -0.54687,-10.64844 -1.90408,-10.92991 -3.81056,-17.19966 -7.3418,-24.16211 -2.42902,-4.789247 -4.63977,-8.126572 -9.66016,-14.570307 -4.94985,-6.3533 -7.39217,-10.110031 -11.61523,-17.867188 -6.0027,-11.026533 -6.28003,-12.078335 -7.54492,-29.240234 -0.8156,-11.066302 -1.43717,-15.439451 -2.60548,-18.508027 -3.85954,-10.136685 -12.92164,-16.2068744 -26.07617,-17.4101559 -1.02113,-0.093472 -2.0419,-0.1489067 -3.05274,-0.1679687 -7.07711,-0.1334955 -13.76238,1.533406 -18.01757,4.5351562 -5.21654,3.6799004 -8.42087,10.0569064 -9.4043,18.8242184 -0.45959,4.096939 -0.30136,12.345171 0.59961,30.392578 0.20752,4.157921 0.37482,8.462883 0.375,9.619141 1.9e-4,1.249418 -0.0363,2.010423 -0.50391,3.017578 -0.46756,1.007156 -1.3387,2.249566 -3.00976,4.597657 -1.26592,1.778741 -2.17147,3.105962 -2.41016,3.474609 -6.6e-4,0.0013 -10e-4,0.0026 -0.002,0.0039 l -0.67383,1.005859 c -0.23481,0.365656 -1.55494,2.230371 -3.14258,4.44336 -1.5897,2.215851 -3.42322,4.742707 -4.61133,6.308594 -4.63849,6.113556 -5.45864,7.672215 -8.79492,16.64843 -2.32558,6.25716 -4.74571,11.56788 -8.31836,18.25586 -2.18043,4.08204 -2.37539,4.84748 -2.36328,9.38282 6e-5,0.0118 -6.1e-4,0.0235 -0.002,0.0352 0,0 -0.30496,2.69223 0.10156,4.32227 0.1569,0.62828 -0.0278,1.17716 -0.2793,1.62109 -0.25152,0.44393 -0.56638,0.81585 -0.73242,1.13672 -0.46173,0.89212 -0.82031,2.06836 -0.82031,2.06836 l -0.41211,1.37305 c -0.008,0.0227 -0.0181,0.0443 -0.0312,0.0644 -0.002,0.006 -0.001,0.005 -0.004,0.0117 -0.0554,0.14874 -0.20136,0.56058 -0.54883,1.57226 -0.95963,2.79489 -1.58722,3.95805 -2.82226,5.18555 -0.9264,0.92055 -1.69008,1.48531 -2.91016,1.80859 -1.22008,0.32329 -2.87891,0.42402 -5.69531,0.50586 -2.57,0.0747 -3.91467,0.13078 -4.73047,0.32032 -0.8158,0.18953 -1.12417,0.47918 -1.77539,1.15039 -0.95957,0.98897 -1.33695,2.03833 -1.46094,4.14648 -0.11959,2.03083 0.11152,3.57153 0.93946,6.19727 1.3182,4.17996 1.16962,6.8035 -0.6875,12.28711 -0.32611,0.96296 -0.62262,1.93316 -0.83594,2.71484 -0.10666,0.39084 -0.19169,0.7335 -0.25,1.00391 -0.0583,0.2704 -0.0863,0.48169 -0.0859,0.53906 0.009,1.60944 1.30894,3.32632 3.26953,4.18359 0.6002,0.26246 2.52343,0.80632 5.10938,1.4375 2.58595,0.63119 5.86524,1.36619 9.29297,2.07422 9.37398,1.93621 12.24639,2.78258 20.00586,5.875 4.86697,1.93966 8.03156,3.08532 10.32617,3.65039 2.2946,0.56507 3.7018,0.55583 5.14062,0.19141 1.77437,-0.44931 2.52455,-0.90628 5.45117,-3.3125 5.42907,-4.46385 8.12468,-5.66508 14.23633,-6.33399 0.74332,-0.0813 2.82193,-0.14111 5.64453,-0.1875 2.82261,-0.0464 6.36642,-0.0761 9.95118,-0.0879 7.16951,-0.0236 14.48019,0.0234 16.58593,0.16797 l 1.89063,0.12305 c 0.002,6.5e-4 0.004,0.001 0.006,0.002 0.31334,0.0271 0.68915,0.11099 1.12109,0.28906 0,0 1.14185,0.63635 1.60116,1.13309 0.45932,0.49675 1.15474,1.84738 1.15474,1.84738 z M 442.74805,12.841797 c 3.18483,0.818758 2.06329,0.395047 3.85742,1.951172 1.73941,1.926603 1.1715,0.652377 1.63867,2.263672 -1.56997,1.604696 -0.49393,1.024568 -2.42187,1.085937 -1.05922,0.03476 -1.27513,0.125953 -2.58008,1.011719 -0.76837,0.521592 -1.34224,0.843844 -1.83203,0.980469 -0.48979,0.136624 -0.94154,0.04329 -1.2461,-0.257813 -0.23013,-0.227539 -0.37487,-0.536685 -0.31054,-0.853515 0.0643,-0.316831 0.26732,-0.602193 0.58593,-0.976563 0.3882,-0.456085 0.53296,-0.882732 0.66993,-2.089844 0.10772,-0.949676 0.25845,-1.659222 0.50781,-2.179687 0.24936,-0.520466 0.64105,-0.859992 1.13086,-0.935547 z m -5.60547,16.873047 c 0.54257,-0.0023 2.84802,0.323826 1.63281,0.167968 2.67922,0.396026 4.43743,0.946021 5.73828,2.203126 1.30085,1.257104 2.10443,3.165672 2.99219,6.210937 1.18883,4.078323 0.49355,6.223876 0.62583,9.342076 0.0693,1.633264 0.0832,3.268687 0.0878,4.903414 0.003,0.921476 -0.0258,1.842787 -0.034,2.76423 -0.004,0.485014 0.0449,0.779221 -0.008,1.455078 -0.0679,0.87606 -0.37119,2.262068 -0.6875,3.167969 -0.83004,2.377263 -1.08953,4.228765 -0.70312,6.091796 0.38641,1.863032 1.42994,3.763653 3.26367,6.19336 0.94383,1.250618 2.02677,2.79142 2.4336,3.478515 1.50912,2.548774 3.1119,6.939673 4.38281,11.939453 0.71854,2.82667 1.23124,4.020359 3.29101,7.683594 4.91341,8.73846 6.51141,12.86664 7.3086,18.91797 0.15704,1.18998 0.28678,4.56597 0.35351,7.68554 0.0334,1.55979 0.051,3.04848 0.043,4.15039 -0.004,0.55096 -0.0139,1.00345 -0.0312,1.32617 -0.009,0.16137 -0.0188,0.28861 -0.0332,0.38868 -0.007,0.05 -0.0149,0.0917 -0.0312,0.14257 -0.008,0.0254 -0.017,0.0536 -0.0469,0.0977 -0.0149,0.022 -0.0346,0.0496 -0.0742,0.0781 -0.0198,0.0143 -0.0732,0.0387 -0.0742,0.0391 -9.7e-4,3.4e-4 -0.0986,0.0176 -0.0996,0.0176 -7.9e-4,0 -0.0516,-0.004 -0.0684,-0.008 -0.0168,-0.004 -0.0287,-0.008 -0.0391,-0.0117 -0.0208,-0.008 -0.0335,-0.0153 -0.0449,-0.0215 -0.0228,-0.0125 -0.0387,-0.0239 -0.0547,-0.0352 -0.032,-0.0225 -0.0647,-0.0481 -0.10351,-0.0801 -0.0775,-0.0638 -0.17723,-0.15059 -0.30273,-0.26368 -0.25101,-0.22616 -0.59925,-0.55012 -1.01954,-0.94921 -0.84057,-0.7982 -1.97151,-1.89848 -3.19336,-3.10743 l -4.4375,-4.39257 c -0.065,-0.0643 -0.0954,-0.15568 -0.082,-0.2461 l 0.14649,-0.96484 c 0.128,-0.84364 0.0929,-1.4113 -0.22266,-2.06836 -0.31552,-0.65707 -0.93996,-1.41248 -2.01758,-2.51367 -1.07015,-1.09365 -2.37417,-2.28105 -2.77929,-2.5586 -0.39985,-0.27388 -0.58522,-0.3857 -0.90039,-0.4414 -0.31518,-0.0557 -0.79598,-0.0443 -1.69727,0 -1.48061,0.0731 -2.13196,0.21254 -3.17773,0.67968 -0.67514,0.30161 -1.01278,0.4667 -1.3379,0.50196 -0.16255,0.0176 -0.32962,-0.0168 -0.46093,-0.0859 -0.13131,-0.0691 -0.23108,-0.15622 -0.34961,-0.25781 -0.0946,-0.0811 -0.51587,-0.46747 -1.25391,-1.14258 -0.73804,-0.67511 -1.76728,-1.61889 -2.99219,-2.74219 -2.4498,-2.2466 -5.68419,-5.21571 -8.95117,-8.216791 -6.53396,-6.002178 -13.18532,-12.119096 -13.95508,-12.841797 L 417.4043,85.666016 416.23828,85.824219 414.93555,86 c -0.0748,0.01022 -0.15055,-0.0094 -0.21094,-0.05469 l -3.44336,-2.5625 c -2.51394,-1.871212 -4.00808,-2.948802 -4.93359,-3.509765 -0.46276,-0.280482 -0.78428,-0.4301 -0.99805,-0.488281 -0.21377,-0.05818 -0.30338,-0.04116 -0.41211,0.0078 -0.12124,0.05461 -0.20908,0.104922 -0.25586,0.144531 -0.0468,0.03961 -0.0528,0.05489 -0.0586,0.08594 -0.0117,0.0621 0.0362,0.298306 0.32031,0.732422 0.56829,0.868231 1.94876,2.464508 4.55078,5.40039 l 2.54492,2.873047 c 0.0464,0.05225 0.0721,0.119607 0.0723,0.189453 v 1.447266 1.326172 l 6.56836,6.064453 c 3.66314,3.382782 9.97401,9.198552 14.02734,12.923832 2.02822,1.86408 3.87376,3.59864 5.21289,4.89258 0.66957,0.64697 1.21137,1.18226 1.58985,1.57226 0.18923,0.195 0.33832,0.3539 0.44335,0.47461 0.0525,0.0604 0.0927,0.11082 0.12696,0.1582 0.0171,0.0237 0.0328,0.0447 0.0488,0.0742 0.016,0.0296 0.0449,0.0551 0.0449,0.16407 -4e-5,0.19575 -0.0595,0.3858 -0.14258,0.66601 -0.0831,0.28021 -0.19609,0.61246 -0.32031,0.93555 -0.67923,1.76656 -0.74778,3.32693 -0.26953,4.36328 0.52472,1.13712 1.93178,2.71626 3.91992,4.32422 h 0.002 l 1.5,1.2168 h 1.88086 1.98438 c 0.0698,2.4e-4 0.1372,0.0259 0.18945,0.0723 l 6.49609,5.69141 6.49805,5.69531 c 0.1198,0.10623 0.12948,0.28997 0.0215,0.4082 l -0.79101,0.86524 c -0.39842,0.43596 -1.0132,1.37481 -1.31055,2.00586 l -0.54687,1.1582 -0.1543,12.34961 c -0.0429,3.41481 -0.10714,6.79549 -0.17774,9.49219 -0.0706,2.69669 -0.14609,4.69173 -0.21484,5.40039 -0.11316,1.1653 -0.17991,1.79874 -0.32226,2.27929 -0.14236,0.48055 -0.3712,0.78292 -0.72657,1.19336 -0.37425,0.43226 -1.0593,1.47415 -1.4707,2.24805 -0.37635,0.70801 -0.84929,1.91543 -1.21875,3.04687 -0.18473,0.56573 -0.34406,1.11476 -0.45703,1.57422 -0.11297,0.45947 -0.17578,0.84066 -0.17578,1.01563 0,0.18044 -0.0326,0.3456 -0.10352,0.49023 -0.0709,0.14464 -0.20524,0.3125 -0.43555,0.3125 -0.0943,0 -0.19957,-0.0469 -0.26171,-0.10742 -0.0622,-0.0606 -0.0923,-0.12575 -0.11524,-0.1875 -0.0458,-0.12351 -0.0623,-0.25259 -0.0723,-0.42187 -0.0199,-0.33857 -0.002,-0.8297 0.0488,-1.53516 0.15647,-2.17958 0.47154,-3.69181 1.68946,-8.17578 0.98238,-3.61677 1.19001,-5.34159 0.86914,-6.73828 -0.151,-0.65734 -0.36857,-1.10827 -0.60352,-1.35742 -0.23495,-0.24916 -0.4635,-0.32619 -0.79492,-0.26954 -0.66284,0.11331 -1.71317,0.94782 -2.93945,2.56446 -3.41952,4.50781 -6.35291,6.64302 -11.24219,8.17969 -3.99756,1.25635 -10.17927,1.92801 -15.71094,1.71874 -4.86497,-0.18394 -6.65092,-0.77998 -9.66601,-3.21874 -0.85731,-0.69355 -1.39246,-1.08215 -1.80274,-1.27344 -0.41027,-0.1913 -0.69541,-0.20928 -1.18164,-0.1543 -0.24869,0.0282 -0.38935,0.095 -0.43359,0.13672 -0.0442,0.0417 -0.0559,0.0539 -0.0254,0.18359 0.0611,0.25929 0.44784,0.82643 1.1875,1.56446 1.54052,1.53723 2.33962,3.0273 2.71289,5.0625 0.4666,2.54387 -0.17404,4.96362 -1.77735,6.60351 -0.35471,0.36284 -0.63217,0.63493 -0.85351,0.82422 -0.11067,0.0946 -0.20696,0.16805 -0.30078,0.22461 -0.0938,0.0566 -0.18322,0.11258 -0.33789,0.0996 -0.0773,-0.006 -0.17202,-0.0455 -0.23242,-0.10742 -0.0604,-0.0619 -0.0874,-0.13255 -0.10157,-0.19141 -0.0283,-0.11772 -0.0168,-0.21428 0,-0.32812 0.0336,-0.2277 0.11493,-0.51704 0.23633,-0.90235 0.56299,-1.78825 0.54596,-3.41507 -0.27539,-5.5332 -0.82135,-2.11813 -2.46571,-4.71344 -5.15625,-8.32422 -0.39869,-0.53496 -0.77855,-1.0515 -1.07031,-1.45117 -0.29176,-0.39967 -0.47608,-0.65115 -0.54883,-0.76953 -0.0513,-0.0836 -0.0654,-0.19585 -0.0488,-0.2793 0.0166,-0.0834 0.0531,-0.14449 0.0918,-0.19922 0.0774,-0.10945 0.17606,-0.19772 0.30664,-0.29687 0.26115,-0.19831 0.64688,-0.42566 1.16601,-0.69532 1.81458,-0.94271 3.68855,-2.60761 4.27735,-3.71875 0.31138,-0.58764 0.44021,-1.18031 0.44726,-2.15625 0.009,-1.29015 -0.38633,-2.47069 -1.35742,-3.77734 -0.97109,-1.30665 -2.52415,-2.72582 -4.79687,-4.42773 -5.29328,-3.96393 -9.58999,-7.5455 -16.41992,-13.67969 -3.20703,-2.88033 -5.22755,-4.90322 -6.57813,-6.82617 -1.35058,-1.92296 -2.01932,-3.74295 -2.51563,-6.14844 -0.58114,-2.81688 -0.63862,-4.12198 -0.30664,-6.84375 0.19848,-1.6263 0.62794,-3.31302 1.11524,-4.60938 0.24365,-0.64817 0.50021,-1.19664 0.76172,-1.60156 0.13075,-0.20246 0.26196,-0.37003 0.40625,-0.49805 0.14429,-0.12801 0.31152,-0.22851 0.51562,-0.22851 0.15955,0 0.34982,0.0712 0.45703,0.21484 0.10722,0.14364 0.13187,0.30878 0.13282,0.48828 0.002,0.35902 -0.10511,0.82816 -0.30664,1.51368 -0.4563,1.55796 -0.75579,3.83177 -0.84766,5.98437 -0.0919,2.1526 0.031,4.20608 0.35937,5.26953 0.65354,2.11678 1.38003,3.28329 3.10157,4.98633 0.95564,0.94544 1.67068,1.50316 2.16211,1.70898 0.24571,0.10292 0.42423,0.11778 0.5664,0.0859 0.14217,-0.0318 0.26835,-0.11243 0.40821,-0.2832 0.1421,-0.17339 0.2127,-0.3173 0.26562,-0.91602 0.0529,-0.59871 0.0644,-1.60581 0.0644,-3.36132 0,-6.69638 0.79235,-12.77549 2.24219,-17.11133 2.09887,-6.27717 4.67004,-11.84105 7.16797,-15.498051 0.46699,-0.68364 0.91148,-1.35324 1.25195,-1.88086 0.17024,-0.263809 0.31521,-0.493006 0.42188,-0.667969 0.10667,-0.174962 0.18065,-0.312281 0.1875,-0.328124 -0.0135,0.03126 0.006,-0.02556 0.0176,-0.09961 0.0112,-0.07405 0.0235,-0.17812 0.0351,-0.304687 0.0233,-0.253134 0.0467,-0.599398 0.0664,-1.007813 0.0394,-0.81683 0.0674,-1.887259 0.0762,-3.011719 0.0371,-4.735452 0.38009,-6.440601 1.88672,-9.355468 l 0.002,-0.002 0.5625,-1.123047 c 0.004,-0.0073 0.008,-0.01449 0.0117,-0.02148 0.14362,-0.232532 0.31474,-0.560383 0.54688,-1.039062 0.005,-0.01006 0.01,-0.01984 0.0156,-0.0293 0.30848,-0.487495 0.74655,-1.261183 1.32031,-2.421875 v -0.002 c 1.57304,-3.263412 2.04329,-4.458644 2.62305,-6.689453 0.17085,-0.657154 0.31668,-1.129731 0.46484,-1.464844 0.0741,-0.167557 0.14773,-0.301495 0.23829,-0.41211 0.0906,-0.110614 0.21016,-0.205235 0.36328,-0.234374 0.30564,-0.05822 0.52112,0.09711 0.78125,0.287109 0.26012,0.189998 0.54804,0.456692 0.85156,0.78125 0.60703,0.649116 1.27086,1.522915 1.79883,2.416015 1.00908,1.706769 3.1305,4.327001 4.50195,5.572266 1.60893,1.461027 2.48406,1.763118 4.81445,1.642578 2.51757,-0.130125 3.25019,-0.462883 5.74024,-2.589844 1.08518,-0.927036 2.45411,-2.043056 3.07031,-2.501953 1.20259,-0.895539 3.08651,-2.107838 4.88281,-3.183593 1.7963,-1.075756 3.48418,-2.006907 4.36328,-2.34961 1.00683,-0.392482 1.86458,-0.799738 2.50196,-1.175781 0.63738,-0.376043 1.05077,-0.746228 1.15429,-0.9375 0.16542,-0.305526 0.20804,-0.55822 0.16993,-0.757813 -0.0381,-0.199592 -0.15231,-0.369752 -0.39258,-0.52539 -0.31574,-0.204495 -0.58617,-0.260344 -1.05078,-0.152344 -0.46461,0.108 -1.1066,0.409819 -2.01172,0.941406 -1.65857,0.974082 -4.71989,2.408488 -7.72266,3.6875 -3.00277,1.279013 -5.91702,2.39357 -7.33398,2.722657 -2.0039,0.465368 -4.71904,0.358188 -6.20313,-0.292969 -0.66509,-0.291811 -1.88787,-1.1611 -3.00195,-2.027344 -0.55704,-0.433122 -1.07594,-0.861414 -1.46289,-1.21289 -0.19348,-0.175739 -0.35358,-0.331075 -0.47266,-0.464844 -0.0595,-0.06688 -0.10918,-0.127967 -0.15039,-0.191406 -0.0412,-0.06344 -0.0898,-0.119058 -0.0898,-0.259766 0,-0.176659 0.0911,-0.411529 0.27734,-0.529297 0.18624,-0.117768 0.40556,-0.153136 0.72266,-0.173828 0.63419,-0.04138 1.68358,0.0142 3.51367,0.142578 5.48637,0.38489 8.28832,-0.160218 13.13867,-2.566406 1.25832,-0.624305 3.98477,-1.700355 6.10938,-2.417969 2.20338,-0.744188 3.92087,-1.397693 5.13867,-1.951172 1.2178,-0.553479 1.94169,-1.053737 2.09766,-1.289062 0.16302,-0.245969 0.1812,-0.504068 0.0859,-0.75586 -0.0953,-0.251791 -0.31476,-0.49471 -0.65625,-0.648437 -0.24775,-0.111582 -0.50759,-0.09053 -0.79297,0.07031 -0.28537,0.160845 -0.58105,0.471577 -0.8125,0.914063 -0.11172,0.213598 -0.22857,0.41558 -0.43359,0.605468 -0.20502,0.189889 -0.48188,0.360335 -0.91992,0.566407 -0.87608,0.412143 -2.41815,0.980463 -5.41992,2.080078 -7.85486,2.877386 -12.81401,3.965305 -17.29688,3.765625 -1.70031,-0.07573 -2.89798,-0.282499 -3.92969,-0.841797 -1.03171,-0.559298 -1.86583,-1.454749 -2.875,-2.849609 -0.74876,-1.03474 -1.18697,-1.422548 -2.15625,-1.90625 -0.80543,-0.401935 -1.33761,-0.743452 -1.67773,-1.201172 -0.34012,-0.45772 -0.44727,-1.004043 -0.44727,-1.701172 0,-1.884637 1.02333,-3.414667 3.28516,-5.035156 0.45798,-0.328113 1.6006,-1.252691 2.50195,-2.025391 0.91211,-0.781846 2.25891,-1.87465 3.00782,-2.441406 0.77019,-0.582888 1.20104,-1.043613 1.43554,-1.615235 0.2345,-0.571621 0.28177,-1.292943 0.20117,-2.404296 -0.10845,-1.490386 -1.22147,-3.920358 -2.18359,-4.81836 -0.62305,-0.581445 -1.29891,-0.869568 -2.02539,-0.894531 -0.72648,-0.02496 -1.51692,0.219714 -2.34766,0.763672 -0.67884,0.444528 -1.09875,0.978918 -1.31836,1.691406 -0.2196,0.712488 -0.22836,1.617468 -0.0195,2.767578 0.44937,2.474659 1.32791,3.888314 2.61133,4.419922 0.21133,0.08751 0.40131,0.188149 0.55078,0.289063 0.0747,0.05046 0.13989,0.09927 0.19727,0.158203 0.0574,0.05893 0.13672,0.118978 0.13672,0.294921 0,0.08889 -0.0175,0.114532 -0.0312,0.154297 -0.0137,0.03977 -0.0287,0.07953 -0.0488,0.125 -0.0403,0.09094 -0.0958,0.201446 -0.16211,0.328125 -0.13259,0.25336 -0.31177,0.572024 -0.50977,0.900391 -0.29976,0.496966 -0.51171,0.812493 -0.75976,1.033203 -0.24805,0.22071 -0.53847,0.315258 -0.85547,0.345703 -0.30464,0.02926 -0.57568,0.01329 -0.82227,-0.115234 -0.24658,-0.12852 -0.43698,-0.337794 -0.66992,-0.640625 -1.41765,-1.842317 -2.17383,-5.303416 -2.17383,-9.529297 0,-2.035923 0.10496,-3.0261 0.44532,-4.113281 1.02352,-3.275996 3.48653,-5.326856 6.48632,-5.337891 2.12799,-0.0078 3.83058,0.995689 4.97266,2.888672 1.14208,1.892983 1.76177,4.655622 1.87305,8.255859 v 0.002 c 0.023,0.750979 0.0685,1.407772 0.125,1.888671 0.0282,0.24045 0.0595,0.437193 0.0898,0.572266 0.015,0.06672 0.0301,0.11872 0.041,0.148437 -0.0344,-0.03633 0.008,-9.91e-4 0.11718,0.02344 0.12129,0.02725 0.29904,0.05497 0.51758,0.07813 0.43709,0.04631 1.03895,0.07747 1.73828,0.08594 1.44809,0.01758 2.91327,0.172824 3.82618,0.41211 0.53065,0.139112 0.92513,0.243881 1.20703,0.304687 0.26958,0.05815 0.42509,0.06231 0.46875,0.05664 0.0106,-0.06998 0.003,-0.247523 -0.0117,-0.494141 -0.20826,-3.512744 -0.14407,-5.93658 0.23047,-7.322265 0.42754,-1.581889 1.18204,-3.187607 2.0664,-4.525391 0.88437,-1.337784 1.88898,-2.411384 2.88282,-2.919922 0.96208,-0.492258 2.13451,-0.679756 3.60742,-0.611328 0.003,-7.26e-4 0.007,-0.0014 0.01,-0.002 0.0155,-0.0026 0.0312,-0.0039 0.0469,-0.0039 z m -23.95508,8.949218 c 1.47227,0.213384 2.67785,4.394039 2.32031,3.175782 0.2761,2.537487 0.97649,1.149534 0.0274,2.976562 -1.87725,0.919991 -2.04295,-2.05246 -1.82032,-2.041015 -0.9953,-2.408954 -0.7419,-0.486432 -1.45312,-2.783203 -0.15365,-0.594176 1.56248,-1.347867 0.92578,-1.328126 z m 5.67773,8.765626 c -2.21756,0.404154 -1.47581,0.017 -2.3164,0.919921 -0.0314,0.716227 0.0849,1.103776 0.65429,1.046875 1.34561,-0.982021 0.008,-1.193512 1.78711,-1.689453 0.20443,-0.05013 0.64063,-0.17513 0.6543,-0.1875 0.001,0.0137 -0.029,-0.01977 -0.16015,-0.04687 -0.15498,-0.03203 -0.37545,-0.04905 -0.61915,-0.04297 z m 8.59571,0.03711 c -1.06084,-0.02085 -1.11045,-0.0027 -1.31836,0.02344 0.0517,0.04659 0.0883,0.0889 0.16797,0.142578 0.26669,0.17962 0.68042,0.381535 1.19726,0.56836 0.58983,0.213178 1.00448,0.300937 1.26172,0.289062 0.25725,-0.01187 0.35612,-0.07655 0.47852,-0.269531 0.0692,-0.109038 0.0842,-0.171312 0.084,-0.222656 -2.2e-4,-0.05134 -0.0163,-0.11461 -0.0859,-0.224609 -0.0516,-0.08117 -0.10277,-0.129547 -0.36914,-0.1875 -0.26636,-0.05795 -0.71558,-0.09445 -1.41601,-0.119141 z m 27.19531,13.087891 c 0.41991,-0.03344 4.50707,3.53152 1.58789,1.128906 0.83969,0.768542 1.94764,1.478686 3.31055,2.121094 1.22386,0.576859 1.93356,0.951867 2.32422,1.46289 0.19532,0.255512 0.29213,0.551931 0.29882,0.863281 0.007,0.311351 -0.0634,0.636544 -0.17187,1.019532 -0.15853,0.559754 -0.45805,1.287034 -0.71289,1.701171 -0.18082,0.293954 -0.37526,0.528962 -0.62891,0.675782 -0.25364,0.146819 -0.56128,0.181374 -0.87109,0.109375 -0.61961,-0.143999 -1.30448,-0.641052 -2.32422,-1.50586 -2.18282,-1.851103 -3.459,-4.009251 -3.45898,-6.011718 0,-0.330411 0.0254,-0.644431 0.0703,-0.898438 0.0225,-0.127004 0.05,-0.238969 0.0859,-0.337891 0.036,-0.09892 0.0548,-0.197219 0.20898,-0.291015 0.12261,-0.07458 0.21476,-0.05174 0.28125,-0.03711 z m -48.3418,20 c 0.16553,-0.172312 4.34706,2.942221 1.54102,0.9375 0.54794,0.394792 1.23691,0.906016 1.96875,1.458984 1.46368,1.105935 3.0939,2.376215 4.0918,3.207031 0.89859,0.748041 1.41684,1.219687 1.64648,1.701172 0.11482,0.240743 0.13981,0.505021 0.0605,0.738281 -0.0793,0.233261 -0.23579,0.423611 -0.4336,0.619141 -0.13756,0.136071 -0.29212,0.255979 -0.44336,0.347656 -0.15123,0.09168 -0.27601,0.169922 -0.47461,0.169922 -0.15313,0 -0.18756,-0.0488 -0.24609,-0.08594 -0.0585,-0.03713 -0.11872,-0.08216 -0.1875,-0.138672 -0.13756,-0.113023 -0.30787,-0.270041 -0.51758,-0.472657 -0.41941,-0.405231 -0.9867,-0.988282 -1.67187,-1.71875 -1.37035,-1.460935 -3.21395,-3.507675 -5.26953,-5.863281 -0.10975,-0.125674 -0.19097,-0.220629 -0.25196,-0.294922 -0.0305,-0.03715 -0.0565,-0.06837 -0.0801,-0.103515 -0.0236,-0.03515 -0.0641,-0.04924 -0.0703,-0.19336 -10e-6,-0.0013 -10e-6,-0.0026 0,-0.0039 -0.002,-0.0717 0.0549,-0.209512 0.14649,-0.263672 0.0915,-0.05416 0.15353,-0.04513 0.1914,-0.04102 z m 10.25782,5.6875 c 6.5e-4,0 0.37304,0.07812 0.55859,0.117187 0.75434,1.26941 0.95257,-1.634477 0.76562,1.146484 0,1.583029 -1.05835,3.161899 -2.60351,3.945313 -0.70645,0.358124 -1.35288,0.487881 -1.88086,0.349609 -0.52798,-0.138271 -0.89453,-0.615155 -0.89453,-1.222656 0,-0.117656 0.004,-0.214335 0.0156,-0.302734 0.0118,-0.0884 0.0163,-0.173681 0.10742,-0.28125 0.0456,-0.05379 0.12725,-0.106549 0.21094,-0.119141 0.0837,-0.01259 0.15329,0.0076 0.20313,0.0293 0.0997,0.04336 0.15302,0.09524 0.21484,0.15625 v 0.002 c 0.10476,0.103552 0.25991,0.161873 0.47852,0.166016 0.21861,0.0041 0.49119,-0.05257 0.77343,-0.169922 0.56448,-0.234704 1.16184,-0.706709 1.52344,-1.285156 0.25154,-0.402242 0.37086,-0.734995 0.38477,-0.972657 0.0139,-0.237661 -0.046,-0.376909 -0.21289,-0.513672 -0.11374,-0.09334 -0.20229,-0.190956 -0.25977,-0.308593 -0.0575,-0.117637 -0.0787,-0.271448 -0.0234,-0.40625 0.0553,-0.134802 0.16885,-0.222684 0.28125,-0.269532 0.11181,-0.0466 0.23085,-0.06293 0.35743,-0.06055 z M 465.61719,86.625 c 0.71538,0.235692 2.54316,1.554397 1.9414,1.115234 1.00587,0.752957 2.13494,1.791735 3.0293,2.853516 2.68835,3.191587 5.60146,7.977681 7.87305,12.92383 2.20919,4.81034 3.06241,8.62319 3.05078,13.66797 -0.007,3.7765 -0.39173,6.39017 -1.52344,10.4082 -0.26442,0.93874 -0.44019,1.64494 -0.5293,2.12305 -0.0446,0.23905 -0.0653,0.42315 -0.0684,0.53711 -10e-4,0.0462 0.006,0.0677 0.0117,0.084 0.0209,0.0146 0.0292,0.0215 0.0801,0.0508 0.0811,0.0467 0.19017,0.10304 0.31836,0.16602 0.25639,0.12595 0.58636,0.27416 0.91992,0.4082 0.70535,0.28345 1.66216,0.77638 2.19141,1.13477 0.61276,0.41501 1.31338,0.99782 1.86914,1.52343 0.27788,0.26281 0.51885,0.5095 0.69727,0.72071 0.0892,0.1056 0.16141,0.20127 0.21875,0.29297 0.0573,0.0917 0.11523,0.16531 0.11523,0.32421 0,0.10666 -0.0326,0.22907 -0.10938,0.32227 -0.0768,0.0932 -0.18406,0.14589 -0.28515,0.17187 -0.20219,0.052 -0.40883,0.0259 -0.66992,-0.0312 -0.52218,-0.11425 -1.25369,-0.39061 -2.23438,-0.83399 -3.06422,-1.38531 -5.06443,-1.68297 -8.19531,-1.22266 -0.79999,0.11768 -1.22291,0.1849 -1.57617,0.14454 -0.35326,-0.0404 -0.59065,-0.22468 -0.85352,-0.46875 -0.1768,-0.16421 -0.31254,-0.30565 -0.41406,-0.4375 -0.10152,-0.13186 -0.18882,-0.25365 -0.18359,-0.44532 0.003,-0.0958 0.045,-0.20471 0.11132,-0.27539 0.0663,-0.0707 0.14363,-0.10754 0.2168,-0.13281 0.14634,-0.0505 0.29826,-0.0606 0.48828,-0.0606 1.35597,0 2.50622,-0.51018 3.46875,-1.46093 0.96253,-0.95075 1.7282,-2.35072 2.24805,-4.11329 1.0397,-3.52513 1.09075,-8.48272 -0.10352,-14.06445 -1.33804,-6.2542 -4.39009,-12.457265 -10.64453,-21.580077 -0.63252,-0.922595 -1.18865,-1.766377 -1.57617,-2.388672 -0.19376,-0.311147 -0.34429,-0.566906 -0.44531,-0.753906 -0.0505,-0.0935 -0.0876,-0.166878 -0.11524,-0.236328 -0.0138,-0.03472 -0.0268,-0.06551 -0.0352,-0.121094 -0.004,-0.02779 -0.0115,-0.06343 0.004,-0.126953 0.004,-0.01588 0.009,-0.03352 0.0176,-0.05273 0.009,-0.01922 0.0366,-0.05991 0.0371,-0.06055 9.8e-4,-0.0013 0.13132,-0.09516 0.13281,-0.0957 0.001,-6.77e-4 0.003,-0.0013 0.004,-0.002 0.17327,-0.05946 0.3417,-0.05379 0.51758,-0.0078 z m -46.05274,1.923828 c 0.45764,0.153834 1.27362,1.460119 1.09766,0.91211 0.61905,0.554905 1.50609,1.358979 2.58594,2.34375 2.1597,1.96954 5.09435,4.663655 8.21875,7.542968 6.2488,5.758624 13.25123,12.251894 16.31054,15.154294 v 0.002 l 1.48633,1.41211 c 0.0814,0.0772 0.11036,0.19463 0.0742,0.30078 l -0.25977,0.74804 c -0.1566,0.45056 -0.4953,1.13545 -0.78515,1.59375 -0.3009,0.47578 -0.80847,1.03258 -1.22266,1.32422 h -0.002 l -0.64844,0.45508 c -0.10869,0.0767 -0.25582,0.0686 -0.35547,-0.0195 l -1.27539,-1.13281 c -2.80983,-2.49504 -9.92264,-9.00951 -16.33789,-14.92774 -3.20762,-2.95911 -6.23976,-5.769216 -8.4707,-7.85156 -1.11547,-1.041172 -2.03083,-1.899864 -2.66797,-2.505859 -0.31857,-0.302998 -0.56716,-0.542324 -0.73828,-0.710938 -0.0856,-0.08431 -0.15156,-0.150971 -0.19922,-0.201172 -0.0238,-0.0251 -0.0426,-0.04508 -0.0605,-0.06641 -0.009,-0.01066 -0.0172,-0.02134 -0.0293,-0.03906 -0.006,-0.0089 -0.0135,-0.01914 -0.0234,-0.03906 -0.01,-0.01993 -0.0312,-0.130102 -0.0312,-0.130859 0,-0.121837 0.0333,-0.148818 0.0547,-0.1875 0.0214,-0.03868 0.0451,-0.07229 0.0723,-0.109375 0.0542,-0.07417 0.12242,-0.15827 0.20703,-0.253907 0.16923,-0.191272 0.39627,-0.426499 0.64649,-0.666015 0.46186,-0.442078 1.12019,-1.268066 1.4082,-1.761719 0.15636,-0.26789 0.3056,-0.521337 0.41992,-0.712891 0.0572,-0.09578 0.10574,-0.176055 0.14258,-0.236328 0.0368,-0.06027 0.0451,-0.07714 0.084,-0.128906 v -0.002 c 2.9e-4,-3.82e-4 0.29788,-0.105704 0.29883,-0.105469 z m -4.22461,4.28711 c 2.7447,1.863876 0.81857,0.538464 3.24024,2.611328 2.22551,1.998584 5.99334,5.447464 12.31836,11.255854 5.92883,5.44452 9.44995,8.68371 11.5,10.59376 1.02502,0.95502 1.68224,1.57676 2.09179,1.97851 0.20478,0.20088 0.34659,0.34702 0.44532,0.45508 0.0987,0.10805 0.15028,0.13378 0.20507,0.28711 0.021,0.0589 0.0401,0.11351 0.0527,0.17773 0.0127,0.0642 0.0414,0.14456 -0.0312,0.2793 -0.0363,0.0674 -0.11584,0.13331 -0.19141,0.15625 -0.0756,0.0229 -0.1367,0.0157 -0.18359,0.006 -0.0938,-0.0196 -0.15568,-0.0538 -0.23242,-0.0996 -0.30696,-0.18323 -0.81065,-0.60044 -1.79297,-1.4668 -1.96465,-1.73271 -5.76972,-5.23332 -13.00781,-11.90625 -6.47657,-5.97089 -10.21081,-9.426085 -12.28711,-11.392576 -1.03815,-0.983245 -1.65891,-1.592407 -2.00977,-1.966796 -0.17543,-0.187195 -0.2822,-0.308075 -0.35351,-0.421876 -0.0357,-0.0569 -0.0831,-0.101738 -0.0762,-0.248046 0.003,-0.07315 0.0521,-0.181824 0.12696,-0.236328 0.0749,-0.0545 0.14081,-0.06136 0.18554,-0.0625 z m -25.56445,2.152343 c 1.73103,1.743771 1.90997,2.165239 0.60938,3.71875 -0.3301,0.511552 -0.8504,1.080897 -1.76172,2.033199 -0.72155,0.7539 -1.26022,1.24193 -1.71485,1.50977 -0.22731,0.13392 -0.43879,0.21766 -0.65625,0.22461 -0.21745,0.007 -0.43075,-0.0849 -0.58007,-0.23242 -0.1333,-0.13179 -0.21902,-0.31518 -0.23047,-0.50586 -0.0115,-0.19068 0.0373,-0.38163 0.125,-0.58203 0.17538,-0.40081 0.51328,-0.85727 1.02539,-1.43555 0.81043,-0.915495 1.09079,-1.414312 1.28711,-2.28125 0.16672,-0.736601 0.39934,-1.326038 0.70898,-1.751953 0.30964,-0.425915 0.72375,-0.697266 1.1875,-0.697266 z m 61.07031,15.974609 c 2.78534,0.47227 1.23735,-0.45622 2.95508,1.00781 0.62055,0.70587 0.82224,1.75266 0.7168,3.13086 -0.22254,2.90884 -2.15119,6.0299 -5.13867,8.41406 -1.56347,1.24771 -2.67923,1.84617 -4.37696,2.34376 -0.67858,0.19891 -1.09951,0.30916 -1.49609,0.32226 -0.39658,0.0131 -0.73959,-0.0794 -1.20508,-0.24219 -0.95463,-0.33461 -1.67444,-0.84828 -2.12305,-1.54687 -0.44861,-0.6986 -0.61391,-1.56673 -0.51953,-2.57227 0.0597,-0.63379 0.24371,-1.40361 0.45313,-2.0332 0.10471,-0.31479 0.21508,-0.59274 0.32617,-0.80664 0.0555,-0.10695 0.11062,-0.19756 0.17773,-0.27735 0.0671,-0.0798 0.15009,-0.18359 0.33985,-0.18359 0.15209,0 0.15139,0.0352 0.1914,0.0566 0.04,0.0215 0.0807,0.0457 0.12696,0.0762 0.0926,0.0609 0.20739,0.14335 0.34179,0.24414 0.26882,0.20159 0.61371,0.47575 0.97461,0.77735 0.78497,0.65623 1.40878,1.05409 1.95704,1.24219 0.54825,0.1881 1.02368,0.18254 1.59374,0.0137 0.69009,-0.20435 1.53299,-0.82338 2.22266,-1.59961 0.68967,-0.77624 1.22992,-1.70873 1.39258,-2.47656 0.0729,-0.34407 -0.02,-0.80123 -0.32813,-1.35352 -0.30807,-0.55229 -0.82424,-1.18895 -1.53711,-1.875 -0.27965,-0.2691 -0.53321,-0.53025 -0.7207,-0.74023 -0.0937,-0.105 -0.16962,-0.19694 -0.22851,-0.27539 -0.0294,-0.0392 -0.0555,-0.0742 -0.0781,-0.11329 -0.0227,-0.0391 -0.0586,-0.0595 -0.0586,-0.19531 0,-0.20922 0.12374,-0.30182 0.22265,-0.37695 0.0989,-0.0751 0.21587,-0.13831 0.35352,-0.20117 0.2753,-0.12573 0.63461,-0.24608 1.03516,-0.35743 0.77534,-0.21552 1.68128,-0.38208 2.37304,-0.39257 10e-4,-1e-5 0.003,-1e-5 0.004,0 0.0172,-0.005 0.0349,-0.008 0.0527,-0.01 z m 4.94141,2.92383 c 1.56457,2.44551 -1.1723,5.82838 -0.79492,5.60742 -0.79778,1.63116 -2.20317,3.33134 -3.78516,4.74219 -1.58198,1.41085 -3.33462,2.53031 -4.87305,2.96679 -0.40591,0.11518 -0.71116,0.20401 -0.92578,0.2754 -0.15358,0.0511 -0.20037,0.0791 -0.25586,0.10742 0.0294,0.038 0.0361,0.0501 0.0957,0.11523 0.0876,0.0957 0.15432,0.18026 0.20507,0.26563 0.0508,0.0854 0.0957,0.17147 0.0899,0.30273 -0.006,0.13127 -0.13216,0.28692 -0.24609,0.32617 -0.11394,0.0393 -0.20113,0.0283 -0.28711,0.0117 -0.34394,-0.0663 -0.75598,-0.30927 -1.19532,-0.69726 l -0.69336,-0.61524 c -0.17731,-0.15684 -0.0991,-0.44882 0.13282,-0.49609 l 1.25,-0.24805 c 2.38476,-0.47334 5.5691,-2.5498 7.63867,-5.03125 1.76575,-2.11732 2.63455,-4.02386 3.07422,-6.73242 0.0459,-0.28297 0.0756,-0.46713 0.14062,-0.62695 0.0325,-0.0799 0.0757,-0.17061 0.19336,-0.23828 0.11763,-0.0677 0.27547,-0.0461 0.35938,-0.006 z m 2.51172,6.56836 c 1.40532,0.005 -2.30485,4.88086 -0.49805,2.3164 -0.55422,0.95819 -1.29905,2.06778 -1.96484,2.84961 -0.75042,0.88111 -1.98109,2.03182 -2.80274,2.61133 -0.38582,0.27217 -0.73167,0.53875 -0.96875,0.74219 -0.0842,0.0723 -0.13316,0.12231 -0.18554,0.17383 0.0178,0.0174 0.0259,0.0267 0.0469,0.0469 0.13511,0.13041 0.33531,0.31725 0.5918,0.55274 0.51297,0.47096 1.25336,1.13846 2.17773,1.96289 1.84876,1.64885 4.43105,3.92372 7.39063,6.50976 0.91478,0.79936 1.74626,1.5471 2.35156,2.10742 0.30265,0.28017 0.54733,0.51276 0.7207,0.68555 0.0867,0.0864 0.1553,0.15648 0.20703,0.21485 0.0259,0.0292 0.0471,0.0545 0.0684,0.084 0.0106,0.0147 0.0224,0.0303 0.0352,0.0547 0.006,0.0122 0.0122,0.0273 0.0195,0.0488 0.004,0.0108 0.009,0.0232 0.0117,0.0391 0.003,0.0158 0.006,0.0578 0.006,0.0586 0,0.0964 -0.0376,0.20643 -0.10352,0.28321 -0.0659,0.0768 -0.14791,0.11837 -0.22461,0.14257 -0.15339,0.0484 -0.30135,0.0399 -0.46289,0.0137 -0.32308,-0.0523 -0.70051,-0.19902 -1.06836,-0.42578 -0.18935,-0.11672 -0.49997,-0.36226 -0.95312,-0.73242 -0.45315,-0.37016 -1.03312,-0.85711 -1.69531,-1.42187 -1.32438,-1.12952 -2.97758,-2.56976 -4.59766,-4 -1.62008,-1.43025 -3.20514,-2.84974 -4.39453,-3.93946 -0.5947,-0.54486 -1.09076,-1.00635 -1.44336,-1.34765 -0.1763,-0.17065 -0.31602,-0.31158 -0.41797,-0.41992 -0.051,-0.0542 -0.0928,-0.0985 -0.12695,-0.14063 -0.0338,-0.0417 -0.0641,-0.0422 -0.0996,-0.17578 v -0.002 c -0.0388,-0.15033 0.0144,-0.22615 0.0469,-0.28321 0.0326,-0.0574 0.0698,-0.10278 0.11328,-0.15234 0.0869,-0.0991 0.2004,-0.20843 0.3418,-0.33008 0.28281,-0.2433 0.67221,-0.5361 1.10742,-0.83008 1.64284,-1.10966 3.72325,-3.26859 4.98047,-5.17383 0.46245,-0.70086 0.77987,-1.17235 1.00781,-1.48828 0.22795,-0.31593 0.33622,-0.47538 0.53126,-0.58398 v -0.002 c 0.0642,-0.0354 0.15687,-0.0624 0.25195,-0.0488 z m -82.97461,16.63086 c 1.66055,0.003 3.33176,0.66175 5.29297,2.27539 3.58317,2.94811 8.22296,9.09216 15.98437,20.62695 3.87196,5.7542 6.02311,8.99152 7.38086,11.2832 1.35776,2.29169 1.9231,3.64494 2.60156,5.57422 0.65501,1.85959 0.71675,2.27797 0.71875,4.99805 0.003,2.46341 -0.0849,3.23465 -0.52148,4.61719 -1.11096,3.51885 -2.99747,5.87509 -5.60742,6.91211 v -0.002 c -0.56443,0.22458 -1.01058,0.36272 -1.65235,0.43555 -0.64176,0.0728 -1.47665,0.0869 -2.87695,0.0879 l -3.16406,0.002 c -0.023,9e-5 -0.046,-0.003 -0.0684,-0.008 l -10.04688,-2.45703 c -17.43747,-4.26262 -25.92157,-6.33075 -30.11718,-7.48242 -2.09781,-0.57583 -3.11947,-0.91528 -3.68946,-1.21484 -0.56998,-0.29957 -0.6928,-0.65636 -0.79492,-0.92188 -0.19379,-0.50373 -0.21709,-1.0182 0.041,-1.65625 0.2581,-0.63805 0.76702,-1.43199 1.63867,-2.68359 1.71683,-2.46514 2.09328,-3.33206 2.46875,-5.71289 0.39098,-2.47928 -0.16269,-4.81345 -2.3418,-9.65821 -0.69253,-1.53972 -1.11545,-2.71009 -1.28906,-3.66992 -0.17361,-0.95983 -0.0888,-1.72339 0.25,-2.37109 0.39722,-0.75932 1.0658,-1.25615 2.04102,-1.46094 0.97521,-0.20479 2.26086,-0.15307 4.02343,0.0996 2.90383,0.4163 6.27832,0.29598 7.80664,-0.22656 1.2791,-0.43729 2.74214,-1.74841 3.38672,-3.05078 0.83394,-1.68486 1.74038,-5.38986 1.83008,-7.16602 10e-4,-0.0294 0.007,-0.0583 0.0176,-0.0859 l 0.97656,-2.61133 0.002,-0.004 c 0.28448,-0.80259 0.96557,-1.70657 1.57618,-2.43946 0.61154,-0.73401 1.1582,-1.28515 1.1582,-1.28515 l 0.0117,-0.0117 c 0.80152,-0.71575 1.91381,-0.73343 2.96289,-0.73242 z m 114.46477,17.85351 c 0.0334,-0.32713 0.0338,-0.74708 -0.0645,-0.98437 -0.0982,-0.2373 -0.32957,-0.53192 -0.80469,-1.08203 -0.28637,-0.33169 -0.55807,-0.69354 -0.76953,-1.01563 -0.21146,-0.32208 -0.3651,-0.57145 -0.41797,-0.82422 -0.0537,-0.25934 -0.21119,-0.69871 -0.3125,-0.88086 -0.0602,-0.10829 -0.11128,-0.22312 -0.11328,-0.36328 -0.002,-0.14016 0.0581,-0.27623 0.13672,-0.37695 0.15727,-0.20143 0.38174,-0.35205 0.73828,-0.63086 0.2671,-0.20887 0.90956,-0.87273 1.66992,-1.51172 0.76036,-0.63899 1.65249,-1.27731 2.57227,-1.47265 l 1.2e-4,0 c 1.33018,-0.20376 4.86474,1.67401 3.72851,1.07421 1.88584,1.67183 1.92815,-0.47017 2.27735,2.48633 -0.44891,2.77526 -0.55829,6.35927 1.43164,10.44922 0.73227,1.50509 1.45255,2.4939 2.47851,3.24219 1.02596,0.74828 2.38025,1.26309 4.39258,1.7539 3.71571,0.90625 6.03769,2.1166 6.89258,3.74805 0.42745,0.81573 0.45101,1.7348 0.082,2.66992 -0.36898,0.93512 -1.11282,1.89796 -2.21875,2.91016 -2.11036,1.93156 -4.58842,3.08 -11.32226,5.2832 -1.53805,0.50323 -3.06597,1.0254 -4.28516,1.46094 -1.21919,0.43554 -2.15222,0.79559 -2.41992,0.92969 -2.65662,1.33055 -5.62715,3.38728 -10.92383,7.58203 -3.32712,2.63494 -4.90374,3.50222 -7.36523,4.04492 -4.03435,0.88952 -7.63385,-0.0581 -10.50391,-2.7832 -1.50848,-1.43193 -2.45237,-2.86279 -2.88867,-4.69141 -0.43631,-1.82862 -0.37346,-4.03736 0.0566,-7.06836 0,0 0.24231,-1.72821 0.36718,-2.59179 0.0913,-0.63145 0.18622,-1.26236 0.27934,-1.89355 0.0931,-0.63118 0.23172,-1.25731 0.27933,-1.89354 0.0678,-0.90633 0.008,-2.72657 0.008,-2.72657 v -0.002 c 0.01,-2.85095 -0.24051,-4.77837 -1.36133,-10.33398 -0.61187,-3.0331 -0.67945,-3.76841 -0.66406,-7.28907 0.0112,-2.55378 0.11744,-4.24782 0.44922,-5.54492 0.33178,-1.29709 0.90525,-2.18886 1.78906,-3.0625 0.28111,-0.27793 0.49898,-0.49547 0.73047,-0.65039 0.23149,-0.15492 0.50134,-0.23982 0.7793,-0.19922 l -1.9e-4,3e-5 c 0.84047,0.19742 2.80068,1.77363 2.12109,1.30078 1.5339,1.16084 2.23962,1.89569 3.25977,3.39453 2.06086,3.02792 4.11767,4.63878 6.6582,5.26758 0.64848,0.16049 1.47273,0.52451 1.94336,0.8711 0.41477,0.30538 1.29765,0.9656 1.9668,1.46875 0.64285,0.4833 1.63095,1.03805 2.07812,1.18945 0.57663,0.19528 1.47532,0.68912 2.09766,1.14062 0.486,0.35337 0.7608,0.5271 1.01562,0.60743 0.25483,0.0803 0.70925,0.0537 1.06446,0.0508 0.39663,-0.003 0.81792,0.0678 1.1875,-0.0762 0.55642,-0.21684 1.06664,-0.62584 1.39405,-1.12526 0.35095,-0.53532 0.44516,-1.21451 0.51017,-1.8513 z"
       id="path884-2"
       inkscape:connector-curvature="0"
       sodipodi:nodetypes="cccccccccsccccccccccccccccccccccccccccccccccccccccccccccccccccccccscccccscccccscccczcccccccccccscccscaaaccsccccccsccccccsscccccccccccccccccscscscccccccccccccccccccccccccccccccccccccccccsccccccscsccccccccccccccccccccccccccscscccccccsccccccccsccccccccccscccccccsccccccccccccccccccccscscccscsccscccssccccsccccccsccscssscccscccccccccsccccscccsccscccccccccccccccccccccccccccccccccccccccccccccccccccccccccccccccscscccscccccccccccccccccscccccccsccccscccccccccccccccccccscccccccccccsssccsccccccccccccsscccccccccccssscccccsccccccccccccccsscccccccccsccccccccccccccccscccsccsccccccscccccccccccccscccccccccccccccccccccccccccccccccccccccccccccsccccssccscccccccccccccccccccccccccccccccccccsccccccccccccccacccccsccscccccccccccscsccccaaaccccccsccccccccccaaaa" />
  </g>
</svg>
