%TF.GenerationSoftware,KiCad,Pcbnew,6.0.11-2627ca5db0~126~ubuntu20.04.1*%
%TF.CreationDate,2023-05-23T08:29:18+02:00*%
%TF.ProjectId,tux_badge,7475785f-6261-4646-9765-2e6b69636164,rev?*%
%TF.SameCoordinates,Original*%
%TF.FileFunction,Other,Comment*%
%FSLAX46Y46*%
G04 Gerber Fmt 4.6, Leading zero omitted, Abs format (unit mm)*
G04 Created by KiCad (PCBNEW 6.0.11-2627ca5db0~126~ubuntu20.04.1) date 2023-05-23 08:29:18*
%MOMM*%
%LPD*%
G01*
G04 APERTURE LIST*
%ADD10C,0.030000*%
G04 APERTURE END LIST*
D10*
%TO.C,SW1*%
X175387447Y-116324076D02*
X175387447Y-116124076D01*
X175501733Y-116324076D01*
X175501733Y-116124076D01*
X175625542Y-116324076D02*
X175606495Y-116314552D01*
X175596971Y-116305028D01*
X175587447Y-116285980D01*
X175587447Y-116228838D01*
X175596971Y-116209790D01*
X175606495Y-116200266D01*
X175625542Y-116190742D01*
X175654114Y-116190742D01*
X175673161Y-116200266D01*
X175682685Y-116209790D01*
X175692209Y-116228838D01*
X175692209Y-116285980D01*
X175682685Y-116305028D01*
X175673161Y-116314552D01*
X175654114Y-116324076D01*
X175625542Y-116324076D01*
X175996971Y-116219314D02*
X175930304Y-116219314D01*
X175930304Y-116324076D02*
X175930304Y-116124076D01*
X176025542Y-116124076D01*
X176101733Y-116305028D02*
X176111257Y-116314552D01*
X176101733Y-116324076D01*
X176092209Y-116314552D01*
X176101733Y-116305028D01*
X176101733Y-116324076D01*
X176311257Y-116305028D02*
X176301733Y-116314552D01*
X176273161Y-116324076D01*
X176254114Y-116324076D01*
X176225542Y-116314552D01*
X176206495Y-116295504D01*
X176196971Y-116276457D01*
X176187447Y-116238361D01*
X176187447Y-116209790D01*
X176196971Y-116171695D01*
X176206495Y-116152647D01*
X176225542Y-116133600D01*
X176254114Y-116124076D01*
X176273161Y-116124076D01*
X176301733Y-116133600D01*
X176311257Y-116143123D01*
X176482685Y-116190742D02*
X176482685Y-116324076D01*
X176396971Y-116190742D02*
X176396971Y-116295504D01*
X176406495Y-116314552D01*
X176425542Y-116324076D01*
X176454114Y-116324076D01*
X176473161Y-116314552D01*
X176482685Y-116305028D01*
X176701733Y-116190742D02*
X176777923Y-116190742D01*
X176730304Y-116124076D02*
X176730304Y-116295504D01*
X176739828Y-116314552D01*
X176758876Y-116324076D01*
X176777923Y-116324076D01*
X176844590Y-116324076D02*
X176844590Y-116190742D01*
X176844590Y-116228838D02*
X176854114Y-116209790D01*
X176863638Y-116200266D01*
X176882685Y-116190742D01*
X176901733Y-116190742D01*
X177054114Y-116324076D02*
X177054114Y-116219314D01*
X177044590Y-116200266D01*
X177025542Y-116190742D01*
X176987447Y-116190742D01*
X176968400Y-116200266D01*
X177054114Y-116314552D02*
X177035066Y-116324076D01*
X176987447Y-116324076D01*
X176968400Y-116314552D01*
X176958876Y-116295504D01*
X176958876Y-116276457D01*
X176968400Y-116257409D01*
X176987447Y-116247885D01*
X177035066Y-116247885D01*
X177054114Y-116238361D01*
X177235066Y-116314552D02*
X177216019Y-116324076D01*
X177177923Y-116324076D01*
X177158876Y-116314552D01*
X177149352Y-116305028D01*
X177139828Y-116285980D01*
X177139828Y-116228838D01*
X177149352Y-116209790D01*
X177158876Y-116200266D01*
X177177923Y-116190742D01*
X177216019Y-116190742D01*
X177235066Y-116200266D01*
X177320780Y-116324076D02*
X177320780Y-116124076D01*
X177339828Y-116247885D02*
X177396971Y-116324076D01*
X177396971Y-116190742D02*
X177320780Y-116266933D01*
X177473161Y-116314552D02*
X177492209Y-116324076D01*
X177530304Y-116324076D01*
X177549352Y-116314552D01*
X177558876Y-116295504D01*
X177558876Y-116285980D01*
X177549352Y-116266933D01*
X177530304Y-116257409D01*
X177501733Y-116257409D01*
X177482685Y-116247885D01*
X177473161Y-116228838D01*
X177473161Y-116219314D01*
X177482685Y-116200266D01*
X177501733Y-116190742D01*
X177530304Y-116190742D01*
X177549352Y-116200266D01*
X180254114Y-116724076D02*
X180254114Y-116524076D01*
X180368400Y-116724076D02*
X180282685Y-116609790D01*
X180368400Y-116524076D02*
X180254114Y-116638361D01*
X180454114Y-116619314D02*
X180520780Y-116619314D01*
X180549352Y-116724076D02*
X180454114Y-116724076D01*
X180454114Y-116524076D01*
X180549352Y-116524076D01*
X180635066Y-116619314D02*
X180701733Y-116619314D01*
X180730304Y-116724076D02*
X180635066Y-116724076D01*
X180635066Y-116524076D01*
X180730304Y-116524076D01*
X180816019Y-116724076D02*
X180816019Y-116524076D01*
X180892209Y-116524076D01*
X180911257Y-116533600D01*
X180920780Y-116543123D01*
X180930304Y-116562171D01*
X180930304Y-116590742D01*
X180920780Y-116609790D01*
X180911257Y-116619314D01*
X180892209Y-116628838D01*
X180816019Y-116628838D01*
X181016019Y-116647885D02*
X181168400Y-116647885D01*
X181301733Y-116524076D02*
X181339828Y-116524076D01*
X181358876Y-116533600D01*
X181377923Y-116552647D01*
X181387447Y-116590742D01*
X181387447Y-116657409D01*
X181377923Y-116695504D01*
X181358876Y-116714552D01*
X181339828Y-116724076D01*
X181301733Y-116724076D01*
X181282685Y-116714552D01*
X181263638Y-116695504D01*
X181254114Y-116657409D01*
X181254114Y-116590742D01*
X181263638Y-116552647D01*
X181282685Y-116533600D01*
X181301733Y-116524076D01*
X181473161Y-116524076D02*
X181473161Y-116685980D01*
X181482685Y-116705028D01*
X181492209Y-116714552D01*
X181511257Y-116724076D01*
X181549352Y-116724076D01*
X181568400Y-116714552D01*
X181577923Y-116705028D01*
X181587447Y-116685980D01*
X181587447Y-116524076D01*
X181654114Y-116524076D02*
X181768400Y-116524076D01*
X181711257Y-116724076D02*
X181711257Y-116524076D01*
X181968400Y-116524076D02*
X182101733Y-116524076D01*
X181968400Y-116724076D01*
X182101733Y-116724076D01*
X182216019Y-116524076D02*
X182254114Y-116524076D01*
X182273161Y-116533600D01*
X182292209Y-116552647D01*
X182301733Y-116590742D01*
X182301733Y-116657409D01*
X182292209Y-116695504D01*
X182273161Y-116714552D01*
X182254114Y-116724076D01*
X182216019Y-116724076D01*
X182196971Y-116714552D01*
X182177923Y-116695504D01*
X182168400Y-116657409D01*
X182168400Y-116590742D01*
X182177923Y-116552647D01*
X182196971Y-116533600D01*
X182216019Y-116524076D01*
X182387447Y-116724076D02*
X182387447Y-116524076D01*
X182501733Y-116724076D01*
X182501733Y-116524076D01*
X182596971Y-116619314D02*
X182663638Y-116619314D01*
X182692209Y-116724076D02*
X182596971Y-116724076D01*
X182596971Y-116524076D01*
X182692209Y-116524076D01*
X175254114Y-116724076D02*
X175254114Y-116524076D01*
X175368400Y-116724076D02*
X175282685Y-116609790D01*
X175368400Y-116524076D02*
X175254114Y-116638361D01*
X175454114Y-116619314D02*
X175520780Y-116619314D01*
X175549352Y-116724076D02*
X175454114Y-116724076D01*
X175454114Y-116524076D01*
X175549352Y-116524076D01*
X175635066Y-116619314D02*
X175701733Y-116619314D01*
X175730304Y-116724076D02*
X175635066Y-116724076D01*
X175635066Y-116524076D01*
X175730304Y-116524076D01*
X175816019Y-116724076D02*
X175816019Y-116524076D01*
X175892209Y-116524076D01*
X175911257Y-116533600D01*
X175920780Y-116543123D01*
X175930304Y-116562171D01*
X175930304Y-116590742D01*
X175920780Y-116609790D01*
X175911257Y-116619314D01*
X175892209Y-116628838D01*
X175816019Y-116628838D01*
X176016019Y-116647885D02*
X176168400Y-116647885D01*
X176301733Y-116524076D02*
X176339828Y-116524076D01*
X176358876Y-116533600D01*
X176377923Y-116552647D01*
X176387447Y-116590742D01*
X176387447Y-116657409D01*
X176377923Y-116695504D01*
X176358876Y-116714552D01*
X176339828Y-116724076D01*
X176301733Y-116724076D01*
X176282685Y-116714552D01*
X176263638Y-116695504D01*
X176254114Y-116657409D01*
X176254114Y-116590742D01*
X176263638Y-116552647D01*
X176282685Y-116533600D01*
X176301733Y-116524076D01*
X176473161Y-116524076D02*
X176473161Y-116685980D01*
X176482685Y-116705028D01*
X176492209Y-116714552D01*
X176511257Y-116724076D01*
X176549352Y-116724076D01*
X176568400Y-116714552D01*
X176577923Y-116705028D01*
X176587447Y-116685980D01*
X176587447Y-116524076D01*
X176654114Y-116524076D02*
X176768400Y-116524076D01*
X176711257Y-116724076D02*
X176711257Y-116524076D01*
X176968400Y-116524076D02*
X177101733Y-116524076D01*
X176968400Y-116724076D01*
X177101733Y-116724076D01*
X177216019Y-116524076D02*
X177254114Y-116524076D01*
X177273161Y-116533600D01*
X177292209Y-116552647D01*
X177301733Y-116590742D01*
X177301733Y-116657409D01*
X177292209Y-116695504D01*
X177273161Y-116714552D01*
X177254114Y-116724076D01*
X177216019Y-116724076D01*
X177196971Y-116714552D01*
X177177923Y-116695504D01*
X177168400Y-116657409D01*
X177168400Y-116590742D01*
X177177923Y-116552647D01*
X177196971Y-116533600D01*
X177216019Y-116524076D01*
X177387447Y-116724076D02*
X177387447Y-116524076D01*
X177501733Y-116724076D01*
X177501733Y-116524076D01*
X177596971Y-116619314D02*
X177663638Y-116619314D01*
X177692209Y-116724076D02*
X177596971Y-116724076D01*
X177596971Y-116524076D01*
X177692209Y-116524076D01*
X180387447Y-116324076D02*
X180387447Y-116124076D01*
X180501733Y-116324076D01*
X180501733Y-116124076D01*
X180625542Y-116324076D02*
X180606495Y-116314552D01*
X180596971Y-116305028D01*
X180587447Y-116285980D01*
X180587447Y-116228838D01*
X180596971Y-116209790D01*
X180606495Y-116200266D01*
X180625542Y-116190742D01*
X180654114Y-116190742D01*
X180673161Y-116200266D01*
X180682685Y-116209790D01*
X180692209Y-116228838D01*
X180692209Y-116285980D01*
X180682685Y-116305028D01*
X180673161Y-116314552D01*
X180654114Y-116324076D01*
X180625542Y-116324076D01*
X180996971Y-116219314D02*
X180930304Y-116219314D01*
X180930304Y-116324076D02*
X180930304Y-116124076D01*
X181025542Y-116124076D01*
X181101733Y-116305028D02*
X181111257Y-116314552D01*
X181101733Y-116324076D01*
X181092209Y-116314552D01*
X181101733Y-116305028D01*
X181101733Y-116324076D01*
X181311257Y-116305028D02*
X181301733Y-116314552D01*
X181273161Y-116324076D01*
X181254114Y-116324076D01*
X181225542Y-116314552D01*
X181206495Y-116295504D01*
X181196971Y-116276457D01*
X181187447Y-116238361D01*
X181187447Y-116209790D01*
X181196971Y-116171695D01*
X181206495Y-116152647D01*
X181225542Y-116133600D01*
X181254114Y-116124076D01*
X181273161Y-116124076D01*
X181301733Y-116133600D01*
X181311257Y-116143123D01*
X181482685Y-116190742D02*
X181482685Y-116324076D01*
X181396971Y-116190742D02*
X181396971Y-116295504D01*
X181406495Y-116314552D01*
X181425542Y-116324076D01*
X181454114Y-116324076D01*
X181473161Y-116314552D01*
X181482685Y-116305028D01*
X181701733Y-116190742D02*
X181777923Y-116190742D01*
X181730304Y-116124076D02*
X181730304Y-116295504D01*
X181739828Y-116314552D01*
X181758876Y-116324076D01*
X181777923Y-116324076D01*
X181844590Y-116324076D02*
X181844590Y-116190742D01*
X181844590Y-116228838D02*
X181854114Y-116209790D01*
X181863638Y-116200266D01*
X181882685Y-116190742D01*
X181901733Y-116190742D01*
X182054114Y-116324076D02*
X182054114Y-116219314D01*
X182044590Y-116200266D01*
X182025542Y-116190742D01*
X181987447Y-116190742D01*
X181968400Y-116200266D01*
X182054114Y-116314552D02*
X182035066Y-116324076D01*
X181987447Y-116324076D01*
X181968400Y-116314552D01*
X181958876Y-116295504D01*
X181958876Y-116276457D01*
X181968400Y-116257409D01*
X181987447Y-116247885D01*
X182035066Y-116247885D01*
X182054114Y-116238361D01*
X182235066Y-116314552D02*
X182216019Y-116324076D01*
X182177923Y-116324076D01*
X182158876Y-116314552D01*
X182149352Y-116305028D01*
X182139828Y-116285980D01*
X182139828Y-116228838D01*
X182149352Y-116209790D01*
X182158876Y-116200266D01*
X182177923Y-116190742D01*
X182216019Y-116190742D01*
X182235066Y-116200266D01*
X182320780Y-116324076D02*
X182320780Y-116124076D01*
X182339828Y-116247885D02*
X182396971Y-116324076D01*
X182396971Y-116190742D02*
X182320780Y-116266933D01*
X182473161Y-116314552D02*
X182492209Y-116324076D01*
X182530304Y-116324076D01*
X182549352Y-116314552D01*
X182558876Y-116295504D01*
X182558876Y-116285980D01*
X182549352Y-116266933D01*
X182530304Y-116257409D01*
X182501733Y-116257409D01*
X182482685Y-116247885D01*
X182473161Y-116228838D01*
X182473161Y-116219314D01*
X182482685Y-116200266D01*
X182501733Y-116190742D01*
X182530304Y-116190742D01*
X182549352Y-116200266D01*
%TD*%
M02*
