%TF.GenerationSoftware,KiCad,Pcbnew,6.0.11-2627ca5db0~126~ubuntu20.04.1*%
%TF.CreationDate,2023-05-21T18:47:33+02:00*%
%TF.ProjectId,tux_badge,7475785f-6261-4646-9765-2e6b69636164,rev?*%
%TF.SameCoordinates,Original*%
%TF.FileFunction,Copper,L2,Bot*%
%TF.FilePolarity,Positive*%
%FSLAX46Y46*%
G04 Gerber Fmt 4.6, Leading zero omitted, Abs format (unit mm)*
G04 Created by KiCad (PCBNEW 6.0.11-2627ca5db0~126~ubuntu20.04.1) date 2023-05-21 18:47:33*
%MOMM*%
%LPD*%
G01*
G04 APERTURE LIST*
%TA.AperFunction,SMDPad,CuDef*%
%ADD10R,5.100000X5.100000*%
%TD*%
%TA.AperFunction,SMDPad,CuDef*%
%ADD11C,17.800000*%
%TD*%
%TA.AperFunction,ViaPad*%
%ADD12C,1.000000*%
%TD*%
%TA.AperFunction,Conductor*%
%ADD13C,0.406400*%
%TD*%
G04 APERTURE END LIST*
D10*
%TO.P,BT1,1,+*%
%TO.N,VCC*%
X153849400Y-105717956D03*
X179449400Y-105717956D03*
D11*
%TO.P,BT1,2,-*%
%TO.N,GND*%
X166649400Y-105717956D03*
%TD*%
D12*
%TO.N,VCC*%
X177266600Y-118287800D03*
X174472600Y-118283600D03*
%TO.N,GND*%
X144703800Y-113106200D03*
X144475200Y-119329200D03*
X169570400Y-82702400D03*
X186817000Y-116459000D03*
X182753000Y-111048800D03*
X168427400Y-81407000D03*
%TD*%
D13*
%TO.N,VCC*%
X155295600Y-118287800D02*
X174523400Y-118287800D01*
X153849400Y-116841600D02*
X155295600Y-118287800D01*
X174523400Y-118287800D02*
X174527600Y-118283600D01*
X178003200Y-118287800D02*
X179449400Y-116841600D01*
X174531800Y-118287800D02*
X178003200Y-118287800D01*
X153849400Y-105717956D02*
X153849400Y-116841600D01*
X174527600Y-118283600D02*
X174531800Y-118287800D01*
X179449400Y-116841600D02*
X179449400Y-105717956D01*
%TD*%
%TA.AperFunction,Conductor*%
%TO.N,GND*%
G36*
X165255431Y-72490013D02*
G01*
X165257374Y-72490064D01*
X165258671Y-72490191D01*
X165306582Y-72490191D01*
X165310114Y-72490241D01*
X165502557Y-72495638D01*
X165504754Y-72495719D01*
X165700066Y-72504760D01*
X165702270Y-72504882D01*
X165895977Y-72517363D01*
X165898114Y-72517501D01*
X165900374Y-72517667D01*
X166042724Y-72529413D01*
X166058710Y-72532001D01*
X166065169Y-72534578D01*
X166071564Y-72535205D01*
X166100369Y-72535205D01*
X166115002Y-72536058D01*
X166722497Y-72607095D01*
X166729049Y-72608037D01*
X166942664Y-72644503D01*
X167327203Y-72710148D01*
X167332346Y-72711136D01*
X167616887Y-72771978D01*
X167620414Y-72772785D01*
X167901048Y-72841272D01*
X167904649Y-72842208D01*
X168178320Y-72917623D01*
X168181990Y-72918694D01*
X168448827Y-73001015D01*
X168452561Y-73002231D01*
X168712414Y-73091356D01*
X168716206Y-73092725D01*
X168969068Y-73188599D01*
X168972908Y-73190128D01*
X169218732Y-73292676D01*
X169222595Y-73294363D01*
X169461425Y-73403555D01*
X169465294Y-73405404D01*
X169672627Y-73508957D01*
X169697036Y-73521148D01*
X169700956Y-73523193D01*
X169925656Y-73645462D01*
X169929558Y-73647677D01*
X169941759Y-73654895D01*
X170147081Y-73776356D01*
X170150971Y-73778754D01*
X170361448Y-73913875D01*
X170365324Y-73916467D01*
X170399058Y-73939937D01*
X170568658Y-74057935D01*
X170572435Y-74060669D01*
X170768683Y-74208491D01*
X170772457Y-74211448D01*
X170961564Y-74365561D01*
X170965277Y-74368709D01*
X171147198Y-74529050D01*
X171150800Y-74532351D01*
X171325638Y-74699001D01*
X171329130Y-74702463D01*
X171496842Y-74875385D01*
X171500230Y-74879019D01*
X171660746Y-75058144D01*
X171663997Y-75061919D01*
X171817379Y-75247337D01*
X171820478Y-75251238D01*
X171899690Y-75355095D01*
X171966691Y-75442943D01*
X171969593Y-75446907D01*
X172108627Y-75644934D01*
X172111360Y-75648995D01*
X172243118Y-75853266D01*
X172245697Y-75857440D01*
X172370210Y-76068082D01*
X172372593Y-76072296D01*
X172489783Y-76289275D01*
X172491989Y-76293554D01*
X172601788Y-76516853D01*
X172603804Y-76521156D01*
X172706170Y-76750827D01*
X172707996Y-76755136D01*
X172786275Y-76949911D01*
X172788961Y-76957849D01*
X172789816Y-76967720D01*
X172802789Y-76994259D01*
X172808918Y-77009140D01*
X172892245Y-77255040D01*
X172906471Y-77297020D01*
X172908955Y-77305270D01*
X172977262Y-77563825D01*
X173001546Y-77655746D01*
X173003179Y-77662725D01*
X173082192Y-78049944D01*
X173088977Y-78083198D01*
X173089962Y-78088628D01*
X173170554Y-78596152D01*
X173171121Y-78600136D01*
X173248178Y-79210680D01*
X173248501Y-79213494D01*
X173323948Y-79942935D01*
X173324132Y-79944854D01*
X173393213Y-80731037D01*
X173400063Y-80808998D01*
X173400165Y-80810230D01*
X173400741Y-80817661D01*
X173474588Y-81770715D01*
X173474582Y-81771304D01*
X173474195Y-81772640D01*
X173474529Y-81776497D01*
X173474529Y-81776500D01*
X173479255Y-81831059D01*
X173479348Y-81832203D01*
X173505031Y-82166670D01*
X173590444Y-83279031D01*
X173590631Y-83284692D01*
X173590713Y-83284689D01*
X173590831Y-83287762D01*
X173590798Y-83290843D01*
X173591066Y-83293908D01*
X173591066Y-83293911D01*
X173595302Y-83342385D01*
X173595410Y-83343707D01*
X173596317Y-83355518D01*
X173597404Y-83369676D01*
X173597792Y-83371129D01*
X173597861Y-83371670D01*
X173632940Y-83773074D01*
X173645216Y-83913552D01*
X173645674Y-83923734D01*
X173645693Y-83924099D01*
X173645702Y-83927172D01*
X173646011Y-83930227D01*
X173646011Y-83930234D01*
X173650835Y-83977985D01*
X173650994Y-83979677D01*
X173653208Y-84005007D01*
X173653720Y-84006850D01*
X173653829Y-84007621D01*
X173701422Y-84478703D01*
X173701333Y-84489140D01*
X173701949Y-84489126D01*
X173702097Y-84495550D01*
X173702467Y-84498594D01*
X173702467Y-84498601D01*
X173708073Y-84544781D01*
X173708352Y-84547290D01*
X173710771Y-84571241D01*
X173711560Y-84573936D01*
X173711780Y-84575327D01*
X173761911Y-84988364D01*
X173762092Y-85000128D01*
X173762397Y-85000112D01*
X173762724Y-85006530D01*
X173763178Y-85009560D01*
X173763180Y-85009584D01*
X173769820Y-85053936D01*
X173770291Y-85057410D01*
X173772289Y-85073876D01*
X173772290Y-85073882D01*
X173772989Y-85079638D01*
X173774135Y-85083280D01*
X173774571Y-85085664D01*
X173829238Y-85450841D01*
X173829862Y-85464023D01*
X173829853Y-85464067D01*
X173830411Y-85470469D01*
X173830974Y-85473483D01*
X173838888Y-85515851D01*
X173839641Y-85520332D01*
X173842691Y-85540705D01*
X173844276Y-85545291D01*
X173845100Y-85549106D01*
X173906225Y-85876340D01*
X173907398Y-85889769D01*
X173907214Y-85890977D01*
X173908050Y-85897347D01*
X173918124Y-85940693D01*
X173919251Y-85946077D01*
X173921670Y-85959029D01*
X173921674Y-85959042D01*
X173922738Y-85964740D01*
X173924812Y-85970106D01*
X173926289Y-85975829D01*
X173995739Y-86274673D01*
X173997566Y-86288267D01*
X173997356Y-86290310D01*
X173998504Y-86296632D01*
X173999343Y-86299577D01*
X174010380Y-86338338D01*
X174011927Y-86344327D01*
X174014641Y-86356009D01*
X174014643Y-86356016D01*
X174015955Y-86361661D01*
X174018280Y-86366973D01*
X174019204Y-86369758D01*
X174020800Y-86374937D01*
X174100601Y-86655203D01*
X174103116Y-86668758D01*
X174102997Y-86671060D01*
X174104464Y-86677316D01*
X174118313Y-86718001D01*
X174120216Y-86724096D01*
X174123413Y-86735323D01*
X174123415Y-86735328D01*
X174125004Y-86740909D01*
X174127589Y-86746106D01*
X174129040Y-86749853D01*
X174130824Y-86754757D01*
X174223442Y-87026860D01*
X174226593Y-87040156D01*
X174226586Y-87042041D01*
X174228351Y-87048220D01*
X174244373Y-87088797D01*
X174246441Y-87094430D01*
X174252257Y-87111515D01*
X174255098Y-87116567D01*
X174256027Y-87118647D01*
X174258179Y-87123764D01*
X174366667Y-87398527D01*
X174370332Y-87411394D01*
X174370366Y-87412285D01*
X174372386Y-87418384D01*
X174373633Y-87421195D01*
X174373638Y-87421208D01*
X174390629Y-87459508D01*
X174392644Y-87464316D01*
X174399790Y-87482415D01*
X174402710Y-87487071D01*
X174404967Y-87491829D01*
X174532519Y-87779362D01*
X174536429Y-87791377D01*
X174536536Y-87791338D01*
X174538755Y-87797368D01*
X174540090Y-87800129D01*
X174559160Y-87839581D01*
X174560894Y-87843325D01*
X174569538Y-87862811D01*
X174572052Y-87866473D01*
X174573547Y-87869344D01*
X174723275Y-88179097D01*
X174726971Y-88189461D01*
X174727416Y-88189285D01*
X174729776Y-88195261D01*
X174752090Y-88238786D01*
X174753386Y-88241391D01*
X174763544Y-88262406D01*
X174765474Y-88265028D01*
X174766345Y-88266593D01*
X174941616Y-88608483D01*
X174945279Y-88618080D01*
X174945880Y-88617829D01*
X174948353Y-88623760D01*
X174949806Y-88626466D01*
X174949810Y-88626474D01*
X174971923Y-88667649D01*
X174973043Y-88669782D01*
X174984112Y-88691375D01*
X174985747Y-88693491D01*
X174986400Y-88694608D01*
X175375148Y-89418491D01*
X175471705Y-89598290D01*
X175474367Y-89603807D01*
X175474417Y-89603782D01*
X175475767Y-89606540D01*
X175476985Y-89609370D01*
X175478471Y-89612063D01*
X175478479Y-89612080D01*
X175497517Y-89646590D01*
X175500391Y-89652118D01*
X175507218Y-89666083D01*
X175521010Y-89694297D01*
X175526126Y-89699043D01*
X175528446Y-89702651D01*
X175870833Y-90323271D01*
X175875485Y-90332596D01*
X175877135Y-90336277D01*
X175891832Y-90362009D01*
X175902281Y-90380303D01*
X175903194Y-90381929D01*
X175915384Y-90404024D01*
X175916716Y-90405644D01*
X175917184Y-90406395D01*
X176239349Y-90970434D01*
X176243489Y-90979980D01*
X176244052Y-90979714D01*
X176246797Y-90985525D01*
X176272282Y-91028140D01*
X176273500Y-91030224D01*
X176285476Y-91051192D01*
X176287286Y-91053327D01*
X176288043Y-91054496D01*
X176346450Y-91152163D01*
X176591374Y-91561720D01*
X176596048Y-91571861D01*
X176596444Y-91571662D01*
X176599329Y-91577404D01*
X176625366Y-91618629D01*
X176626929Y-91621174D01*
X176638810Y-91641041D01*
X176641034Y-91643562D01*
X176642103Y-91645133D01*
X176939481Y-92115998D01*
X176944574Y-92126347D01*
X176944888Y-92126179D01*
X176947924Y-92131842D01*
X176949639Y-92134405D01*
X176949640Y-92134406D01*
X176974716Y-92171872D01*
X176976537Y-92174672D01*
X176985572Y-92188977D01*
X176988668Y-92193879D01*
X176991150Y-92196557D01*
X176992446Y-92198362D01*
X177296789Y-92653075D01*
X177302093Y-92663179D01*
X177302428Y-92662988D01*
X177305609Y-92668571D01*
X177333572Y-92708105D01*
X177335347Y-92710684D01*
X177348081Y-92729710D01*
X177350569Y-92732256D01*
X177351844Y-92733937D01*
X177676349Y-93192717D01*
X177681602Y-93202168D01*
X177682053Y-93201898D01*
X177685358Y-93207408D01*
X177687187Y-93209875D01*
X177687191Y-93209881D01*
X177714611Y-93246866D01*
X177716266Y-93249150D01*
X177726521Y-93263650D01*
X177726525Y-93263655D01*
X177729875Y-93268391D01*
X177732099Y-93270551D01*
X177733130Y-93271845D01*
X178091414Y-93755118D01*
X178097110Y-93763486D01*
X178100241Y-93768510D01*
X178102118Y-93770952D01*
X178102121Y-93770957D01*
X178130855Y-93808349D01*
X178132165Y-93810085D01*
X178143432Y-93825284D01*
X178143437Y-93825290D01*
X178146842Y-93829883D01*
X178148615Y-93831530D01*
X178149326Y-93832387D01*
X178561204Y-94368388D01*
X178561693Y-94369057D01*
X178561994Y-94369539D01*
X178562996Y-94370839D01*
X178562998Y-94370842D01*
X178568132Y-94377504D01*
X178581526Y-94399077D01*
X178587394Y-94411081D01*
X178602892Y-94425458D01*
X178616999Y-94440916D01*
X179058565Y-95013908D01*
X179059533Y-95015182D01*
X179460759Y-95551054D01*
X179462126Y-95552917D01*
X179594897Y-95737454D01*
X179811413Y-96038389D01*
X179813171Y-96040897D01*
X180119984Y-96489971D01*
X180121988Y-96492996D01*
X180396182Y-96920245D01*
X180398259Y-96923596D01*
X180649768Y-97343863D01*
X180651696Y-97347198D01*
X180890561Y-97775785D01*
X180892139Y-97778711D01*
X181010701Y-98005816D01*
X181126851Y-98228302D01*
X181128338Y-98231244D01*
X181129786Y-98234206D01*
X181446034Y-98888626D01*
X181454240Y-98905607D01*
X181456449Y-98910437D01*
X181734512Y-99553960D01*
X181745922Y-99580366D01*
X181748072Y-99585670D01*
X181758210Y-99612413D01*
X182007793Y-100270776D01*
X182009702Y-100276179D01*
X182202433Y-100863917D01*
X182245171Y-100994249D01*
X182246728Y-100999361D01*
X182463138Y-101767970D01*
X182464322Y-101772497D01*
X182666630Y-102608910D01*
X182667483Y-102612688D01*
X182860505Y-103533752D01*
X182861095Y-103536746D01*
X183046460Y-104541946D01*
X183048079Y-104553922D01*
X183051233Y-104590331D01*
X183055731Y-104599532D01*
X183057668Y-104608357D01*
X183125471Y-105024106D01*
X183125936Y-105027196D01*
X183184623Y-105453321D01*
X183184968Y-105456051D01*
X183196787Y-105558346D01*
X183206173Y-105639586D01*
X183207675Y-105652590D01*
X183207895Y-105654637D01*
X183226586Y-105843428D01*
X183226788Y-105845679D01*
X183241332Y-106025398D01*
X183241508Y-106027869D01*
X183251950Y-106198602D01*
X183252087Y-106201317D01*
X183258490Y-106363297D01*
X183258572Y-106366275D01*
X183260549Y-106491032D01*
X183261000Y-106519528D01*
X183261010Y-106522776D01*
X183259666Y-106655760D01*
X183259547Y-106667534D01*
X183259459Y-106671114D01*
X183254206Y-106807357D01*
X183253995Y-106811268D01*
X183245063Y-106939357D01*
X183244693Y-106943621D01*
X183232229Y-107063510D01*
X183231660Y-107068140D01*
X183215813Y-107180094D01*
X183215002Y-107185097D01*
X183198247Y-107276735D01*
X183195329Y-107289122D01*
X183185473Y-107323156D01*
X183186297Y-107332666D01*
X183185101Y-107340317D01*
X183179164Y-107367865D01*
X183175955Y-107382751D01*
X183175388Y-107385255D01*
X183162353Y-107440142D01*
X183154689Y-107472412D01*
X183154040Y-107475018D01*
X183131935Y-107559895D01*
X183131230Y-107562483D01*
X183114527Y-107621214D01*
X183107739Y-107645082D01*
X183106912Y-107647868D01*
X183087955Y-107709121D01*
X183082031Y-107728260D01*
X183081123Y-107731074D01*
X183065838Y-107776607D01*
X183054870Y-107809280D01*
X183053855Y-107812185D01*
X183049996Y-107822812D01*
X183029252Y-107879944D01*
X183026222Y-107888288D01*
X183025136Y-107891167D01*
X183001804Y-107950720D01*
X182996119Y-107965231D01*
X182994898Y-107968233D01*
X182964530Y-108040233D01*
X182963200Y-108043273D01*
X182931472Y-108113289D01*
X182930055Y-108116309D01*
X182901695Y-108174660D01*
X182896935Y-108184454D01*
X182895383Y-108187538D01*
X182860892Y-108253819D01*
X182859243Y-108256884D01*
X182823846Y-108320505D01*
X182823360Y-108321378D01*
X182821582Y-108324469D01*
X182784327Y-108387182D01*
X182782439Y-108390260D01*
X182743742Y-108451344D01*
X182741746Y-108454395D01*
X182705288Y-108508421D01*
X182701145Y-108514201D01*
X182673702Y-108550291D01*
X182672328Y-108555036D01*
X182671051Y-108557162D01*
X182644617Y-108594512D01*
X182637176Y-108605026D01*
X182635739Y-108607014D01*
X182570536Y-108695440D01*
X182568767Y-108697781D01*
X182498462Y-108788529D01*
X182496447Y-108791061D01*
X182417957Y-108887169D01*
X182415917Y-108889603D01*
X182326172Y-108993960D01*
X182324254Y-108996138D01*
X182220375Y-109111298D01*
X182218632Y-109113191D01*
X182183027Y-109151029D01*
X182097771Y-109241631D01*
X182096219Y-109243250D01*
X181990788Y-109351295D01*
X181981541Y-109358697D01*
X181981671Y-109358841D01*
X181973051Y-109366657D01*
X181963148Y-109372761D01*
X181956106Y-109382021D01*
X181955296Y-109382756D01*
X181938240Y-109400830D01*
X181937107Y-109401800D01*
X181937104Y-109401804D01*
X181930000Y-109407886D01*
X181929225Y-109409323D01*
X181928239Y-109410184D01*
X181926782Y-109412951D01*
X181924217Y-109415285D01*
X181916756Y-109430185D01*
X181904394Y-109450027D01*
X181894306Y-109463293D01*
X181891511Y-109472943D01*
X181886568Y-109480342D01*
X181884021Y-109491692D01*
X181883170Y-109493678D01*
X181881759Y-109496601D01*
X181880553Y-109499598D01*
X181876026Y-109507995D01*
X181875802Y-109509764D01*
X181875247Y-109510817D01*
X181874902Y-109513768D01*
X181873293Y-109516981D01*
X181872395Y-109526312D01*
X181871697Y-109533559D01*
X181867304Y-109556534D01*
X181862670Y-109572538D01*
X181863563Y-109582852D01*
X181861664Y-109591315D01*
X181863374Y-109602820D01*
X181863329Y-109604038D01*
X181862965Y-109608491D01*
X181862927Y-109611227D01*
X181861709Y-109620824D01*
X181862165Y-109622670D01*
X181862035Y-109623780D01*
X181862745Y-109626541D01*
X181862394Y-109630191D01*
X181864911Y-109639204D01*
X181864911Y-109639207D01*
X181866874Y-109646237D01*
X181871047Y-109669253D01*
X181872484Y-109685847D01*
X181877118Y-109695327D01*
X181878379Y-109703813D01*
X181884118Y-109713934D01*
X181884322Y-109714528D01*
X181885436Y-109718304D01*
X181885459Y-109718355D01*
X181886478Y-109721151D01*
X181888969Y-109731242D01*
X181890101Y-109732860D01*
X181890375Y-109733926D01*
X181891993Y-109736192D01*
X181892982Y-109739734D01*
X181898573Y-109747234D01*
X181898573Y-109747235D01*
X181902939Y-109753092D01*
X181915113Y-109773057D01*
X181917321Y-109777574D01*
X181917323Y-109777577D01*
X181922431Y-109788026D01*
X181930217Y-109795249D01*
X181934471Y-109802752D01*
X181943470Y-109810130D01*
X181943805Y-109810528D01*
X181947003Y-109814691D01*
X181948598Y-109816500D01*
X181954153Y-109824443D01*
X181955803Y-109825553D01*
X181956468Y-109826484D01*
X181958781Y-109828008D01*
X181960953Y-109830921D01*
X181969347Y-109836207D01*
X181975055Y-109839802D01*
X181993601Y-109854046D01*
X181997283Y-109857462D01*
X181997285Y-109857463D01*
X182005813Y-109865374D01*
X182015621Y-109869287D01*
X182022422Y-109874863D01*
X182033473Y-109878507D01*
X182034193Y-109878902D01*
X182038284Y-109881396D01*
X182040601Y-109882602D01*
X182048518Y-109887929D01*
X182050414Y-109888361D01*
X182051450Y-109889043D01*
X182054201Y-109889641D01*
X182057194Y-109891526D01*
X182063369Y-109893302D01*
X182074260Y-109895311D01*
X182098089Y-109902189D01*
X182111449Y-109907519D01*
X182117844Y-109908146D01*
X182120929Y-109908146D01*
X182123787Y-109908286D01*
X182123993Y-109908354D01*
X182123992Y-109908374D01*
X182124070Y-109908379D01*
X182130435Y-109910478D01*
X182142054Y-109909899D01*
X182143655Y-109910116D01*
X182146289Y-109910593D01*
X182148286Y-109910653D01*
X182159411Y-109913187D01*
X182161234Y-109912922D01*
X182162585Y-109913216D01*
X182166945Y-109912539D01*
X182168691Y-109912725D01*
X182175565Y-109913993D01*
X182180389Y-109914981D01*
X182244004Y-109929321D01*
X182248350Y-109930382D01*
X182338171Y-109954033D01*
X182342931Y-109955387D01*
X182456523Y-109990121D01*
X182460282Y-109991336D01*
X182490800Y-110001725D01*
X182520814Y-110011943D01*
X182523487Y-110012887D01*
X182590142Y-110037271D01*
X182592888Y-110038312D01*
X182642819Y-110057928D01*
X182663265Y-110065960D01*
X182666150Y-110067135D01*
X182739744Y-110098168D01*
X182742730Y-110099473D01*
X182819166Y-110134059D01*
X182822250Y-110135505D01*
X182859481Y-110153580D01*
X182866778Y-110157641D01*
X182874027Y-110164366D01*
X182884832Y-110168677D01*
X182910435Y-110178892D01*
X182920080Y-110183217D01*
X183067890Y-110257102D01*
X183068323Y-110257319D01*
X183200373Y-110323980D01*
X183201888Y-110324759D01*
X183222113Y-110335347D01*
X183253702Y-110351885D01*
X183255747Y-110352979D01*
X183299888Y-110377134D01*
X183302717Y-110378731D01*
X183338907Y-110399799D01*
X183342644Y-110402065D01*
X183349659Y-110406489D01*
X183371417Y-110420211D01*
X183376096Y-110423310D01*
X183400937Y-110440569D01*
X183404891Y-110443430D01*
X183408328Y-110446022D01*
X183412019Y-110448805D01*
X183414810Y-110450972D01*
X183423098Y-110457594D01*
X183425914Y-110459912D01*
X183433491Y-110466339D01*
X183436348Y-110468839D01*
X183443422Y-110475219D01*
X183446231Y-110477831D01*
X183453054Y-110484372D01*
X183455790Y-110487076D01*
X183462692Y-110494110D01*
X183465230Y-110496775D01*
X183472407Y-110504538D01*
X183474811Y-110507215D01*
X183482320Y-110515822D01*
X183484516Y-110518409D01*
X183488603Y-110523360D01*
X183492642Y-110528253D01*
X183494650Y-110530750D01*
X183501948Y-110540066D01*
X183504534Y-110543487D01*
X183514593Y-110557279D01*
X183525963Y-110572869D01*
X183528737Y-110576830D01*
X183538816Y-110591827D01*
X183547438Y-110606776D01*
X183554421Y-110621061D01*
X183554424Y-110621065D01*
X183559531Y-110631513D01*
X183567186Y-110638614D01*
X183576228Y-110653031D01*
X183582442Y-110664920D01*
X183584751Y-110669339D01*
X183588104Y-110676264D01*
X183598906Y-110700424D01*
X183601724Y-110707257D01*
X183611390Y-110732799D01*
X183613668Y-110739360D01*
X183615334Y-110744622D01*
X183622400Y-110766949D01*
X183624184Y-110773132D01*
X183632025Y-110803159D01*
X183633363Y-110808812D01*
X183640347Y-110841723D01*
X183641317Y-110846811D01*
X183647431Y-110882863D01*
X183648106Y-110887324D01*
X183653341Y-110926699D01*
X183653788Y-110930504D01*
X183654150Y-110934052D01*
X183657855Y-110970325D01*
X183657938Y-110971142D01*
X183658310Y-110975554D01*
X183664251Y-111064737D01*
X183664915Y-111074701D01*
X183665110Y-111078494D01*
X183666446Y-111115290D01*
X183669086Y-111188024D01*
X183669133Y-111189555D01*
X183670077Y-111228891D01*
X183670635Y-111252158D01*
X183669706Y-111266531D01*
X183668561Y-111270314D01*
X183668531Y-111272820D01*
X183668170Y-111274065D01*
X183669175Y-111285666D01*
X183671967Y-111317907D01*
X183672401Y-111325754D01*
X183672745Y-111340082D01*
X183673945Y-111345762D01*
X183674617Y-111351528D01*
X183674549Y-111351536D01*
X183675346Y-111356909D01*
X183677117Y-111377374D01*
X183677097Y-111377475D01*
X183677126Y-111377473D01*
X183680221Y-111413549D01*
X183679979Y-111424318D01*
X183680512Y-111424313D01*
X183680576Y-111430738D01*
X183680907Y-111433797D01*
X183680907Y-111433802D01*
X183685859Y-111479606D01*
X183686128Y-111482378D01*
X183688149Y-111505934D01*
X183688967Y-111508893D01*
X183689200Y-111510515D01*
X183695117Y-111565250D01*
X183695112Y-111576036D01*
X183695644Y-111576019D01*
X183695850Y-111582442D01*
X183696249Y-111585497D01*
X183696249Y-111585498D01*
X183702212Y-111631165D01*
X183702543Y-111633935D01*
X183705083Y-111657435D01*
X183705968Y-111660383D01*
X183706238Y-111662006D01*
X183712829Y-111712483D01*
X183713074Y-111723469D01*
X183713557Y-111723442D01*
X183713913Y-111729858D01*
X183714383Y-111732905D01*
X183714384Y-111732911D01*
X183721377Y-111778213D01*
X183721791Y-111781119D01*
X183724813Y-111804262D01*
X183725812Y-111807339D01*
X183726144Y-111809087D01*
X183732969Y-111853301D01*
X183733505Y-111864735D01*
X183733881Y-111864704D01*
X183734404Y-111871108D01*
X183735801Y-111878820D01*
X183743013Y-111918649D01*
X183743555Y-111921876D01*
X183745517Y-111934582D01*
X183747034Y-111944412D01*
X183748220Y-111947794D01*
X183748668Y-111949870D01*
X183753780Y-111978102D01*
X183755193Y-111985904D01*
X183756118Y-111998171D01*
X183756303Y-111998150D01*
X183757023Y-112004535D01*
X183757666Y-112007550D01*
X183757667Y-112007558D01*
X183766878Y-112050767D01*
X183767630Y-112054581D01*
X183771504Y-112075972D01*
X183772997Y-112079901D01*
X183773690Y-112082724D01*
X183779244Y-112108772D01*
X183780711Y-112122004D01*
X183780637Y-112122567D01*
X183781131Y-112125796D01*
X183781143Y-112125880D01*
X183781145Y-112125890D01*
X183781608Y-112128918D01*
X183792339Y-112171041D01*
X183792824Y-112172944D01*
X183793955Y-112177781D01*
X183796890Y-112191552D01*
X183796892Y-112191559D01*
X183798102Y-112197234D01*
X183800122Y-112202091D01*
X183801394Y-112206583D01*
X183804607Y-112219197D01*
X183806587Y-112232331D01*
X183806539Y-112232854D01*
X183807115Y-112235834D01*
X183807116Y-112235842D01*
X183807174Y-112236142D01*
X183807758Y-112239163D01*
X183808634Y-112242114D01*
X183808635Y-112242118D01*
X183818031Y-112273770D01*
X183820396Y-112286341D01*
X183820478Y-112286322D01*
X183821908Y-112292587D01*
X183822884Y-112295511D01*
X183822887Y-112295522D01*
X183832703Y-112324933D01*
X183835836Y-112338404D01*
X183835821Y-112340802D01*
X183837570Y-112346985D01*
X183838693Y-112349851D01*
X183839676Y-112352772D01*
X183839565Y-112352809D01*
X183841265Y-112357902D01*
X183842210Y-112368811D01*
X183847319Y-112379261D01*
X183847319Y-112379263D01*
X183855262Y-112395511D01*
X183857411Y-112400144D01*
X183859058Y-112403891D01*
X183860896Y-112409399D01*
X183863711Y-112414476D01*
X183865503Y-112418553D01*
X183867468Y-112423281D01*
X183884394Y-112466473D01*
X183896879Y-112498334D01*
X183900931Y-112512168D01*
X183901149Y-112516104D01*
X183903276Y-112522168D01*
X183904570Y-112524953D01*
X183904578Y-112524972D01*
X183920411Y-112559042D01*
X183923460Y-112566168D01*
X183926854Y-112574830D01*
X183926858Y-112574839D01*
X183928973Y-112580235D01*
X183932042Y-112585156D01*
X183934649Y-112590346D01*
X183934591Y-112590375D01*
X183937285Y-112595351D01*
X183973155Y-112672534D01*
X183977988Y-112685966D01*
X183978402Y-112689557D01*
X183980885Y-112695484D01*
X183982340Y-112698183D01*
X184000401Y-112731687D01*
X184003747Y-112738361D01*
X184010319Y-112752503D01*
X184013690Y-112757233D01*
X184016610Y-112762250D01*
X184016519Y-112762303D01*
X184019404Y-112766940D01*
X184043617Y-112811854D01*
X184061520Y-112845066D01*
X184067056Y-112858036D01*
X184067605Y-112861203D01*
X184070420Y-112866979D01*
X184072029Y-112869596D01*
X184072030Y-112869599D01*
X184092260Y-112902516D01*
X184095805Y-112908668D01*
X184103496Y-112922934D01*
X184107138Y-112927451D01*
X184110353Y-112932290D01*
X184110221Y-112932377D01*
X184113224Y-112936627D01*
X184161997Y-113015986D01*
X184168164Y-113028481D01*
X184168775Y-113031150D01*
X184171894Y-113036768D01*
X184173641Y-113039296D01*
X184195983Y-113071633D01*
X184199663Y-113077276D01*
X184204890Y-113085780D01*
X184208489Y-113091635D01*
X184212377Y-113095935D01*
X184215858Y-113100579D01*
X184215696Y-113100701D01*
X184218744Y-113104574D01*
X184274600Y-113185413D01*
X184281328Y-113197432D01*
X184281932Y-113199571D01*
X184285329Y-113205026D01*
X184287202Y-113207465D01*
X184287206Y-113207471D01*
X184311577Y-113239209D01*
X184315303Y-113244322D01*
X184321987Y-113253996D01*
X184325290Y-113258776D01*
X184329411Y-113262870D01*
X184331776Y-113265696D01*
X184335066Y-113269800D01*
X184344810Y-113282490D01*
X184399371Y-113353548D01*
X184406578Y-113365072D01*
X184407115Y-113366682D01*
X184410764Y-113371972D01*
X184412744Y-113374316D01*
X184412746Y-113374318D01*
X184439070Y-113405474D01*
X184442762Y-113410057D01*
X184453918Y-113424586D01*
X184458237Y-113428465D01*
X184459247Y-113429556D01*
X184463035Y-113433839D01*
X184536341Y-113520602D01*
X184543980Y-113531678D01*
X184544392Y-113532755D01*
X184548265Y-113537882D01*
X184550357Y-113540152D01*
X184550365Y-113540161D01*
X184578508Y-113570691D01*
X184582101Y-113574762D01*
X184594415Y-113589336D01*
X184598827Y-113592942D01*
X184602843Y-113597090D01*
X184685599Y-113686866D01*
X184693609Y-113697506D01*
X184693856Y-113698081D01*
X184697930Y-113703050D01*
X184729985Y-113735161D01*
X184733439Y-113738762D01*
X184742932Y-113749062D01*
X184742939Y-113749068D01*
X184746870Y-113753333D01*
X184751117Y-113756507D01*
X184754588Y-113759808D01*
X184847249Y-113852634D01*
X184855581Y-113862864D01*
X184855630Y-113862968D01*
X184857095Y-113864627D01*
X184857835Y-113865466D01*
X184857841Y-113865472D01*
X184859883Y-113867785D01*
X184862141Y-113869887D01*
X184862146Y-113869893D01*
X184893601Y-113899186D01*
X184896902Y-113902374D01*
X184911404Y-113916901D01*
X184915440Y-113919674D01*
X184918428Y-113922305D01*
X185021411Y-114018210D01*
X185029797Y-114027805D01*
X185029864Y-114027742D01*
X185034275Y-114032415D01*
X185036613Y-114034451D01*
X185036616Y-114034454D01*
X185069530Y-114063118D01*
X185072647Y-114065925D01*
X185088162Y-114080373D01*
X185091971Y-114082791D01*
X185094572Y-114084925D01*
X185163380Y-114144847D01*
X185208249Y-114183922D01*
X185216583Y-114192865D01*
X185216728Y-114192719D01*
X185221279Y-114197256D01*
X185223659Y-114199205D01*
X185223667Y-114199212D01*
X185257978Y-114227306D01*
X185260859Y-114229739D01*
X185277332Y-114244084D01*
X185280904Y-114246188D01*
X185283124Y-114247895D01*
X185323037Y-114280575D01*
X185407947Y-114350100D01*
X185416199Y-114358453D01*
X185416413Y-114358226D01*
X185421087Y-114362635D01*
X185445432Y-114381469D01*
X185459028Y-114391987D01*
X185461753Y-114394156D01*
X185474623Y-114404694D01*
X185474626Y-114404696D01*
X185479107Y-114408365D01*
X185482434Y-114410191D01*
X185484369Y-114411591D01*
X185620695Y-114517054D01*
X185628843Y-114524880D01*
X185629119Y-114524572D01*
X185633903Y-114528863D01*
X185660406Y-114548322D01*
X185673006Y-114557573D01*
X185675528Y-114559474D01*
X185693707Y-114573537D01*
X185696792Y-114575121D01*
X185698459Y-114576261D01*
X185778478Y-114635011D01*
X185811908Y-114659555D01*
X185846691Y-114685093D01*
X185854733Y-114692455D01*
X185855062Y-114692070D01*
X185856544Y-114693339D01*
X185859942Y-114696250D01*
X185900143Y-114724378D01*
X185902445Y-114726028D01*
X185921361Y-114739916D01*
X185924209Y-114741289D01*
X185925640Y-114742218D01*
X186086168Y-114854537D01*
X186094088Y-114861476D01*
X186094464Y-114861019D01*
X186099430Y-114865097D01*
X186140587Y-114892644D01*
X186142631Y-114894043D01*
X186162304Y-114907808D01*
X186164926Y-114908999D01*
X186166174Y-114909771D01*
X186345138Y-115029555D01*
X186347862Y-115031466D01*
X186349494Y-115032793D01*
X186364888Y-115042985D01*
X186381014Y-115055665D01*
X186397037Y-115070528D01*
X186408778Y-115075212D01*
X186431641Y-115087178D01*
X186572830Y-115180654D01*
X186573769Y-115181283D01*
X186663230Y-115241903D01*
X186734856Y-115290438D01*
X186736248Y-115291395D01*
X186882209Y-115393183D01*
X186883915Y-115394394D01*
X187015297Y-115489295D01*
X187017356Y-115490814D01*
X187134678Y-115579240D01*
X187137115Y-115581124D01*
X187218153Y-115645402D01*
X187240920Y-115663460D01*
X187243805Y-115665818D01*
X187263003Y-115681997D01*
X187334724Y-115742439D01*
X187338083Y-115745374D01*
X187416702Y-115816538D01*
X187420495Y-115820118D01*
X187463583Y-115862510D01*
X187487626Y-115886166D01*
X187491848Y-115890525D01*
X187548387Y-115951784D01*
X187552921Y-115956975D01*
X187600046Y-116013998D01*
X187604715Y-116020009D01*
X187643733Y-116073522D01*
X187648344Y-116080299D01*
X187672306Y-116118116D01*
X187680715Y-116131388D01*
X187685040Y-116138757D01*
X187706243Y-116177859D01*
X187712222Y-116188885D01*
X187716045Y-116196544D01*
X187739350Y-116247505D01*
X187742523Y-116255089D01*
X187748330Y-116270350D01*
X187751985Y-116281486D01*
X187752595Y-116283685D01*
X187753599Y-116295279D01*
X187766060Y-116320772D01*
X187772397Y-116336277D01*
X187782591Y-116366897D01*
X187783625Y-116370153D01*
X187797111Y-116414731D01*
X187797773Y-116416921D01*
X187798987Y-116421207D01*
X187809509Y-116461017D01*
X187810798Y-116466364D01*
X187818019Y-116499497D01*
X187819245Y-116505929D01*
X187823664Y-116532937D01*
X187824667Y-116540498D01*
X187826893Y-116562326D01*
X187827468Y-116570768D01*
X187828091Y-116588842D01*
X187828079Y-116597857D01*
X187827476Y-116614101D01*
X187826804Y-116623233D01*
X187824987Y-116639716D01*
X187823701Y-116648516D01*
X187820278Y-116667276D01*
X187818528Y-116675356D01*
X187812824Y-116698062D01*
X187810818Y-116705160D01*
X187802050Y-116733043D01*
X187799998Y-116739037D01*
X187787465Y-116772850D01*
X187785538Y-116777736D01*
X187768721Y-116817887D01*
X187767023Y-116821757D01*
X187745915Y-116867760D01*
X187745592Y-116868463D01*
X187744190Y-116871414D01*
X187738723Y-116882553D01*
X187734703Y-116890744D01*
X187721891Y-116911492D01*
X187719778Y-116914270D01*
X187719777Y-116914272D01*
X187712738Y-116923529D01*
X187709503Y-116934701D01*
X187709263Y-116935530D01*
X187697895Y-116962535D01*
X187686885Y-116981991D01*
X187684809Y-116985524D01*
X187669733Y-117010253D01*
X187667543Y-117013717D01*
X187651599Y-117038052D01*
X187649310Y-117041426D01*
X187632296Y-117065647D01*
X187629963Y-117068858D01*
X187611762Y-117093080D01*
X187609418Y-117096100D01*
X187590031Y-117120279D01*
X187587599Y-117123219D01*
X187577284Y-117135303D01*
X187566837Y-117147543D01*
X187564364Y-117150355D01*
X187552976Y-117162921D01*
X187542111Y-117174909D01*
X187539684Y-117177511D01*
X187515767Y-117202424D01*
X187513397Y-117204824D01*
X187502516Y-117215551D01*
X187487802Y-117230054D01*
X187485423Y-117232338D01*
X187473564Y-117243431D01*
X187458027Y-117257963D01*
X187455761Y-117260031D01*
X187432028Y-117281141D01*
X187426386Y-117286159D01*
X187424145Y-117288105D01*
X187392782Y-117314704D01*
X187390667Y-117316459D01*
X187357256Y-117343540D01*
X187355205Y-117345167D01*
X187345261Y-117352890D01*
X187334941Y-117360905D01*
X187323775Y-117368648D01*
X187294905Y-117386444D01*
X187288259Y-117395184D01*
X187280048Y-117401895D01*
X187039530Y-117578673D01*
X187036964Y-117580511D01*
X186717000Y-117803550D01*
X186715035Y-117804892D01*
X186368970Y-118036392D01*
X186367205Y-118037551D01*
X186011499Y-118266967D01*
X186009730Y-118268087D01*
X185660656Y-118485097D01*
X185658645Y-118486321D01*
X185334522Y-118679460D01*
X185332866Y-118680447D01*
X185330187Y-118681999D01*
X185323356Y-118685845D01*
X185045377Y-118842345D01*
X185041121Y-118844635D01*
X184851380Y-118942071D01*
X184842527Y-118946039D01*
X184832136Y-118947974D01*
X184822235Y-118954077D01*
X184803189Y-118965817D01*
X184791301Y-118972291D01*
X184538356Y-119092886D01*
X183499879Y-119587994D01*
X183495270Y-119590079D01*
X183493267Y-119590937D01*
X183490381Y-119592010D01*
X183487726Y-119593305D01*
X183483759Y-119594919D01*
X183475339Y-119598168D01*
X183463903Y-119600298D01*
X183434950Y-119618145D01*
X183423060Y-119624619D01*
X183418697Y-119626699D01*
X183417676Y-119627441D01*
X183417288Y-119627651D01*
X183355303Y-119657876D01*
X183230295Y-119718832D01*
X183220777Y-119722239D01*
X183221031Y-119722885D01*
X183215050Y-119725233D01*
X183170421Y-119748006D01*
X183168433Y-119748997D01*
X183146445Y-119759719D01*
X183144404Y-119761232D01*
X183143360Y-119761814D01*
X182963125Y-119853782D01*
X182953494Y-119857426D01*
X182953744Y-119858028D01*
X182947809Y-119860492D01*
X182945107Y-119861937D01*
X182945097Y-119861942D01*
X182919103Y-119875846D01*
X182903923Y-119883966D01*
X182901852Y-119885048D01*
X182880190Y-119896101D01*
X182878045Y-119897753D01*
X182876905Y-119898416D01*
X182802517Y-119938204D01*
X182703407Y-119991214D01*
X182693678Y-119995124D01*
X182693920Y-119995675D01*
X182688037Y-119998259D01*
X182685360Y-119999762D01*
X182644819Y-120022522D01*
X182642563Y-120023758D01*
X182621436Y-120035058D01*
X182619214Y-120036837D01*
X182617992Y-120037582D01*
X182450505Y-120131610D01*
X182440711Y-120135785D01*
X182440949Y-120136297D01*
X182435122Y-120139006D01*
X182402202Y-120158424D01*
X182392644Y-120164062D01*
X182390321Y-120165399D01*
X182369562Y-120177053D01*
X182367279Y-120178959D01*
X182365976Y-120179791D01*
X182203821Y-120275438D01*
X182193995Y-120279881D01*
X182194230Y-120280359D01*
X182188465Y-120283196D01*
X182169619Y-120294882D01*
X182146648Y-120309126D01*
X182144308Y-120310542D01*
X182123956Y-120322546D01*
X182121636Y-120324568D01*
X182120299Y-120325464D01*
X181962746Y-120423159D01*
X181952928Y-120427864D01*
X181953165Y-120428318D01*
X181947465Y-120431285D01*
X181944876Y-120432973D01*
X181906416Y-120458049D01*
X181903999Y-120459586D01*
X181888949Y-120468918D01*
X181888944Y-120468922D01*
X181884012Y-120471980D01*
X181881677Y-120474109D01*
X181880293Y-120475081D01*
X181726685Y-120575233D01*
X181716927Y-120580192D01*
X181717164Y-120580623D01*
X181711534Y-120583722D01*
X181708997Y-120585461D01*
X181671174Y-120611386D01*
X181668757Y-120613002D01*
X181649129Y-120625800D01*
X181646817Y-120628006D01*
X181645397Y-120629053D01*
X181495052Y-120732105D01*
X181485391Y-120737297D01*
X181485636Y-120737719D01*
X181482743Y-120739400D01*
X181482738Y-120739403D01*
X181480080Y-120740948D01*
X181440324Y-120769580D01*
X181438035Y-120771189D01*
X181418707Y-120784436D01*
X181416427Y-120786714D01*
X181415025Y-120787799D01*
X181267274Y-120894207D01*
X181257737Y-120899623D01*
X181257993Y-120900041D01*
X181252514Y-120903397D01*
X181250057Y-120905255D01*
X181250043Y-120905264D01*
X181213440Y-120932935D01*
X181211093Y-120934667D01*
X181196863Y-120944915D01*
X181196857Y-120944920D01*
X181192146Y-120948313D01*
X181189927Y-120950636D01*
X181188567Y-120951740D01*
X181142684Y-120986426D01*
X181042725Y-121061993D01*
X181033367Y-121067596D01*
X181033639Y-121068018D01*
X181028238Y-121071499D01*
X180991715Y-121100446D01*
X180989815Y-121101952D01*
X180987565Y-121103694D01*
X180968844Y-121117846D01*
X180966700Y-121120198D01*
X180965410Y-121121294D01*
X180820839Y-121235877D01*
X180811681Y-121241645D01*
X180811975Y-121242079D01*
X180806653Y-121245679D01*
X180804282Y-121247646D01*
X180804278Y-121247649D01*
X180768835Y-121277053D01*
X180766650Y-121278824D01*
X180752747Y-121289843D01*
X180752743Y-121289847D01*
X180748193Y-121293453D01*
X180746154Y-121295794D01*
X180744916Y-121296897D01*
X180600995Y-121416295D01*
X180592073Y-121422192D01*
X180592393Y-121422644D01*
X180589653Y-121424585D01*
X180589647Y-121424590D01*
X180587150Y-121426359D01*
X180584828Y-121428372D01*
X180584820Y-121428378D01*
X180549947Y-121458605D01*
X180547872Y-121460366D01*
X180537504Y-121468968D01*
X180529580Y-121475542D01*
X180527653Y-121477857D01*
X180526500Y-121478930D01*
X180412213Y-121577994D01*
X180382590Y-121603671D01*
X180373924Y-121609667D01*
X180374274Y-121610140D01*
X180369110Y-121613963D01*
X180366830Y-121616024D01*
X180366821Y-121616031D01*
X180332417Y-121647125D01*
X180330484Y-121648837D01*
X180312381Y-121664528D01*
X180310579Y-121666791D01*
X180309526Y-121667813D01*
X180165014Y-121798417D01*
X180156608Y-121804491D01*
X180156994Y-121804991D01*
X180154343Y-121807034D01*
X180154336Y-121807040D01*
X180151905Y-121808914D01*
X180149669Y-121811016D01*
X180149654Y-121811029D01*
X180115685Y-121842966D01*
X180113862Y-121844646D01*
X180100274Y-121856927D01*
X180100270Y-121856932D01*
X180095965Y-121860822D01*
X180094300Y-121863005D01*
X180093338Y-121863977D01*
X179947616Y-122000981D01*
X179939489Y-122007099D01*
X179939910Y-122007625D01*
X179937300Y-122009715D01*
X179937293Y-122009721D01*
X179934895Y-122011642D01*
X179932690Y-122013793D01*
X179932686Y-122013797D01*
X179899161Y-122046508D01*
X179897474Y-122048124D01*
X179894925Y-122050521D01*
X179879692Y-122064842D01*
X179878156Y-122066940D01*
X179877314Y-122067824D01*
X179724170Y-122217247D01*
X179722135Y-122219146D01*
X179720723Y-122220287D01*
X179717145Y-122223809D01*
X179701609Y-122235989D01*
X179697719Y-122239516D01*
X179687815Y-122245621D01*
X179680772Y-122254883D01*
X179680771Y-122254884D01*
X179671961Y-122266470D01*
X179660050Y-122280003D01*
X179493784Y-122443649D01*
X179476302Y-122460855D01*
X179475308Y-122461822D01*
X179434470Y-122501115D01*
X179287032Y-122642975D01*
X179285645Y-122644290D01*
X179112159Y-122806216D01*
X179110325Y-122807894D01*
X178986570Y-122918918D01*
X178950229Y-122951520D01*
X178947905Y-122953554D01*
X178799563Y-123080089D01*
X178796648Y-123082499D01*
X178682496Y-123173941D01*
X178658710Y-123192995D01*
X178655020Y-123195840D01*
X178525920Y-123291618D01*
X178521507Y-123294746D01*
X178415892Y-123366230D01*
X178399417Y-123377381D01*
X178394241Y-123380703D01*
X178277157Y-123451874D01*
X178271366Y-123455187D01*
X178156991Y-123516668D01*
X178150801Y-123519779D01*
X178036378Y-123573394D01*
X178030130Y-123576116D01*
X177912868Y-123623447D01*
X177906793Y-123625719D01*
X177783727Y-123668169D01*
X177778186Y-123669938D01*
X177750538Y-123678068D01*
X177646700Y-123708601D01*
X177641943Y-123709900D01*
X177583915Y-123724510D01*
X177499530Y-123745756D01*
X177495631Y-123746672D01*
X177345336Y-123779471D01*
X177339397Y-123780618D01*
X177241271Y-123797144D01*
X177234964Y-123798043D01*
X177111920Y-123812418D01*
X177107544Y-123812851D01*
X177054390Y-123817175D01*
X176960398Y-123824822D01*
X176957076Y-123825048D01*
X176793171Y-123834031D01*
X176789346Y-123834183D01*
X176673222Y-123837013D01*
X176416363Y-123843273D01*
X176412332Y-123843306D01*
X176015398Y-123840140D01*
X176011663Y-123840055D01*
X175989543Y-123839222D01*
X175617143Y-123825194D01*
X175612989Y-123824968D01*
X175247243Y-123799077D01*
X175243266Y-123798733D01*
X175084994Y-123782476D01*
X175081480Y-123782065D01*
X174941442Y-123763695D01*
X174936697Y-123762980D01*
X174846469Y-123747629D01*
X174822748Y-123743593D01*
X174815805Y-123742210D01*
X174749810Y-123727111D01*
X174731226Y-123721316D01*
X174721313Y-123717361D01*
X174717489Y-123715835D01*
X174717487Y-123715835D01*
X174709232Y-123712541D01*
X174702837Y-123711914D01*
X174701373Y-123711914D01*
X174698208Y-123711144D01*
X174675880Y-123707471D01*
X174629959Y-123694404D01*
X174626905Y-123693493D01*
X174532335Y-123663963D01*
X174529181Y-123662932D01*
X174437536Y-123631643D01*
X174434305Y-123630490D01*
X174345478Y-123597437D01*
X174342177Y-123596156D01*
X174256111Y-123561347D01*
X174252747Y-123559929D01*
X174169418Y-123523383D01*
X174166005Y-123521826D01*
X174155136Y-123516668D01*
X174085305Y-123483528D01*
X174081927Y-123481861D01*
X174003838Y-123441834D01*
X174000376Y-123439990D01*
X173924865Y-123398250D01*
X173921395Y-123396259D01*
X173848380Y-123352794D01*
X173844913Y-123350653D01*
X173774289Y-123305431D01*
X173770813Y-123303123D01*
X173731970Y-123276397D01*
X173702545Y-123256150D01*
X173699146Y-123253727D01*
X173633091Y-123204930D01*
X173629704Y-123202338D01*
X173572532Y-123157024D01*
X173565897Y-123151765D01*
X173562576Y-123149039D01*
X173500893Y-123096616D01*
X173497643Y-123093756D01*
X173437015Y-123038532D01*
X173436168Y-123037753D01*
X173432820Y-123034647D01*
X173432016Y-123033895D01*
X173133136Y-122751720D01*
X173124441Y-122741685D01*
X173124259Y-122741329D01*
X173119857Y-122736648D01*
X173085455Y-122706577D01*
X173081881Y-122703329D01*
X173069412Y-122691557D01*
X173067266Y-122689531D01*
X173066331Y-122688928D01*
X173066225Y-122688838D01*
X173048335Y-122672243D01*
X173048334Y-122672242D01*
X173044288Y-122668489D01*
X173042599Y-122667815D01*
X173039164Y-122665164D01*
X173036533Y-122662708D01*
X173033777Y-122660055D01*
X173016433Y-122642838D01*
X173013959Y-122640309D01*
X172997994Y-122623519D01*
X172996527Y-122621976D01*
X172994240Y-122619506D01*
X172976669Y-122599999D01*
X172974596Y-122597638D01*
X172971324Y-122593817D01*
X172957011Y-122577101D01*
X172955155Y-122574882D01*
X172937477Y-122553235D01*
X172935821Y-122551161D01*
X172918140Y-122528529D01*
X172916617Y-122526540D01*
X172898952Y-122502974D01*
X172897585Y-122501115D01*
X172886211Y-122485348D01*
X172880890Y-122477971D01*
X172879149Y-122475493D01*
X172842897Y-122422567D01*
X172840998Y-122419711D01*
X172806086Y-122365606D01*
X172804630Y-122363295D01*
X172796292Y-122349737D01*
X172789334Y-122334477D01*
X172788866Y-122334700D01*
X172785038Y-122326676D01*
X172782374Y-122318189D01*
X172778820Y-122312835D01*
X172776886Y-122310462D01*
X172776881Y-122310455D01*
X172762501Y-122292810D01*
X172759368Y-122288803D01*
X172756314Y-122284730D01*
X172753271Y-122279782D01*
X172741492Y-122266765D01*
X172737267Y-122261846D01*
X172206733Y-121610836D01*
X172197224Y-121595975D01*
X172193067Y-121590377D01*
X172187959Y-121579928D01*
X172172122Y-121565237D01*
X172158262Y-121550098D01*
X172150470Y-121540053D01*
X172150466Y-121540049D01*
X172145018Y-121533026D01*
X172139823Y-121529244D01*
X172137177Y-121527689D01*
X172137170Y-121527684D01*
X172133874Y-121525747D01*
X172114870Y-121511608D01*
X172113109Y-121510494D01*
X172104577Y-121502580D01*
X172098004Y-121499958D01*
X172092601Y-121495380D01*
X172081612Y-121491559D01*
X172076598Y-121488697D01*
X172067008Y-121484372D01*
X172064628Y-121483032D01*
X172062035Y-121481401D01*
X172059290Y-121480028D01*
X172059285Y-121480025D01*
X172040919Y-121470837D01*
X172029752Y-121463760D01*
X172029666Y-121463670D01*
X172028192Y-121462816D01*
X172026770Y-121461992D01*
X172026765Y-121461990D01*
X172024106Y-121460449D01*
X172010200Y-121454117D01*
X172004149Y-121451362D01*
X171992691Y-121444685D01*
X171992439Y-121444442D01*
X171990616Y-121443476D01*
X171990603Y-121443469D01*
X171989483Y-121442876D01*
X171989474Y-121442872D01*
X171986761Y-121441435D01*
X171967912Y-121433704D01*
X171956184Y-121427463D01*
X171955810Y-121427128D01*
X171950019Y-121424345D01*
X171947133Y-121423290D01*
X171947122Y-121423286D01*
X171932239Y-121417849D01*
X171920266Y-121412066D01*
X171919849Y-121411721D01*
X171913952Y-121409167D01*
X171897213Y-121403786D01*
X171885043Y-121398481D01*
X171884673Y-121398199D01*
X171882038Y-121397177D01*
X171881560Y-121396991D01*
X171881552Y-121396988D01*
X171878682Y-121395875D01*
X171862994Y-121391494D01*
X171850658Y-121386666D01*
X171850465Y-121386530D01*
X171849142Y-121386073D01*
X171849135Y-121386070D01*
X171847294Y-121385434D01*
X171844392Y-121384431D01*
X171829725Y-121380920D01*
X171817414Y-121376608D01*
X171817405Y-121376636D01*
X171814206Y-121375654D01*
X171814202Y-121375653D01*
X171811263Y-121374751D01*
X171797653Y-121371992D01*
X171785783Y-121368274D01*
X171785742Y-121368425D01*
X171779543Y-121366736D01*
X171776507Y-121366220D01*
X171776498Y-121366218D01*
X171766986Y-121364601D01*
X171755707Y-121361433D01*
X171755632Y-121361740D01*
X171752371Y-121360947D01*
X171752369Y-121360947D01*
X171749389Y-121360222D01*
X171736796Y-121358437D01*
X171724862Y-121355456D01*
X171724823Y-121355641D01*
X171721544Y-121354950D01*
X171721545Y-121354950D01*
X171718536Y-121354316D01*
X171715478Y-121353978D01*
X171715476Y-121353978D01*
X171705061Y-121352828D01*
X171687726Y-121350914D01*
X171680437Y-121349892D01*
X171678311Y-121349531D01*
X171675659Y-121348860D01*
X171675637Y-121348976D01*
X171672343Y-121348355D01*
X171672337Y-121348354D01*
X171669322Y-121347786D01*
X171666263Y-121347515D01*
X171666259Y-121347514D01*
X171662768Y-121347204D01*
X171648835Y-121345968D01*
X171648842Y-121345887D01*
X171645173Y-121344613D01*
X171645082Y-121345636D01*
X171636843Y-121344905D01*
X171626020Y-121342755D01*
X171625943Y-121343225D01*
X171619602Y-121342184D01*
X171618945Y-121342141D01*
X171611835Y-121340875D01*
X171606308Y-121338670D01*
X171599913Y-121338043D01*
X171565079Y-121338043D01*
X171553944Y-121337550D01*
X171550453Y-121337240D01*
X171550450Y-121337240D01*
X171544679Y-121336728D01*
X171541429Y-121337040D01*
X171539615Y-121336984D01*
X171137173Y-121310825D01*
X171128987Y-121310293D01*
X171117286Y-121308284D01*
X171117249Y-121308561D01*
X171110881Y-121307702D01*
X171110913Y-121307468D01*
X171108460Y-121307067D01*
X171106189Y-121306161D01*
X171099794Y-121305534D01*
X171059873Y-121305534D01*
X171051700Y-121305269D01*
X171043124Y-121304711D01*
X171043119Y-121304711D01*
X171037332Y-121304335D01*
X171033457Y-121304800D01*
X171030944Y-121304788D01*
X170578226Y-121288282D01*
X170472733Y-121284436D01*
X170462090Y-121282885D01*
X170462030Y-121283420D01*
X170458701Y-121283045D01*
X170458698Y-121283045D01*
X170455645Y-121282701D01*
X170406429Y-121281989D01*
X170403699Y-121281920D01*
X170380052Y-121281057D01*
X170377024Y-121281508D01*
X170375422Y-121281541D01*
X169681695Y-121271505D01*
X169428144Y-121267837D01*
X169421425Y-121267452D01*
X169421424Y-121267474D01*
X169418336Y-121267316D01*
X169415282Y-121267010D01*
X169412216Y-121267003D01*
X169412209Y-121267003D01*
X169388554Y-121266952D01*
X169363919Y-121266899D01*
X169362486Y-121266887D01*
X169336716Y-121266514D01*
X169334995Y-121266809D01*
X169334310Y-121266835D01*
X168270236Y-121264532D01*
X166726093Y-121261189D01*
X166720139Y-121260919D01*
X166720136Y-121260982D01*
X166717057Y-121260859D01*
X166713995Y-121260586D01*
X166710927Y-121260613D01*
X166710921Y-121260613D01*
X166691241Y-121260788D01*
X166662417Y-121261044D01*
X166661186Y-121261049D01*
X166635045Y-121260992D01*
X166633500Y-121261276D01*
X166632894Y-121261306D01*
X164091815Y-121283879D01*
X164081245Y-121283529D01*
X164078106Y-121283292D01*
X164075037Y-121283361D01*
X164075028Y-121283361D01*
X164046844Y-121283997D01*
X164027106Y-121284443D01*
X164025470Y-121284468D01*
X164016051Y-121284552D01*
X164004770Y-121284652D01*
X164004764Y-121284652D01*
X163999971Y-121284695D01*
X163998069Y-121285067D01*
X163997271Y-121285116D01*
X163787797Y-121289843D01*
X163133719Y-121304603D01*
X163121783Y-121303619D01*
X163121771Y-121303879D01*
X163115353Y-121303582D01*
X163112271Y-121303741D01*
X163112270Y-121303741D01*
X163067721Y-121306039D01*
X163064077Y-121306174D01*
X163052529Y-121306435D01*
X163041950Y-121306674D01*
X163038068Y-121307488D01*
X163035491Y-121307703D01*
X162587775Y-121330805D01*
X162572972Y-121330297D01*
X162568383Y-121329071D01*
X162561959Y-121329205D01*
X162535727Y-121332331D01*
X162533831Y-121332557D01*
X162527381Y-121332940D01*
X162521945Y-121333442D01*
X162516140Y-121333442D01*
X162510430Y-121334505D01*
X162508549Y-121334679D01*
X162506250Y-121335011D01*
X162500446Y-121335311D01*
X162494797Y-121336668D01*
X162489982Y-121337364D01*
X162482999Y-121338615D01*
X162280712Y-121362722D01*
X162269766Y-121362839D01*
X162269788Y-121363332D01*
X162263369Y-121363615D01*
X162230718Y-121368274D01*
X162214900Y-121370531D01*
X162212010Y-121370909D01*
X162194543Y-121372990D01*
X162194538Y-121372991D01*
X162188782Y-121373677D01*
X162185719Y-121374634D01*
X162184002Y-121374940D01*
X162067982Y-121391494D01*
X162000532Y-121401118D01*
X161988569Y-121401560D01*
X161988588Y-121401818D01*
X161985247Y-121402062D01*
X161985237Y-121402063D01*
X161982179Y-121402287D01*
X161979152Y-121402809D01*
X161979143Y-121402810D01*
X161935213Y-121410384D01*
X161931607Y-121410952D01*
X161915423Y-121413262D01*
X161915420Y-121413263D01*
X161909671Y-121414083D01*
X161905909Y-121415354D01*
X161903369Y-121415875D01*
X161860384Y-121423286D01*
X161735307Y-121444851D01*
X161722283Y-121445750D01*
X161722286Y-121445777D01*
X161715897Y-121446470D01*
X161670495Y-121455948D01*
X161666182Y-121456769D01*
X161645636Y-121460312D01*
X161641202Y-121461955D01*
X161637607Y-121462813D01*
X161482578Y-121495176D01*
X161469314Y-121496599D01*
X161468525Y-121496493D01*
X161462171Y-121497447D01*
X161459192Y-121498197D01*
X161459187Y-121498198D01*
X161449679Y-121500592D01*
X161418407Y-121508465D01*
X161413420Y-121509612D01*
X161399909Y-121512432D01*
X161399901Y-121512435D01*
X161394227Y-121513619D01*
X161389209Y-121515681D01*
X161384312Y-121517049D01*
X161240091Y-121553359D01*
X161226693Y-121555386D01*
X161225135Y-121555250D01*
X161218830Y-121556494D01*
X161215899Y-121557376D01*
X161215897Y-121557377D01*
X161176654Y-121569193D01*
X161171088Y-121570730D01*
X161158775Y-121573830D01*
X161158769Y-121573832D01*
X161153137Y-121575250D01*
X161147858Y-121577676D01*
X161146956Y-121577994D01*
X161141412Y-121579804D01*
X161005698Y-121620666D01*
X160992233Y-121623365D01*
X160990123Y-121623285D01*
X160983888Y-121624838D01*
X160980991Y-121625869D01*
X160943105Y-121639352D01*
X160937187Y-121641294D01*
X160926613Y-121644478D01*
X160920234Y-121646399D01*
X160915079Y-121649060D01*
X160912123Y-121650256D01*
X160907109Y-121652162D01*
X160777434Y-121698312D01*
X160764049Y-121701704D01*
X160761657Y-121701737D01*
X160755510Y-121703608D01*
X160752654Y-121704793D01*
X160752650Y-121704794D01*
X160715904Y-121720035D01*
X160709876Y-121722356D01*
X160699014Y-121726221D01*
X160699010Y-121726223D01*
X160693544Y-121728168D01*
X160688525Y-121731082D01*
X160684537Y-121732930D01*
X160679833Y-121734995D01*
X160553495Y-121787394D01*
X160540312Y-121791462D01*
X160537963Y-121791614D01*
X160531919Y-121793796D01*
X160529129Y-121795124D01*
X160529121Y-121795127D01*
X160493146Y-121812246D01*
X160487272Y-121814860D01*
X160480167Y-121817807D01*
X160471214Y-121821520D01*
X160466353Y-121824686D01*
X160462617Y-121826656D01*
X160457999Y-121828972D01*
X160384436Y-121863977D01*
X160332072Y-121888895D01*
X160319215Y-121893577D01*
X160317217Y-121893804D01*
X160311287Y-121896278D01*
X160273037Y-121916822D01*
X160267583Y-121919582D01*
X160259338Y-121923506D01*
X160251411Y-121927278D01*
X160246716Y-121930688D01*
X160244336Y-121932103D01*
X160239595Y-121934784D01*
X160134013Y-121991493D01*
X160111327Y-122003678D01*
X160098852Y-122008893D01*
X160097463Y-122009114D01*
X160091649Y-122011851D01*
X160089017Y-122013420D01*
X160089018Y-122013420D01*
X160053638Y-122034518D01*
X160048728Y-122037298D01*
X160037346Y-122043412D01*
X160037339Y-122043417D01*
X160032224Y-122046164D01*
X160027699Y-122049801D01*
X160027359Y-122050026D01*
X160022320Y-122053194D01*
X159889224Y-122132563D01*
X159877168Y-122138214D01*
X159876554Y-122138337D01*
X159870854Y-122141303D01*
X159848503Y-122155867D01*
X159832860Y-122166060D01*
X159828608Y-122168711D01*
X159816577Y-122175886D01*
X159811587Y-122178862D01*
X159807607Y-122182366D01*
X159803672Y-122185080D01*
X159663593Y-122276356D01*
X159652132Y-122282253D01*
X159652162Y-122282307D01*
X159646567Y-122285465D01*
X159644048Y-122287232D01*
X159644046Y-122287233D01*
X159608431Y-122312212D01*
X159604913Y-122314592D01*
X159587257Y-122326097D01*
X159583920Y-122329279D01*
X159581110Y-122331374D01*
X159453119Y-122421143D01*
X159432040Y-122435927D01*
X159421660Y-122441684D01*
X159421807Y-122441928D01*
X159416303Y-122445244D01*
X159413822Y-122447091D01*
X159413818Y-122447094D01*
X159377947Y-122473803D01*
X159375074Y-122475880D01*
X159356826Y-122488679D01*
X159354107Y-122491456D01*
X159352147Y-122493014D01*
X159192046Y-122612225D01*
X159182648Y-122617761D01*
X159182916Y-122618183D01*
X159177490Y-122621625D01*
X159138842Y-122651801D01*
X159136654Y-122653469D01*
X159117764Y-122667535D01*
X159115605Y-122669868D01*
X159114269Y-122670988D01*
X158941026Y-122806256D01*
X158932523Y-122811626D01*
X158932853Y-122812127D01*
X158927489Y-122815665D01*
X158925102Y-122817598D01*
X158925089Y-122817608D01*
X158888573Y-122847186D01*
X158886809Y-122848589D01*
X158872055Y-122860109D01*
X158867474Y-122863686D01*
X158865811Y-122865568D01*
X158864929Y-122866338D01*
X158837284Y-122888731D01*
X158668123Y-123025750D01*
X158667400Y-123026308D01*
X158666880Y-123026652D01*
X158647024Y-123042786D01*
X158633682Y-123052258D01*
X158608921Y-123067520D01*
X158601878Y-123076782D01*
X158593398Y-123084471D01*
X158584828Y-123093322D01*
X158514538Y-123150435D01*
X158360768Y-123275379D01*
X158359498Y-123276397D01*
X158247213Y-123365249D01*
X158246007Y-123366191D01*
X158143760Y-123445019D01*
X158142101Y-123446276D01*
X158049707Y-123515104D01*
X158047570Y-123516661D01*
X157963997Y-123576232D01*
X157961352Y-123578067D01*
X157895851Y-123622235D01*
X157885628Y-123629129D01*
X157882331Y-123631277D01*
X157813383Y-123674700D01*
X157809481Y-123677060D01*
X157746108Y-123713830D01*
X157741661Y-123716292D01*
X157685774Y-123745756D01*
X157682221Y-123747629D01*
X157677336Y-123750070D01*
X157620087Y-123777150D01*
X157615024Y-123779410D01*
X157557779Y-123803466D01*
X157552826Y-123805425D01*
X157493510Y-123827446D01*
X157488963Y-123829036D01*
X157425381Y-123849904D01*
X157421458Y-123851121D01*
X157351809Y-123871489D01*
X157348690Y-123872357D01*
X157309187Y-123882806D01*
X157283486Y-123889604D01*
X157274334Y-123891663D01*
X157233725Y-123899226D01*
X157229631Y-123901749D01*
X157227334Y-123902442D01*
X157200765Y-123908312D01*
X157146328Y-123920338D01*
X157138077Y-123921875D01*
X157017647Y-123940175D01*
X157008709Y-123941208D01*
X156884535Y-123951085D01*
X156875496Y-123951478D01*
X156742949Y-123952480D01*
X156734356Y-123952252D01*
X156589177Y-123943432D01*
X156581425Y-123942720D01*
X156549561Y-123938798D01*
X156419934Y-123922843D01*
X156413233Y-123921835D01*
X156252137Y-123893133D01*
X156232358Y-123889609D01*
X156226737Y-123888475D01*
X156023876Y-123842721D01*
X156019274Y-123841591D01*
X155910318Y-123812672D01*
X155792105Y-123781295D01*
X155788480Y-123780274D01*
X155562950Y-123712978D01*
X155536924Y-123705212D01*
X155532764Y-123703892D01*
X155026595Y-123533550D01*
X154934492Y-123502554D01*
X154930871Y-123501274D01*
X154857399Y-123474023D01*
X154202653Y-123231176D01*
X154200536Y-123230369D01*
X153325305Y-122887571D01*
X153324846Y-122887389D01*
X153296614Y-122876126D01*
X153270402Y-122865668D01*
X153270396Y-122865666D01*
X153267566Y-122864537D01*
X153266491Y-122864432D01*
X153265720Y-122864188D01*
X152664377Y-122628151D01*
X152654996Y-122624019D01*
X152650458Y-122621796D01*
X152603232Y-122604133D01*
X152601352Y-122603412D01*
X152583189Y-122596282D01*
X152583175Y-122596277D01*
X152578112Y-122594290D01*
X152575879Y-122593861D01*
X152574917Y-122593542D01*
X152032066Y-122390506D01*
X152022040Y-122385477D01*
X152021860Y-122385868D01*
X152016022Y-122383184D01*
X152013118Y-122382179D01*
X152013111Y-122382176D01*
X151970076Y-122367279D01*
X151967155Y-122366227D01*
X151950997Y-122360184D01*
X151950989Y-122360182D01*
X151945551Y-122358148D01*
X151942186Y-122357557D01*
X151940337Y-122356986D01*
X151447845Y-122186515D01*
X151436653Y-122181287D01*
X151436584Y-122181449D01*
X151430666Y-122178948D01*
X151427722Y-122178031D01*
X151427715Y-122178028D01*
X151393097Y-122167240D01*
X151385614Y-122164908D01*
X151381894Y-122163685D01*
X151366874Y-122158486D01*
X151366861Y-122158483D01*
X151361378Y-122156585D01*
X151357181Y-122155954D01*
X151354345Y-122155165D01*
X151016950Y-122050026D01*
X150877861Y-122006683D01*
X150866276Y-122001714D01*
X150866232Y-122001828D01*
X150863114Y-122000628D01*
X150863104Y-122000625D01*
X150860235Y-121999521D01*
X150815041Y-121987037D01*
X150811108Y-121985881D01*
X150796228Y-121981244D01*
X150796225Y-121981243D01*
X150790679Y-121979515D01*
X150786289Y-121978995D01*
X150783171Y-121978233D01*
X150732967Y-121964364D01*
X150654103Y-121942578D01*
X150288027Y-121841450D01*
X150276991Y-121837110D01*
X150276895Y-121837381D01*
X150270835Y-121835244D01*
X150224372Y-121823813D01*
X150220925Y-121822913D01*
X150205051Y-121818528D01*
X150205046Y-121818527D01*
X150199456Y-121816983D01*
X150195594Y-121816652D01*
X150193168Y-121816137D01*
X150187978Y-121814860D01*
X149933460Y-121752245D01*
X149644173Y-121681076D01*
X149634270Y-121677461D01*
X149634085Y-121678022D01*
X149627982Y-121676011D01*
X149591411Y-121667813D01*
X149579670Y-121665181D01*
X149577132Y-121664584D01*
X149553936Y-121658877D01*
X149551050Y-121658712D01*
X149549628Y-121658446D01*
X148909017Y-121514839D01*
X148902229Y-121513011D01*
X148902228Y-121513016D01*
X148899251Y-121512235D01*
X148896321Y-121511311D01*
X148893324Y-121510679D01*
X148893315Y-121510677D01*
X148854893Y-121502580D01*
X148846174Y-121500742D01*
X148844750Y-121500433D01*
X148819664Y-121494809D01*
X148817850Y-121494743D01*
X148817141Y-121494623D01*
X148025611Y-121327803D01*
X148004906Y-121321541D01*
X147994667Y-121317456D01*
X147994663Y-121317455D01*
X147986404Y-121314160D01*
X147980009Y-121313533D01*
X147971033Y-121313533D01*
X147945050Y-121310825D01*
X147319497Y-121178986D01*
X147318505Y-121178772D01*
X146679276Y-121038661D01*
X146678237Y-121038429D01*
X146359718Y-120965787D01*
X146080669Y-120902146D01*
X146079647Y-120901908D01*
X145639397Y-120797072D01*
X145538007Y-120772928D01*
X145536560Y-120772574D01*
X145375106Y-120732105D01*
X145064980Y-120654370D01*
X145063114Y-120653886D01*
X144707846Y-120558606D01*
X144676559Y-120550215D01*
X144673301Y-120549294D01*
X144447623Y-120482220D01*
X144386482Y-120464048D01*
X144382014Y-120462629D01*
X144289181Y-120431219D01*
X144283642Y-120429199D01*
X144225774Y-120406532D01*
X144217795Y-120403084D01*
X144143682Y-120367965D01*
X144136929Y-120364511D01*
X144064785Y-120324804D01*
X144058208Y-120320919D01*
X143989998Y-120277790D01*
X143983632Y-120273488D01*
X143919623Y-120227324D01*
X143913471Y-120222592D01*
X143853923Y-120173802D01*
X143847988Y-120168621D01*
X143843823Y-120164749D01*
X143793183Y-120117670D01*
X143787473Y-120112011D01*
X143772697Y-120096400D01*
X143737653Y-120059376D01*
X143732184Y-120053203D01*
X143711116Y-120027795D01*
X143687563Y-119999390D01*
X143682351Y-119992653D01*
X143643113Y-119938204D01*
X143638182Y-119930826D01*
X143604435Y-119876273D01*
X143599854Y-119868220D01*
X143571658Y-119814120D01*
X143567506Y-119805345D01*
X143544820Y-119752190D01*
X143541200Y-119742657D01*
X143522413Y-119686423D01*
X143520131Y-119678796D01*
X143514581Y-119657851D01*
X143513294Y-119652527D01*
X143507874Y-119627747D01*
X143506794Y-119622222D01*
X143506704Y-119621699D01*
X143502606Y-119597916D01*
X143501767Y-119592277D01*
X143498776Y-119568429D01*
X143498181Y-119562574D01*
X143497445Y-119553151D01*
X143497531Y-119544431D01*
X143498983Y-119539419D01*
X143497378Y-119520890D01*
X143499133Y-119486445D01*
X143512486Y-119416330D01*
X143513593Y-119411119D01*
X143539199Y-119301990D01*
X143539988Y-119298811D01*
X143575950Y-119161680D01*
X143576578Y-119159376D01*
X143621136Y-119001708D01*
X143621686Y-118999819D01*
X143673275Y-118827592D01*
X143673801Y-118825880D01*
X143731053Y-118644186D01*
X143731597Y-118642501D01*
X143737214Y-118625513D01*
X143776924Y-118505401D01*
X143777040Y-118505075D01*
X143777133Y-118504866D01*
X143777349Y-118504211D01*
X143778100Y-118502109D01*
X143781582Y-118497530D01*
X143795456Y-118449622D01*
X143796821Y-118445220D01*
X143802893Y-118426853D01*
X143802903Y-118426774D01*
X143802908Y-118426758D01*
X143860217Y-118253093D01*
X143864444Y-118243835D01*
X143863822Y-118243574D01*
X143865120Y-118240486D01*
X143865120Y-118240485D01*
X143866312Y-118237650D01*
X143881088Y-118189914D01*
X143881784Y-118187738D01*
X143889430Y-118164567D01*
X143889779Y-118161989D01*
X143890100Y-118160798D01*
X143939290Y-118001884D01*
X143943635Y-117991829D01*
X143943178Y-117991649D01*
X143944407Y-117988523D01*
X143945530Y-117985669D01*
X143946366Y-117982729D01*
X143946372Y-117982711D01*
X143958921Y-117938571D01*
X143959754Y-117935766D01*
X143964949Y-117918986D01*
X143964950Y-117918983D01*
X143966663Y-117913448D01*
X143967035Y-117910259D01*
X143967459Y-117908545D01*
X144008532Y-117764090D01*
X144012946Y-117753107D01*
X144012674Y-117753009D01*
X144013808Y-117749868D01*
X144014856Y-117746966D01*
X144026635Y-117700602D01*
X144027560Y-117697167D01*
X144032073Y-117681293D01*
X144033662Y-117675705D01*
X144034021Y-117671846D01*
X144034548Y-117669454D01*
X144068006Y-117537759D01*
X144072411Y-117525744D01*
X144072334Y-117525719D01*
X144073360Y-117522547D01*
X144074312Y-117519606D01*
X144084279Y-117473996D01*
X144085241Y-117469920D01*
X144090455Y-117449397D01*
X144090749Y-117444854D01*
X144091382Y-117441489D01*
X144117710Y-117321010D01*
X144121829Y-117308364D01*
X144122109Y-117307912D01*
X144123846Y-117301725D01*
X144131815Y-117256906D01*
X144132765Y-117252113D01*
X144135786Y-117238291D01*
X144135787Y-117238285D01*
X144137025Y-117232619D01*
X144137187Y-117227397D01*
X144137880Y-117222793D01*
X144141465Y-117202635D01*
X144156113Y-117120252D01*
X144157582Y-117111991D01*
X144161222Y-117098993D01*
X144161883Y-117097815D01*
X144163343Y-117091557D01*
X144169158Y-117047601D01*
X144170014Y-117042074D01*
X144172294Y-117029249D01*
X144173308Y-117023547D01*
X144173261Y-117017757D01*
X144173280Y-117017531D01*
X144173924Y-117011572D01*
X144187491Y-116909000D01*
X144190566Y-116895646D01*
X144191483Y-116893805D01*
X144192634Y-116887484D01*
X144196205Y-116844281D01*
X144196865Y-116838139D01*
X144198440Y-116826232D01*
X144198440Y-116826229D01*
X144199201Y-116820476D01*
X144198896Y-116814681D01*
X144199013Y-116811721D01*
X144199343Y-116806316D01*
X144207265Y-116710461D01*
X144209691Y-116696789D01*
X144210714Y-116694432D01*
X144211533Y-116688059D01*
X144211915Y-116675356D01*
X144212812Y-116645458D01*
X144213183Y-116638865D01*
X144214111Y-116627632D01*
X144214111Y-116627629D01*
X144214589Y-116621844D01*
X144213999Y-116616066D01*
X144213949Y-116610832D01*
X144214000Y-116605837D01*
X144214009Y-116605566D01*
X144216728Y-116514942D01*
X144218430Y-116501084D01*
X144219422Y-116498410D01*
X144219893Y-116492002D01*
X144218869Y-116449776D01*
X144218889Y-116442944D01*
X144219215Y-116432078D01*
X144219215Y-116432075D01*
X144219389Y-116426269D01*
X144218497Y-116420528D01*
X144218138Y-116414744D01*
X144218346Y-116414731D01*
X144217898Y-116409765D01*
X144217378Y-116388301D01*
X144215750Y-116321214D01*
X144216699Y-116307276D01*
X144217539Y-116304572D01*
X144217663Y-116298147D01*
X144214353Y-116256029D01*
X144214003Y-116249215D01*
X144213739Y-116238309D01*
X144213738Y-116238305D01*
X144213598Y-116232511D01*
X144212398Y-116226836D01*
X144211724Y-116221069D01*
X144211929Y-116221045D01*
X144211216Y-116216114D01*
X144204298Y-116128090D01*
X144204504Y-116114224D01*
X144205127Y-116111773D01*
X144204916Y-116105351D01*
X144199354Y-116063009D01*
X144198671Y-116056494D01*
X144197329Y-116039414D01*
X144195825Y-116033816D01*
X144194965Y-116028821D01*
X144194212Y-116023858D01*
X144182463Y-115934417D01*
X144181977Y-115920743D01*
X144182368Y-115918822D01*
X144181846Y-115912417D01*
X144174103Y-115869643D01*
X144173161Y-115863608D01*
X144171580Y-115851573D01*
X144170824Y-115845815D01*
X144169026Y-115840293D01*
X144168454Y-115837765D01*
X144167359Y-115832386D01*
X144165142Y-115820136D01*
X144150450Y-115738976D01*
X144149355Y-115725556D01*
X144149542Y-115724374D01*
X144148742Y-115717998D01*
X144146980Y-115710209D01*
X144138909Y-115674547D01*
X144137816Y-115669180D01*
X144135461Y-115656171D01*
X144134428Y-115650464D01*
X144132395Y-115645115D01*
X144130970Y-115639462D01*
X144108544Y-115540365D01*
X144106931Y-115527219D01*
X144106967Y-115526921D01*
X144105927Y-115520580D01*
X144102144Y-115506369D01*
X144094140Y-115476311D01*
X144093005Y-115471702D01*
X144089814Y-115457603D01*
X144089813Y-115457601D01*
X144088533Y-115451944D01*
X144086539Y-115447314D01*
X144085318Y-115443185D01*
X144057054Y-115337040D01*
X144055112Y-115324754D01*
X144054956Y-115324785D01*
X144054311Y-115321504D01*
X144053717Y-115318480D01*
X144040150Y-115273320D01*
X144039092Y-115269585D01*
X144033523Y-115248672D01*
X144031676Y-115244793D01*
X144030711Y-115241903D01*
X143993673Y-115118614D01*
X143993468Y-115117866D01*
X143993366Y-115117352D01*
X143990764Y-115108730D01*
X143985859Y-115083195D01*
X143985801Y-115082521D01*
X143985800Y-115082519D01*
X143984797Y-115070935D01*
X143975049Y-115050992D01*
X143967625Y-115032069D01*
X143967293Y-115030967D01*
X143903719Y-114820331D01*
X143902955Y-114817699D01*
X143872762Y-114709071D01*
X143872194Y-114706957D01*
X143869876Y-114698019D01*
X143845146Y-114602650D01*
X143844566Y-114600320D01*
X143820891Y-114501078D01*
X143820286Y-114498415D01*
X143813811Y-114468406D01*
X143799840Y-114403652D01*
X143799258Y-114400788D01*
X143797991Y-114394156D01*
X143781873Y-114309836D01*
X143781312Y-114306684D01*
X143766830Y-114218878D01*
X143766325Y-114215540D01*
X143754565Y-114130027D01*
X143754137Y-114126557D01*
X143744966Y-114042685D01*
X143744629Y-114039144D01*
X143737902Y-113955950D01*
X143737666Y-113952414D01*
X143733282Y-113869071D01*
X143733149Y-113865636D01*
X143732381Y-113835013D01*
X143731037Y-113781485D01*
X143730997Y-113778178D01*
X143731082Y-113705230D01*
X143731097Y-113692154D01*
X143731139Y-113689070D01*
X143733418Y-113600634D01*
X143733523Y-113597791D01*
X143735719Y-113552404D01*
X143738221Y-113537388D01*
X143739098Y-113528437D01*
X143742334Y-113517264D01*
X143740307Y-113493862D01*
X143740138Y-113474278D01*
X143744557Y-113410515D01*
X143744594Y-113409977D01*
X143744831Y-113407058D01*
X143752856Y-113320590D01*
X143753217Y-113317199D01*
X143755187Y-113300807D01*
X143762773Y-113237687D01*
X143763298Y-113233831D01*
X143767299Y-113207471D01*
X143774322Y-113161202D01*
X143775062Y-113156839D01*
X143787508Y-113090652D01*
X143788517Y-113085812D01*
X143802297Y-113025712D01*
X143803638Y-113020404D01*
X143818666Y-112965944D01*
X143820403Y-112960189D01*
X143836603Y-112910831D01*
X143838782Y-112904730D01*
X143856189Y-112859665D01*
X143858829Y-112853346D01*
X143877506Y-112811854D01*
X143880595Y-112805476D01*
X143887003Y-112793144D01*
X143900764Y-112766662D01*
X143904253Y-112760392D01*
X143926284Y-112723323D01*
X143930091Y-112717311D01*
X143954430Y-112681173D01*
X143958442Y-112675554D01*
X143985616Y-112639624D01*
X143989696Y-112634510D01*
X144020328Y-112598102D01*
X144024353Y-112593547D01*
X144027824Y-112589804D01*
X144035577Y-112582137D01*
X144040228Y-112577920D01*
X144050132Y-112571815D01*
X144066346Y-112550493D01*
X144078010Y-112537204D01*
X144166615Y-112449519D01*
X144172482Y-112444071D01*
X144201776Y-112418553D01*
X144206353Y-112414566D01*
X144213393Y-112408865D01*
X144241580Y-112387673D01*
X144251035Y-112381215D01*
X144274732Y-112366563D01*
X144285857Y-112360437D01*
X144310927Y-112348236D01*
X144322391Y-112343343D01*
X144355717Y-112331031D01*
X144366218Y-112327668D01*
X144413809Y-112314689D01*
X144422552Y-112312637D01*
X144488462Y-112299625D01*
X144495221Y-112298482D01*
X144558228Y-112289581D01*
X144581795Y-112286252D01*
X144586779Y-112285649D01*
X144615909Y-112282712D01*
X144695424Y-112274695D01*
X144698877Y-112274395D01*
X144829488Y-112264918D01*
X144832692Y-112264727D01*
X145173543Y-112248729D01*
X145175428Y-112248654D01*
X145570773Y-112236076D01*
X145570856Y-112236076D01*
X145570935Y-112236081D01*
X145571152Y-112236074D01*
X145571164Y-112236074D01*
X145617920Y-112234577D01*
X145621951Y-112234512D01*
X145643465Y-112234512D01*
X145647714Y-112233720D01*
X145650779Y-112233531D01*
X145653159Y-112233455D01*
X145653191Y-112233448D01*
X145828800Y-112227827D01*
X145833876Y-112227768D01*
X145835384Y-112227781D01*
X145838437Y-112227956D01*
X145841488Y-112227833D01*
X145841492Y-112227833D01*
X145853235Y-112227359D01*
X145890772Y-112225846D01*
X145891339Y-112225825D01*
X145918168Y-112224966D01*
X145919334Y-112224710D01*
X145919724Y-112224678D01*
X146067431Y-112218721D01*
X146074307Y-112218738D01*
X146074307Y-112218724D01*
X146077374Y-112218712D01*
X146080457Y-112218850D01*
X146096336Y-112218010D01*
X146131607Y-112216143D01*
X146133188Y-112216069D01*
X146154369Y-112215215D01*
X146154375Y-112215214D01*
X146158851Y-112215034D01*
X146160589Y-112214637D01*
X146161296Y-112214571D01*
X146283008Y-112208130D01*
X146293074Y-112208759D01*
X146293094Y-112208007D01*
X146296419Y-112208097D01*
X146296428Y-112208097D01*
X146299517Y-112208180D01*
X146338793Y-112205390D01*
X146349390Y-112204638D01*
X146351655Y-112204497D01*
X146370377Y-112203506D01*
X146370379Y-112203506D01*
X146376173Y-112203199D01*
X146378629Y-112202606D01*
X146379826Y-112202476D01*
X146480530Y-112195323D01*
X146491784Y-112195728D01*
X146491785Y-112195307D01*
X146498211Y-112195319D01*
X146522691Y-112192966D01*
X146546527Y-112190675D01*
X146549656Y-112190414D01*
X146566833Y-112189194D01*
X146566843Y-112189192D01*
X146572636Y-112188781D01*
X146575968Y-112187912D01*
X146577938Y-112187656D01*
X146660010Y-112179767D01*
X146672773Y-112179855D01*
X146672770Y-112179765D01*
X146676119Y-112179660D01*
X146676126Y-112179659D01*
X146679192Y-112179563D01*
X146725525Y-112173542D01*
X146729705Y-112173069D01*
X146745019Y-112171597D01*
X146745021Y-112171597D01*
X146750801Y-112171041D01*
X146755148Y-112169791D01*
X146758476Y-112169259D01*
X146822580Y-112160928D01*
X146834992Y-112160610D01*
X146834982Y-112160449D01*
X146841395Y-112160044D01*
X146844428Y-112159552D01*
X146844438Y-112159551D01*
X146887898Y-112152503D01*
X146891830Y-112151929D01*
X146909206Y-112149671D01*
X146914413Y-112149104D01*
X146915975Y-112148967D01*
X146915988Y-112148965D01*
X146919043Y-112148697D01*
X146922051Y-112148133D01*
X146922060Y-112148132D01*
X146966899Y-112139728D01*
X146969938Y-112139197D01*
X146971975Y-112138867D01*
X146980064Y-112137555D01*
X146987480Y-112137055D01*
X146987451Y-112136802D01*
X146993834Y-112136066D01*
X147040798Y-112125925D01*
X147044194Y-112125241D01*
X147052020Y-112123775D01*
X147059696Y-112123045D01*
X147059680Y-112122933D01*
X147066038Y-112122004D01*
X147069028Y-112121263D01*
X147069043Y-112121260D01*
X147112062Y-112110598D01*
X147115779Y-112109736D01*
X147121600Y-112108479D01*
X147129460Y-112107491D01*
X147129559Y-112107501D01*
X147135882Y-112106361D01*
X147180896Y-112093609D01*
X147184894Y-112092548D01*
X147189011Y-112091527D01*
X147196637Y-112090311D01*
X147197285Y-112090355D01*
X147199821Y-112089803D01*
X147199829Y-112089802D01*
X147200562Y-112089642D01*
X147200560Y-112089642D01*
X147203564Y-112088989D01*
X147247561Y-112074806D01*
X147251854Y-112073507D01*
X147254494Y-112072759D01*
X147261852Y-112071316D01*
X147263015Y-112071350D01*
X147269237Y-112069746D01*
X147272126Y-112068692D01*
X147272134Y-112068689D01*
X147312155Y-112054080D01*
X147316657Y-112052532D01*
X147318080Y-112052074D01*
X147325255Y-112050381D01*
X147326830Y-112050365D01*
X147332983Y-112048513D01*
X147335823Y-112047346D01*
X147335839Y-112047340D01*
X147374893Y-112031287D01*
X147379779Y-112029397D01*
X147380092Y-112029282D01*
X147386863Y-112027406D01*
X147388793Y-112027306D01*
X147394864Y-112025203D01*
X147397650Y-112023921D01*
X147397665Y-112023915D01*
X147435321Y-112006588D01*
X147447986Y-112002210D01*
X147448920Y-112002122D01*
X147454898Y-111999767D01*
X147493865Y-111979823D01*
X147506334Y-111974925D01*
X147507215Y-111974805D01*
X147513091Y-111972204D01*
X147550776Y-111950898D01*
X147562980Y-111945514D01*
X147563712Y-111945384D01*
X147569477Y-111942546D01*
X147606062Y-111919859D01*
X147617985Y-111914025D01*
X147618427Y-111913929D01*
X147624078Y-111910871D01*
X147626624Y-111909153D01*
X147626630Y-111909149D01*
X147659785Y-111886771D01*
X147671408Y-111880534D01*
X147671476Y-111880517D01*
X147677013Y-111877256D01*
X147679497Y-111875445D01*
X147679505Y-111875440D01*
X147712048Y-111851717D01*
X147723029Y-111845326D01*
X147722975Y-111845241D01*
X147728401Y-111841799D01*
X147730817Y-111839912D01*
X147730827Y-111839905D01*
X147762997Y-111814779D01*
X147773276Y-111808353D01*
X147773148Y-111808164D01*
X147775925Y-111806284D01*
X147778469Y-111804562D01*
X147804167Y-111783228D01*
X147814023Y-111775046D01*
X147825009Y-111767653D01*
X147825279Y-111767554D01*
X147830461Y-111763754D01*
X147864601Y-111733173D01*
X147868181Y-111730086D01*
X147879319Y-111720840D01*
X147879325Y-111720834D01*
X147883788Y-111717129D01*
X147887006Y-111713260D01*
X147890103Y-111710330D01*
X147902192Y-111699501D01*
X147909304Y-111693131D01*
X147920002Y-111685330D01*
X147920289Y-111685213D01*
X147922353Y-111683576D01*
X147922906Y-111683138D01*
X147922911Y-111683134D01*
X147925324Y-111681220D01*
X147945325Y-111661896D01*
X147958249Y-111649409D01*
X147961730Y-111646170D01*
X147972498Y-111636525D01*
X147972500Y-111636523D01*
X147976826Y-111632648D01*
X147979914Y-111628639D01*
X147982898Y-111625595D01*
X148006711Y-111602587D01*
X148016012Y-111595325D01*
X148015821Y-111595097D01*
X148018383Y-111592946D01*
X148018386Y-111592944D01*
X148020742Y-111590965D01*
X148022898Y-111588762D01*
X148025151Y-111586674D01*
X148025480Y-111587029D01*
X148030489Y-111583026D01*
X148030367Y-111582892D01*
X148038984Y-111575078D01*
X148048888Y-111568973D01*
X148059900Y-111554491D01*
X148064398Y-111548576D01*
X148082652Y-111531410D01*
X148081647Y-111530285D01*
X148084144Y-111528053D01*
X148086438Y-111526003D01*
X148110212Y-111500160D01*
X148118448Y-111491208D01*
X148121122Y-111488390D01*
X148136326Y-111472853D01*
X148136596Y-111473117D01*
X148145285Y-111464929D01*
X148144817Y-111464441D01*
X148149456Y-111459996D01*
X148163021Y-111444182D01*
X148179697Y-111424741D01*
X148182603Y-111421470D01*
X148196748Y-111406094D01*
X148196935Y-111406266D01*
X148205798Y-111397322D01*
X148205419Y-111396955D01*
X148207751Y-111394546D01*
X148207758Y-111394538D01*
X148209887Y-111392338D01*
X148211794Y-111389937D01*
X148211808Y-111389921D01*
X148238362Y-111356488D01*
X148241389Y-111352821D01*
X148250797Y-111341852D01*
X148250798Y-111341850D01*
X148252419Y-111339961D01*
X148252427Y-111339952D01*
X148254575Y-111337448D01*
X148254662Y-111337522D01*
X148263797Y-111327589D01*
X148263482Y-111327308D01*
X148267764Y-111322516D01*
X148293809Y-111286916D01*
X148294573Y-111285872D01*
X148297597Y-111281905D01*
X148306325Y-111270916D01*
X148309935Y-111266371D01*
X148309985Y-111266277D01*
X148319331Y-111255284D01*
X148319044Y-111255048D01*
X148321179Y-111252457D01*
X148321180Y-111252455D01*
X148323130Y-111250089D01*
X148341676Y-111222477D01*
X148348365Y-111212519D01*
X148351267Y-111208380D01*
X148359496Y-111197130D01*
X148362925Y-111192443D01*
X148363253Y-111191760D01*
X148372470Y-111180009D01*
X148372173Y-111179783D01*
X148374200Y-111177116D01*
X148374205Y-111177108D01*
X148376061Y-111174666D01*
X148399894Y-111135972D01*
X148402579Y-111131800D01*
X148410432Y-111120108D01*
X148410436Y-111120100D01*
X148413667Y-111115290D01*
X148414225Y-111113997D01*
X148423371Y-111101353D01*
X148423032Y-111101115D01*
X148424955Y-111098377D01*
X148426725Y-111095857D01*
X148449290Y-111055942D01*
X148451673Y-111051905D01*
X148459290Y-111039540D01*
X148459294Y-111039533D01*
X148462335Y-111034595D01*
X148463108Y-111032589D01*
X148472262Y-111018894D01*
X148471857Y-111018630D01*
X148473691Y-111015815D01*
X148475365Y-111013246D01*
X148494357Y-110976751D01*
X148496795Y-110972065D01*
X148498870Y-110968240D01*
X148509182Y-110950000D01*
X148510786Y-110945323D01*
X148511359Y-110944116D01*
X148511373Y-110944088D01*
X148519218Y-110931997D01*
X148518976Y-110931850D01*
X148520719Y-110928983D01*
X148522314Y-110926360D01*
X148542776Y-110883843D01*
X148544539Y-110880322D01*
X148551856Y-110866261D01*
X148551859Y-110866254D01*
X148554532Y-110861117D01*
X148555772Y-110857048D01*
X148556983Y-110854322D01*
X148558886Y-110850367D01*
X148565062Y-110840385D01*
X148564786Y-110840228D01*
X148566440Y-110837332D01*
X148566444Y-110837324D01*
X148567972Y-110834648D01*
X148569231Y-110831835D01*
X148569236Y-110831826D01*
X148587593Y-110790824D01*
X148589026Y-110787737D01*
X148598778Y-110767474D01*
X148599767Y-110763819D01*
X148600662Y-110761634D01*
X148604565Y-110752917D01*
X148610144Y-110743360D01*
X148609736Y-110743140D01*
X148611327Y-110740192D01*
X148611331Y-110740184D01*
X148612787Y-110737485D01*
X148631688Y-110692421D01*
X148632852Y-110689737D01*
X148638885Y-110676264D01*
X148642357Y-110668509D01*
X148643131Y-110665300D01*
X148643779Y-110663594D01*
X148650221Y-110648237D01*
X148655974Y-110637758D01*
X148655736Y-110637638D01*
X148657236Y-110634657D01*
X148657237Y-110634654D01*
X148658624Y-110631898D01*
X148675797Y-110587396D01*
X148677153Y-110584027D01*
X148683486Y-110568927D01*
X148685732Y-110563572D01*
X148686567Y-110559710D01*
X148687418Y-110557279D01*
X148697653Y-110530756D01*
X148739949Y-110421149D01*
X148745293Y-110410729D01*
X148745008Y-110410595D01*
X148746428Y-110407566D01*
X148746430Y-110407562D01*
X148747735Y-110404777D01*
X148763763Y-110359571D01*
X148764967Y-110356316D01*
X148770968Y-110340767D01*
X148770970Y-110340761D01*
X148773059Y-110335347D01*
X148773752Y-110331623D01*
X148774472Y-110329365D01*
X148787132Y-110293657D01*
X148835988Y-110155861D01*
X148837760Y-110151165D01*
X148838561Y-110149163D01*
X148839849Y-110146353D01*
X148840856Y-110143431D01*
X148841615Y-110141535D01*
X148846260Y-110135427D01*
X148858730Y-110092365D01*
X148860992Y-110085337D01*
X148864920Y-110074260D01*
X148864922Y-110074255D01*
X148866028Y-110071134D01*
X148866223Y-110069894D01*
X148866350Y-110069470D01*
X148916706Y-109923383D01*
X148916832Y-109923021D01*
X148958392Y-109803631D01*
X148958594Y-109803054D01*
X148982988Y-109734058D01*
X148992241Y-109714164D01*
X148996893Y-109708313D01*
X148998400Y-109704646D01*
X148999622Y-109703047D01*
X148999809Y-109702566D01*
X148999972Y-109702352D01*
X149000205Y-109701547D01*
X149001950Y-109697058D01*
X149003981Y-109689807D01*
X149004886Y-109688839D01*
X149005911Y-109686310D01*
X149008885Y-109681862D01*
X149010829Y-109675738D01*
X149011750Y-109671413D01*
X149012289Y-109668877D01*
X149014731Y-109659735D01*
X149019810Y-109650360D01*
X149022113Y-109632490D01*
X149026415Y-109612324D01*
X149108069Y-109340807D01*
X149108308Y-109340206D01*
X149109256Y-109338960D01*
X149123885Y-109288442D01*
X149124841Y-109285297D01*
X149137987Y-109244036D01*
X149138937Y-109241175D01*
X149163551Y-109169982D01*
X149175198Y-109136293D01*
X149182084Y-109116375D01*
X149183197Y-109113287D01*
X149212085Y-109036287D01*
X149213174Y-109033486D01*
X149246696Y-108950229D01*
X149248180Y-108946700D01*
X149285429Y-108861732D01*
X149286915Y-108858470D01*
X149304772Y-108820697D01*
X149306047Y-108818078D01*
X149309217Y-108811755D01*
X149321556Y-108791961D01*
X149331829Y-108778452D01*
X149335065Y-108767277D01*
X149340292Y-108756885D01*
X149340625Y-108757053D01*
X149347204Y-108742281D01*
X149352074Y-108734445D01*
X149354801Y-108730246D01*
X149399483Y-108664344D01*
X149399813Y-108663860D01*
X149415638Y-108640808D01*
X149423305Y-108631832D01*
X149423074Y-108631648D01*
X149425159Y-108629023D01*
X149427071Y-108626616D01*
X149447809Y-108594512D01*
X149456050Y-108584216D01*
X149458039Y-108581519D01*
X149459863Y-108579046D01*
X149475985Y-108552014D01*
X149480303Y-108544774D01*
X149488406Y-108533722D01*
X149489960Y-108532407D01*
X149493517Y-108527055D01*
X149512911Y-108490589D01*
X149520803Y-108478461D01*
X149523747Y-108475635D01*
X149526962Y-108470071D01*
X149534776Y-108452866D01*
X149543690Y-108433241D01*
X149547202Y-108426114D01*
X149547251Y-108426022D01*
X149549704Y-108422015D01*
X149552735Y-108418765D01*
X149555636Y-108413032D01*
X149561260Y-108398568D01*
X149567314Y-108386634D01*
X149567889Y-108385964D01*
X149570551Y-108380116D01*
X149572520Y-108374357D01*
X149575716Y-108365011D01*
X149581301Y-108352712D01*
X149582172Y-108351599D01*
X149584569Y-108345637D01*
X149589166Y-108329920D01*
X149594227Y-108317247D01*
X149595312Y-108315715D01*
X149597421Y-108309645D01*
X149600068Y-108298670D01*
X149601365Y-108293294D01*
X149605840Y-108280253D01*
X149607090Y-108278282D01*
X149608887Y-108272113D01*
X149612075Y-108255151D01*
X149615900Y-108241767D01*
X149617233Y-108239396D01*
X149618698Y-108233140D01*
X149619104Y-108230093D01*
X149619107Y-108230075D01*
X149621037Y-108215580D01*
X149624159Y-108201867D01*
X149625503Y-108199130D01*
X149626619Y-108192802D01*
X149626854Y-108189749D01*
X149626855Y-108189738D01*
X149628013Y-108174660D01*
X149630371Y-108160707D01*
X149631654Y-108157665D01*
X149632405Y-108151284D01*
X149632769Y-108132565D01*
X149634322Y-108118430D01*
X149635489Y-108115136D01*
X149635865Y-108108722D01*
X149635111Y-108089476D01*
X149635833Y-108075232D01*
X149636825Y-108071803D01*
X149636822Y-108065377D01*
X149634874Y-108045604D01*
X149634753Y-108031344D01*
X149635543Y-108027849D01*
X149635160Y-108021435D01*
X149631945Y-108001172D01*
X149630988Y-107986970D01*
X149631556Y-107983531D01*
X149630799Y-107977150D01*
X149621948Y-107936801D01*
X149620582Y-107929564D01*
X149618111Y-107913992D01*
X149618326Y-107913958D01*
X149616432Y-107902793D01*
X149615481Y-107891809D01*
X149615481Y-107891808D01*
X149614477Y-107880220D01*
X149609369Y-107869771D01*
X149606259Y-107858557D01*
X149606373Y-107858525D01*
X149602504Y-107847364D01*
X149596958Y-107821677D01*
X149595692Y-107814929D01*
X149592194Y-107792995D01*
X149584184Y-107742769D01*
X149583429Y-107737247D01*
X149583388Y-107736882D01*
X149574409Y-107658287D01*
X149573969Y-107653683D01*
X149570275Y-107605822D01*
X149567519Y-107570114D01*
X149567281Y-107566265D01*
X149563296Y-107480143D01*
X149563187Y-107476887D01*
X149563151Y-107475052D01*
X149561441Y-107390018D01*
X149561416Y-107387219D01*
X149561421Y-107385318D01*
X149561616Y-107301477D01*
X149561646Y-107299046D01*
X149561996Y-107283003D01*
X149563419Y-107217679D01*
X149563521Y-107214670D01*
X149564449Y-107194526D01*
X149570572Y-107061478D01*
X149570771Y-107058129D01*
X149579505Y-106938075D01*
X149579778Y-106934884D01*
X149585296Y-106878780D01*
X149588249Y-106861737D01*
X149591359Y-106854082D01*
X149592027Y-106847691D01*
X149592047Y-106844596D01*
X149592169Y-106842386D01*
X149592578Y-106837047D01*
X149592945Y-106833305D01*
X149596182Y-106822127D01*
X149592967Y-106785000D01*
X149592500Y-106773333D01*
X149594939Y-106389652D01*
X149594989Y-106386786D01*
X149597330Y-106306383D01*
X149599857Y-106219605D01*
X149599980Y-106216626D01*
X149603900Y-106142800D01*
X149607969Y-106066146D01*
X149608243Y-106062175D01*
X149619705Y-105927066D01*
X149620220Y-105922143D01*
X149635510Y-105799391D01*
X149636359Y-105793658D01*
X149641860Y-105761600D01*
X149650991Y-105708376D01*
X149655862Y-105679988D01*
X149657097Y-105673741D01*
X149681432Y-105565156D01*
X149683032Y-105558795D01*
X149683158Y-105558346D01*
X149713093Y-105451236D01*
X149714933Y-105445236D01*
X149751893Y-105334691D01*
X149753821Y-105329332D01*
X149798946Y-105212249D01*
X149800771Y-105207772D01*
X149855324Y-105080955D01*
X149856905Y-105077430D01*
X149921913Y-104938227D01*
X149923176Y-104935602D01*
X149998960Y-104782652D01*
X150000212Y-104780192D01*
X150174391Y-104447198D01*
X150185739Y-104429338D01*
X150198287Y-104412836D01*
X150201972Y-104400110D01*
X150211489Y-104376493D01*
X150339203Y-104133730D01*
X150501656Y-103824931D01*
X150506944Y-103815825D01*
X150507161Y-103815484D01*
X150508820Y-103812884D01*
X150531893Y-103767482D01*
X150532709Y-103765903D01*
X150542206Y-103747851D01*
X150542208Y-103747846D01*
X150544492Y-103743505D01*
X150545083Y-103741598D01*
X150545429Y-103740845D01*
X150674813Y-103486241D01*
X150755772Y-103326929D01*
X150804465Y-103275262D01*
X150873361Y-103258122D01*
X150940588Y-103280951D01*
X150984799Y-103336501D01*
X150994100Y-103384012D01*
X150994100Y-108313314D01*
X150995247Y-108322954D01*
X150996085Y-108329996D01*
X150997267Y-108339934D01*
X151008406Y-108365011D01*
X151032283Y-108418765D01*
X151043436Y-108443875D01*
X151083586Y-108483954D01*
X151115695Y-108516008D01*
X151115697Y-108516009D01*
X151123928Y-108524226D01*
X151227949Y-108570214D01*
X151254042Y-108573256D01*
X153214900Y-108573256D01*
X153283021Y-108593258D01*
X153329514Y-108646914D01*
X153340900Y-108699256D01*
X153340900Y-116770528D01*
X153339545Y-116782658D01*
X153340027Y-116782697D01*
X153339307Y-116791644D01*
X153337326Y-116800400D01*
X153338651Y-116821757D01*
X153340658Y-116854108D01*
X153340900Y-116861910D01*
X153340900Y-116878113D01*
X153341536Y-116882553D01*
X153342384Y-116888478D01*
X153343413Y-116898528D01*
X153345607Y-116933887D01*
X153346345Y-116945777D01*
X153349394Y-116954223D01*
X153349993Y-116957114D01*
X153354222Y-116974080D01*
X153355048Y-116976905D01*
X153356320Y-116985787D01*
X153375922Y-117028898D01*
X153379727Y-117038247D01*
X153395804Y-117082781D01*
X153401099Y-117090029D01*
X153402480Y-117092627D01*
X153411315Y-117107745D01*
X153412894Y-117110214D01*
X153416608Y-117118382D01*
X153428188Y-117131821D01*
X153447515Y-117154252D01*
X153453801Y-117162169D01*
X153458948Y-117169215D01*
X153458953Y-117169220D01*
X153461825Y-117173152D01*
X153472800Y-117184127D01*
X153479158Y-117190974D01*
X153511687Y-117228727D01*
X153519222Y-117233611D01*
X153525466Y-117239058D01*
X153537331Y-117248658D01*
X154885780Y-118597108D01*
X154893400Y-118606645D01*
X154893769Y-118606331D01*
X154899584Y-118613164D01*
X154904376Y-118620758D01*
X154934470Y-118647336D01*
X154944716Y-118656385D01*
X154950403Y-118661731D01*
X154961855Y-118673183D01*
X154965446Y-118675874D01*
X154965448Y-118675876D01*
X154970230Y-118679460D01*
X154978073Y-118685845D01*
X154982421Y-118689685D01*
X155013551Y-118717178D01*
X155021678Y-118720994D01*
X155024134Y-118722607D01*
X155039137Y-118731623D01*
X155041715Y-118733034D01*
X155048896Y-118738416D01*
X155093233Y-118755037D01*
X155102548Y-118758962D01*
X155145400Y-118779081D01*
X155154275Y-118780463D01*
X155157102Y-118781327D01*
X155173979Y-118785755D01*
X155176872Y-118786391D01*
X155185285Y-118789545D01*
X155232525Y-118793056D01*
X155242544Y-118794207D01*
X155251180Y-118795552D01*
X155251184Y-118795552D01*
X155255986Y-118796300D01*
X155271510Y-118796300D01*
X155280848Y-118796647D01*
X155321590Y-118799675D01*
X155321591Y-118799675D01*
X155330541Y-118800340D01*
X155339318Y-118798466D01*
X155347569Y-118797904D01*
X155362766Y-118796300D01*
X173794663Y-118796300D01*
X173862784Y-118816302D01*
X173885300Y-118834774D01*
X173951136Y-118902949D01*
X173956034Y-118908021D01*
X173987241Y-118928442D01*
X174097801Y-119000790D01*
X174107211Y-119006948D01*
X174113815Y-119009404D01*
X174113817Y-119009405D01*
X174162575Y-119027538D01*
X174276547Y-119069924D01*
X174455628Y-119093818D01*
X174462639Y-119093180D01*
X174462643Y-119093180D01*
X174628535Y-119078083D01*
X174628538Y-119078082D01*
X174635553Y-119077444D01*
X174666259Y-119067467D01*
X174800682Y-119023790D01*
X174800684Y-119023789D01*
X174807378Y-119021614D01*
X174856538Y-118992309D01*
X174956510Y-118932715D01*
X174956513Y-118932713D01*
X174962565Y-118929105D01*
X175065528Y-118831055D01*
X175128651Y-118798562D01*
X175152419Y-118796300D01*
X176584607Y-118796300D01*
X176652728Y-118816302D01*
X176675243Y-118834772D01*
X176750034Y-118912221D01*
X176775836Y-118929105D01*
X176894793Y-119006948D01*
X176901211Y-119011148D01*
X176907815Y-119013604D01*
X176907817Y-119013605D01*
X176940646Y-119025814D01*
X177070547Y-119074124D01*
X177077532Y-119075056D01*
X177083764Y-119075888D01*
X177249628Y-119098018D01*
X177256639Y-119097380D01*
X177256643Y-119097380D01*
X177422535Y-119082283D01*
X177422538Y-119082282D01*
X177429553Y-119081644D01*
X177473185Y-119067467D01*
X177594682Y-119027990D01*
X177594684Y-119027989D01*
X177601378Y-119025814D01*
X177644601Y-119000048D01*
X177750510Y-118936915D01*
X177750513Y-118936913D01*
X177756565Y-118933305D01*
X177862190Y-118832720D01*
X177925313Y-118800227D01*
X177956104Y-118798540D01*
X177962000Y-118799874D01*
X178015708Y-118796542D01*
X178023510Y-118796300D01*
X178039713Y-118796300D01*
X178048629Y-118795023D01*
X178050078Y-118794816D01*
X178060128Y-118793787D01*
X178098416Y-118791411D01*
X178107377Y-118790855D01*
X178115823Y-118787806D01*
X178118714Y-118787207D01*
X178135680Y-118782978D01*
X178138505Y-118782152D01*
X178147387Y-118780880D01*
X178190498Y-118761278D01*
X178199849Y-118757472D01*
X178201675Y-118756813D01*
X178244381Y-118741396D01*
X178251629Y-118736101D01*
X178254227Y-118734720D01*
X178269345Y-118725885D01*
X178271814Y-118724306D01*
X178279982Y-118720592D01*
X178315853Y-118689684D01*
X178323769Y-118683399D01*
X178330815Y-118678252D01*
X178330820Y-118678247D01*
X178334752Y-118675375D01*
X178345727Y-118664400D01*
X178352575Y-118658042D01*
X178383523Y-118631376D01*
X178383524Y-118631375D01*
X178390327Y-118625513D01*
X178395211Y-118617978D01*
X178400658Y-118611734D01*
X178410258Y-118599869D01*
X179758708Y-117251420D01*
X179768245Y-117243800D01*
X179767931Y-117243431D01*
X179774764Y-117237616D01*
X179782358Y-117232824D01*
X179817985Y-117192483D01*
X179823331Y-117186797D01*
X179834783Y-117175345D01*
X179841060Y-117166970D01*
X179847445Y-117159127D01*
X179872836Y-117130377D01*
X179878778Y-117123649D01*
X179882594Y-117115522D01*
X179884207Y-117113066D01*
X179893223Y-117098063D01*
X179894634Y-117095485D01*
X179900016Y-117088304D01*
X179916639Y-117043963D01*
X179920564Y-117034648D01*
X179923099Y-117029249D01*
X179940681Y-116991800D01*
X179942063Y-116982925D01*
X179942927Y-116980098D01*
X179947355Y-116963221D01*
X179947991Y-116960328D01*
X179951145Y-116951915D01*
X179954656Y-116904675D01*
X179955807Y-116894656D01*
X179957152Y-116886020D01*
X179957152Y-116886016D01*
X179957900Y-116881214D01*
X179957900Y-116865690D01*
X179958247Y-116856352D01*
X179961275Y-116815610D01*
X179961275Y-116815609D01*
X179961940Y-116806659D01*
X179960066Y-116797882D01*
X179959504Y-116789631D01*
X179957900Y-116774434D01*
X179957900Y-108699256D01*
X179977902Y-108631135D01*
X180031558Y-108584642D01*
X180083900Y-108573256D01*
X182044758Y-108573256D01*
X182055652Y-108571960D01*
X182061993Y-108571206D01*
X182061996Y-108571205D01*
X182071378Y-108570089D01*
X182175319Y-108523920D01*
X182222644Y-108476512D01*
X182247452Y-108451661D01*
X182247453Y-108451659D01*
X182255670Y-108443428D01*
X182301658Y-108339407D01*
X182304700Y-108313314D01*
X182304700Y-103122598D01*
X182303404Y-103111704D01*
X182302650Y-103105363D01*
X182302649Y-103105360D01*
X182301533Y-103095978D01*
X182255364Y-102992037D01*
X182215214Y-102951958D01*
X182183105Y-102919904D01*
X182183103Y-102919903D01*
X182174872Y-102911686D01*
X182070851Y-102865698D01*
X182044758Y-102862656D01*
X176854042Y-102862656D01*
X176843148Y-102863952D01*
X176836807Y-102864706D01*
X176836804Y-102864707D01*
X176827422Y-102865823D01*
X176723481Y-102911992D01*
X176702974Y-102932535D01*
X176651348Y-102984251D01*
X176651347Y-102984253D01*
X176643130Y-102992484D01*
X176597142Y-103096505D01*
X176594100Y-103122598D01*
X176594100Y-108313314D01*
X176595247Y-108322954D01*
X176596085Y-108329996D01*
X176597267Y-108339934D01*
X176608406Y-108365011D01*
X176632283Y-108418765D01*
X176643436Y-108443875D01*
X176683586Y-108483954D01*
X176715695Y-108516008D01*
X176715697Y-108516009D01*
X176723928Y-108524226D01*
X176827949Y-108570214D01*
X176854042Y-108573256D01*
X178814900Y-108573256D01*
X178883021Y-108593258D01*
X178929514Y-108646914D01*
X178940900Y-108699256D01*
X178940900Y-116578783D01*
X178920898Y-116646904D01*
X178903995Y-116667878D01*
X177932075Y-117639798D01*
X177869763Y-117673824D01*
X177798948Y-117668759D01*
X177775067Y-117655173D01*
X177774397Y-117656228D01*
X177627808Y-117563199D01*
X177627804Y-117563197D01*
X177621854Y-117559421D01*
X177567718Y-117540144D01*
X177458290Y-117501178D01*
X177458285Y-117501177D01*
X177451655Y-117498816D01*
X177444667Y-117497983D01*
X177444664Y-117497982D01*
X177321960Y-117483351D01*
X177272258Y-117477424D01*
X177265255Y-117478160D01*
X177265254Y-117478160D01*
X177099579Y-117495573D01*
X177099577Y-117495574D01*
X177092579Y-117496309D01*
X177006188Y-117525719D01*
X176928220Y-117552261D01*
X176928217Y-117552262D01*
X176921550Y-117554532D01*
X176767670Y-117649199D01*
X176743766Y-117672608D01*
X176671554Y-117743323D01*
X176608889Y-117776694D01*
X176583396Y-117779300D01*
X175159233Y-117779300D01*
X175091112Y-117759298D01*
X175069827Y-117742084D01*
X174985360Y-117657025D01*
X174985356Y-117657022D01*
X174980397Y-117652028D01*
X174970125Y-117645509D01*
X174833808Y-117558999D01*
X174833804Y-117558997D01*
X174827854Y-117555221D01*
X174736095Y-117522547D01*
X174664290Y-117496978D01*
X174664285Y-117496977D01*
X174657655Y-117494616D01*
X174650667Y-117493783D01*
X174650664Y-117493782D01*
X174513480Y-117477424D01*
X174478258Y-117473224D01*
X174471255Y-117473960D01*
X174471254Y-117473960D01*
X174305579Y-117491373D01*
X174305577Y-117491374D01*
X174298579Y-117492109D01*
X174217807Y-117519606D01*
X174134220Y-117548061D01*
X174134217Y-117548062D01*
X174127550Y-117550332D01*
X174121551Y-117554022D01*
X174121550Y-117554023D01*
X174120723Y-117554532D01*
X173973670Y-117644999D01*
X173944235Y-117673824D01*
X173873265Y-117743323D01*
X173810600Y-117776694D01*
X173785107Y-117779300D01*
X155558417Y-117779300D01*
X155490296Y-117759298D01*
X155469322Y-117742395D01*
X154394805Y-116667878D01*
X154360779Y-116605566D01*
X154357900Y-116578783D01*
X154357900Y-112549843D01*
X160183053Y-112549843D01*
X160183077Y-112550182D01*
X160188900Y-112558814D01*
X160522115Y-112863616D01*
X160525246Y-112866300D01*
X160996014Y-113244131D01*
X160999297Y-113246596D01*
X161493488Y-113593275D01*
X161496915Y-113595518D01*
X162012460Y-113909591D01*
X162015995Y-113911591D01*
X162550768Y-114191758D01*
X162554406Y-114193517D01*
X163106112Y-114438575D01*
X163109902Y-114440114D01*
X163676272Y-114649059D01*
X163680137Y-114650345D01*
X164258815Y-114822306D01*
X164262756Y-114823340D01*
X164851317Y-114957598D01*
X164855312Y-114958375D01*
X165451330Y-115054375D01*
X165455369Y-115054892D01*
X166056318Y-115112228D01*
X166060387Y-115112484D01*
X166663784Y-115130920D01*
X166667870Y-115130912D01*
X167271212Y-115110370D01*
X167275256Y-115110101D01*
X167876022Y-115050666D01*
X167880058Y-115050135D01*
X168475721Y-114952058D01*
X168479724Y-114951265D01*
X169067825Y-114814951D01*
X169071745Y-114813908D01*
X169649842Y-114639920D01*
X169653675Y-114638630D01*
X170219314Y-114427709D01*
X170223107Y-114426153D01*
X170773944Y-114179175D01*
X170777605Y-114177389D01*
X171311387Y-113895362D01*
X171314893Y-113893362D01*
X171829363Y-113577477D01*
X171832760Y-113575236D01*
X172325767Y-113226814D01*
X172328991Y-113224376D01*
X172798500Y-112844853D01*
X172801567Y-112842206D01*
X173107254Y-112560619D01*
X173115432Y-112547002D01*
X173115418Y-112546543D01*
X173110073Y-112537839D01*
X166662212Y-106089978D01*
X166648268Y-106082364D01*
X166646435Y-106082495D01*
X166639820Y-106086746D01*
X160190667Y-112535899D01*
X160183053Y-112549843D01*
X154357900Y-112549843D01*
X154357900Y-108699256D01*
X154377902Y-108631135D01*
X154431558Y-108584642D01*
X154483900Y-108573256D01*
X156444758Y-108573256D01*
X156455652Y-108571960D01*
X156461993Y-108571206D01*
X156461996Y-108571205D01*
X156471378Y-108570089D01*
X156575319Y-108523920D01*
X156622644Y-108476512D01*
X156647452Y-108451661D01*
X156647453Y-108451659D01*
X156655670Y-108443428D01*
X156701658Y-108339407D01*
X156704700Y-108313314D01*
X156704700Y-105929470D01*
X157238803Y-105929470D01*
X157238895Y-105933544D01*
X157272067Y-106536324D01*
X157272422Y-106540376D01*
X157344428Y-107139778D01*
X157345038Y-107143768D01*
X157455573Y-107737273D01*
X157456445Y-107741238D01*
X157605047Y-108326361D01*
X157606172Y-108330259D01*
X157792227Y-108904580D01*
X157793603Y-108908401D01*
X158016323Y-109469497D01*
X158017954Y-109473248D01*
X158276415Y-110018795D01*
X158278273Y-110022409D01*
X158571419Y-110550173D01*
X158573494Y-110553640D01*
X158900083Y-111061380D01*
X158902399Y-111064737D01*
X159261053Y-111550315D01*
X159263584Y-111553520D01*
X159652834Y-112014951D01*
X159655561Y-112017980D01*
X159806955Y-112175577D01*
X159820740Y-112183467D01*
X159821904Y-112183407D01*
X159829537Y-112178609D01*
X166277378Y-105730768D01*
X166283756Y-105719088D01*
X167013808Y-105719088D01*
X167013939Y-105720921D01*
X167018190Y-105727536D01*
X173466362Y-112175708D01*
X173480306Y-112183322D01*
X173481350Y-112183248D01*
X173489043Y-112178174D01*
X173665187Y-111993529D01*
X173667910Y-111990483D01*
X174055552Y-111527690D01*
X174058046Y-111524510D01*
X174415021Y-111037657D01*
X174417321Y-111034297D01*
X174742132Y-110525428D01*
X174744203Y-110521940D01*
X175035504Y-109993158D01*
X175037340Y-109989556D01*
X175293912Y-109443076D01*
X175295514Y-109439357D01*
X175516284Y-108877458D01*
X175517641Y-108873648D01*
X175701693Y-108298670D01*
X175702799Y-108294788D01*
X175849366Y-107709121D01*
X175850218Y-107705177D01*
X175958681Y-107111291D01*
X175959282Y-107107266D01*
X176029190Y-106507654D01*
X176029532Y-106503577D01*
X176060638Y-105899968D01*
X176060718Y-105897351D01*
X176062427Y-105719293D01*
X176062397Y-105716617D01*
X176042886Y-105112544D01*
X176042623Y-105108486D01*
X175984236Y-104507618D01*
X175983716Y-104503608D01*
X175886675Y-103907752D01*
X175885887Y-103903739D01*
X175750606Y-103315430D01*
X175749560Y-103311474D01*
X175576595Y-102733119D01*
X175575297Y-102729238D01*
X175365359Y-102163218D01*
X175363833Y-102159480D01*
X175117805Y-101608187D01*
X175116025Y-101604522D01*
X174834937Y-101070259D01*
X174832928Y-101066724D01*
X174517950Y-100551718D01*
X174515722Y-100548327D01*
X174168148Y-100054695D01*
X174165722Y-100051476D01*
X173787019Y-99581305D01*
X173784375Y-99578232D01*
X173492213Y-99259950D01*
X173478609Y-99251748D01*
X173478210Y-99251760D01*
X173469417Y-99257149D01*
X167021422Y-105705144D01*
X167013808Y-105719088D01*
X166283756Y-105719088D01*
X166284992Y-105716824D01*
X166284861Y-105714991D01*
X166280610Y-105708376D01*
X159830206Y-99257972D01*
X159816262Y-99250358D01*
X159814457Y-99250487D01*
X159807804Y-99254766D01*
X159777783Y-99284841D01*
X159775021Y-99287791D01*
X159376960Y-99741693D01*
X159374395Y-99744816D01*
X159006460Y-100223453D01*
X159004097Y-100226741D01*
X158667813Y-100728128D01*
X158665671Y-100731557D01*
X158362452Y-101253586D01*
X158360526Y-101257164D01*
X158091632Y-101797662D01*
X158089935Y-101801371D01*
X157856478Y-102358102D01*
X157855038Y-102361872D01*
X157657986Y-102932535D01*
X157656790Y-102936399D01*
X157496986Y-103518547D01*
X157496029Y-103522534D01*
X157374129Y-104113762D01*
X157373433Y-104117791D01*
X157289939Y-104715669D01*
X157289507Y-104719713D01*
X157244767Y-105321758D01*
X157244597Y-105325816D01*
X157238803Y-105929470D01*
X156704700Y-105929470D01*
X156704700Y-103122598D01*
X156703404Y-103111704D01*
X156702650Y-103105363D01*
X156702649Y-103105360D01*
X156701533Y-103095978D01*
X156655364Y-102992037D01*
X156615214Y-102951958D01*
X156583105Y-102919904D01*
X156583103Y-102919903D01*
X156574872Y-102911686D01*
X156470851Y-102865698D01*
X156444758Y-102862656D01*
X151254042Y-102862656D01*
X151227422Y-102865823D01*
X151218780Y-102869662D01*
X151215133Y-102870664D01*
X151144147Y-102869430D01*
X151085097Y-102830014D01*
X151056731Y-102764930D01*
X151068516Y-102693888D01*
X151114759Y-102599175D01*
X151119552Y-102590281D01*
X151121100Y-102587665D01*
X151122672Y-102585009D01*
X151143934Y-102539459D01*
X151144840Y-102537562D01*
X151148243Y-102530594D01*
X151155643Y-102515437D01*
X151156297Y-102513074D01*
X151156736Y-102512034D01*
X151392147Y-102007712D01*
X151397416Y-101999039D01*
X151396829Y-101998706D01*
X151398484Y-101995788D01*
X151399999Y-101993117D01*
X151420277Y-101947500D01*
X151421240Y-101945386D01*
X151429127Y-101928490D01*
X151429128Y-101928488D01*
X151431583Y-101923228D01*
X151432229Y-101920726D01*
X151432690Y-101919576D01*
X151654209Y-101421250D01*
X151659346Y-101412431D01*
X151658762Y-101412114D01*
X151660355Y-101409179D01*
X151661827Y-101406467D01*
X151681228Y-101360521D01*
X151682134Y-101358430D01*
X151692065Y-101336089D01*
X151692675Y-101333528D01*
X151693123Y-101332349D01*
X151904035Y-100832866D01*
X151908975Y-100824016D01*
X151908369Y-100823702D01*
X151909911Y-100820732D01*
X151911330Y-100817999D01*
X151929926Y-100771602D01*
X151930794Y-100769494D01*
X151938053Y-100752304D01*
X151938053Y-100752303D01*
X151940309Y-100746961D01*
X151940859Y-100744448D01*
X151941271Y-100743299D01*
X152144909Y-100235228D01*
X152149053Y-100225984D01*
X152151704Y-100220656D01*
X152169581Y-100173723D01*
X152170365Y-100171716D01*
X152177420Y-100154112D01*
X152179545Y-100148811D01*
X152180020Y-100146437D01*
X152180376Y-100145384D01*
X152382765Y-99614038D01*
X152383630Y-99611913D01*
X152384294Y-99610567D01*
X152385374Y-99607700D01*
X152386608Y-99604855D01*
X152386712Y-99604900D01*
X152388654Y-99600467D01*
X152395082Y-99592014D01*
X152398456Y-99580366D01*
X152406102Y-99553960D01*
X152409385Y-99544151D01*
X152412490Y-99536002D01*
X152412496Y-99535983D01*
X152413023Y-99534600D01*
X152413117Y-99534085D01*
X152413167Y-99533931D01*
X152656990Y-98886764D01*
X160181490Y-98886764D01*
X160181625Y-98888626D01*
X160185853Y-98895199D01*
X166636588Y-105345934D01*
X166650532Y-105353548D01*
X166652365Y-105353417D01*
X166658980Y-105349166D01*
X173107203Y-98900943D01*
X173114817Y-98886999D01*
X173114739Y-98885897D01*
X173109726Y-98878281D01*
X172937207Y-98713131D01*
X172934177Y-98710412D01*
X172472050Y-98321954D01*
X172468878Y-98319458D01*
X171982649Y-97961633D01*
X171979291Y-97959325D01*
X171471001Y-97633635D01*
X171467483Y-97631538D01*
X170939245Y-97339333D01*
X170935620Y-97337478D01*
X170389625Y-97079970D01*
X170385857Y-97078340D01*
X169824388Y-96856605D01*
X169820559Y-96855234D01*
X169245902Y-96670178D01*
X169242027Y-96669067D01*
X168656629Y-96521482D01*
X168652668Y-96520619D01*
X168058988Y-96411123D01*
X168054966Y-96410514D01*
X167455429Y-96339554D01*
X167451427Y-96339211D01*
X166848536Y-96307087D01*
X166844519Y-96307003D01*
X166240842Y-96313852D01*
X166236780Y-96314029D01*
X165634816Y-96359820D01*
X165630789Y-96360257D01*
X165033060Y-96444795D01*
X165029023Y-96445499D01*
X164437987Y-96568434D01*
X164434039Y-96569390D01*
X163852165Y-96730210D01*
X163848273Y-96731423D01*
X163277979Y-96929462D01*
X163274196Y-96930915D01*
X162717881Y-97165340D01*
X162714182Y-97167041D01*
X162174158Y-97436876D01*
X162170556Y-97438824D01*
X161649093Y-97742931D01*
X161645629Y-97745104D01*
X161144852Y-98082248D01*
X161141561Y-98084621D01*
X160663595Y-98453370D01*
X160660440Y-98455969D01*
X160207248Y-98854810D01*
X160204300Y-98857578D01*
X160189090Y-98872815D01*
X160181490Y-98886764D01*
X152656990Y-98886764D01*
X152706098Y-98756418D01*
X152706602Y-98755102D01*
X152839572Y-98413790D01*
X152840121Y-98412404D01*
X152964623Y-98103679D01*
X152965374Y-98101859D01*
X153083375Y-97822103D01*
X153084383Y-97819779D01*
X153181834Y-97601125D01*
X153198252Y-97564287D01*
X153199518Y-97561537D01*
X153216648Y-97525481D01*
X153311692Y-97325417D01*
X153313226Y-97322301D01*
X153320746Y-97307543D01*
X153392332Y-97167041D01*
X153426163Y-97100641D01*
X153427924Y-97097309D01*
X153544298Y-96884860D01*
X153546187Y-96881532D01*
X153668818Y-96672955D01*
X153670713Y-96669837D01*
X153802411Y-96459993D01*
X153804154Y-96457293D01*
X153947850Y-96240982D01*
X153949363Y-96238759D01*
X154107693Y-96011312D01*
X154108938Y-96009556D01*
X154283991Y-95767033D01*
X154285252Y-95765316D01*
X154696131Y-95215890D01*
X154696740Y-95215083D01*
X154730879Y-95170188D01*
X154730882Y-95170183D01*
X154732955Y-95167457D01*
X154733295Y-95166283D01*
X154733566Y-95165846D01*
X154926639Y-94907744D01*
X154929742Y-94903765D01*
X154931099Y-94902094D01*
X154933156Y-94899802D01*
X154964051Y-94857738D01*
X154964565Y-94857045D01*
X154980497Y-94835747D01*
X154981052Y-94834620D01*
X154981288Y-94834270D01*
X155235327Y-94488395D01*
X155238508Y-94484247D01*
X155238580Y-94484157D01*
X155240624Y-94481845D01*
X155271283Y-94439448D01*
X155271815Y-94438717D01*
X155274853Y-94434581D01*
X155287701Y-94417088D01*
X155288161Y-94416133D01*
X155288359Y-94415834D01*
X155886992Y-93587996D01*
X155889924Y-93584117D01*
X155891822Y-93581940D01*
X155893608Y-93579434D01*
X155922278Y-93539207D01*
X155922782Y-93538505D01*
X155936956Y-93518903D01*
X155936959Y-93518898D01*
X155938532Y-93516723D01*
X155938954Y-93515831D01*
X155939136Y-93515552D01*
X156439160Y-92813940D01*
X156442853Y-92809207D01*
X156442803Y-92809169D01*
X156444677Y-92806738D01*
X156446677Y-92804392D01*
X156476115Y-92762099D01*
X156476923Y-92760952D01*
X156489662Y-92743078D01*
X156492014Y-92739778D01*
X156492680Y-92738345D01*
X156493004Y-92737837D01*
X156717996Y-92414603D01*
X156724639Y-92407026D01*
X156724086Y-92406571D01*
X156726209Y-92403987D01*
X156726210Y-92403986D01*
X156728165Y-92401606D01*
X156729874Y-92399055D01*
X156729880Y-92399046D01*
X156750618Y-92368078D01*
X156755014Y-92361922D01*
X156774932Y-92335728D01*
X156781971Y-92326471D01*
X156784294Y-92318452D01*
X156787283Y-92313327D01*
X156905802Y-92136344D01*
X156906468Y-92135398D01*
X156906967Y-92134788D01*
X156929146Y-92101532D01*
X156933654Y-92095206D01*
X156960363Y-92060081D01*
X156962753Y-92051826D01*
X156965901Y-92046418D01*
X157015761Y-91971655D01*
X157016602Y-91970411D01*
X157152169Y-91772289D01*
X157152727Y-91771480D01*
X157289678Y-91574650D01*
X157339531Y-91503000D01*
X157339979Y-91502361D01*
X157378783Y-91447430D01*
X157566240Y-91182061D01*
X157568856Y-91178493D01*
X157571128Y-91175505D01*
X157599328Y-91138420D01*
X157600704Y-91133666D01*
X157601991Y-91131524D01*
X157828431Y-90811513D01*
X157831396Y-90807494D01*
X157833098Y-90805280D01*
X157835095Y-90802930D01*
X157864726Y-90760229D01*
X157865352Y-90759335D01*
X157878647Y-90740547D01*
X157878648Y-90740545D01*
X157880636Y-90737736D01*
X157881181Y-90736553D01*
X157881440Y-90736145D01*
X157949598Y-90637925D01*
X157953519Y-90632764D01*
X157953490Y-90632742D01*
X157955352Y-90630260D01*
X157957312Y-90627898D01*
X157986143Y-90585276D01*
X157986952Y-90584096D01*
X157999212Y-90566428D01*
X157999213Y-90566426D01*
X158001660Y-90562900D01*
X158002353Y-90561360D01*
X158002704Y-90560793D01*
X158011188Y-90548250D01*
X158054451Y-90484291D01*
X158061025Y-90476601D01*
X158060466Y-90476155D01*
X158062563Y-90473531D01*
X158062567Y-90473526D01*
X158064477Y-90471135D01*
X158066149Y-90468564D01*
X158091738Y-90429206D01*
X158093007Y-90427293D01*
X158103448Y-90411857D01*
X158103451Y-90411852D01*
X158106703Y-90407044D01*
X158107723Y-90404701D01*
X158108348Y-90403657D01*
X158147240Y-90343836D01*
X158154522Y-90334878D01*
X158154238Y-90334663D01*
X158155146Y-90333462D01*
X158158114Y-90329539D01*
X158183339Y-90288392D01*
X158185055Y-90285674D01*
X158197452Y-90266605D01*
X158198848Y-90263230D01*
X158199941Y-90261309D01*
X158227843Y-90215794D01*
X158235851Y-90205280D01*
X158235988Y-90205169D01*
X158236592Y-90204306D01*
X158236599Y-90204297D01*
X158237904Y-90202433D01*
X158237910Y-90202423D01*
X158239673Y-90199905D01*
X158241181Y-90197228D01*
X158241190Y-90197214D01*
X158262242Y-90159847D01*
X158264596Y-90155844D01*
X158272240Y-90143375D01*
X158272247Y-90143361D01*
X158275279Y-90138415D01*
X158277049Y-90133794D01*
X158278964Y-90130165D01*
X158296823Y-90098466D01*
X158304401Y-90087729D01*
X158304393Y-90087724D01*
X158306215Y-90084915D01*
X158306218Y-90084909D01*
X158307889Y-90082333D01*
X158309302Y-90079603D01*
X158309307Y-90079594D01*
X158329158Y-90041235D01*
X158331285Y-90037298D01*
X158332027Y-90035981D01*
X158336005Y-90030176D01*
X158335944Y-90030139D01*
X158337693Y-90027272D01*
X158337696Y-90027266D01*
X158339290Y-90024653D01*
X158358820Y-89984204D01*
X158365291Y-89973737D01*
X158365129Y-89973645D01*
X158366784Y-89970732D01*
X158366785Y-89970730D01*
X158368303Y-89968058D01*
X158371453Y-89960986D01*
X158385659Y-89929084D01*
X158392045Y-89917968D01*
X158391979Y-89917933D01*
X158393536Y-89914963D01*
X158393538Y-89914959D01*
X158394962Y-89912242D01*
X158396118Y-89909391D01*
X158396122Y-89909382D01*
X158410274Y-89874476D01*
X158416445Y-89862802D01*
X158416504Y-89862736D01*
X158419279Y-89856941D01*
X158432666Y-89820135D01*
X158438425Y-89808186D01*
X158438662Y-89807899D01*
X158441214Y-89802002D01*
X158452801Y-89765913D01*
X158458106Y-89753723D01*
X158458432Y-89753295D01*
X158460751Y-89747302D01*
X158470655Y-89711724D01*
X158475482Y-89699325D01*
X158475789Y-89698888D01*
X158477872Y-89692809D01*
X158486217Y-89657529D01*
X158490551Y-89644982D01*
X158490755Y-89644666D01*
X158492604Y-89638512D01*
X158499521Y-89603317D01*
X158503358Y-89590703D01*
X158503394Y-89590642D01*
X158503504Y-89590222D01*
X158504238Y-89587413D01*
X158504240Y-89587403D01*
X158505018Y-89584425D01*
X158510928Y-89547298D01*
X158514353Y-89534053D01*
X158515265Y-89532340D01*
X158516588Y-89526052D01*
X158521346Y-89482787D01*
X158522158Y-89476751D01*
X158524068Y-89464754D01*
X158524980Y-89459025D01*
X158524827Y-89453225D01*
X158524989Y-89450773D01*
X158525469Y-89445303D01*
X158525873Y-89441624D01*
X158528668Y-89428058D01*
X158529680Y-89425896D01*
X158530679Y-89419548D01*
X158533173Y-89376764D01*
X158533714Y-89370321D01*
X158534974Y-89358860D01*
X158535609Y-89353091D01*
X158535176Y-89347302D01*
X158535254Y-89342871D01*
X158535448Y-89337745D01*
X158535836Y-89331085D01*
X158537904Y-89318297D01*
X158537857Y-89318291D01*
X158538263Y-89314960D01*
X158538635Y-89311913D01*
X158539739Y-89265404D01*
X158539918Y-89261067D01*
X158540798Y-89245972D01*
X158541136Y-89240175D01*
X158540551Y-89235552D01*
X158540533Y-89231950D01*
X158540890Y-89216929D01*
X158542255Y-89206771D01*
X158541595Y-89206703D01*
X158541937Y-89203379D01*
X158542253Y-89200311D01*
X158542490Y-89150443D01*
X158542525Y-89148080D01*
X158542964Y-89129594D01*
X158542963Y-89129585D01*
X158543101Y-89123787D01*
X158542677Y-89121167D01*
X158542636Y-89119881D01*
X158542763Y-89093139D01*
X158544033Y-89081767D01*
X158543654Y-89081738D01*
X158543910Y-89078395D01*
X158544145Y-89075332D01*
X158544080Y-89072257D01*
X158544165Y-89069182D01*
X158544284Y-89069185D01*
X158544374Y-89066837D01*
X158546876Y-89058195D01*
X158543631Y-89020726D01*
X158543162Y-89009256D01*
X158543174Y-89006746D01*
X158543202Y-89000948D01*
X158542563Y-88997423D01*
X158542447Y-88995289D01*
X158536535Y-88716621D01*
X158536753Y-88706086D01*
X158536777Y-88705706D01*
X158536777Y-88705699D01*
X158536969Y-88702630D01*
X158535172Y-88651778D01*
X158535122Y-88650030D01*
X158534688Y-88629552D01*
X158534688Y-88629551D01*
X158534584Y-88624649D01*
X158534178Y-88622699D01*
X158534115Y-88621859D01*
X158534082Y-88620924D01*
X158515993Y-88108937D01*
X158515915Y-88103964D01*
X158515928Y-88100935D01*
X158516092Y-88097849D01*
X158514838Y-88069783D01*
X158513776Y-88046001D01*
X158513729Y-88044831D01*
X158512920Y-88021948D01*
X158512920Y-88021944D01*
X158512796Y-88018445D01*
X158512505Y-88017141D01*
X158512464Y-88016660D01*
X158505777Y-87866997D01*
X158445995Y-86529188D01*
X158445949Y-86527102D01*
X158446018Y-86525723D01*
X158445874Y-86522726D01*
X158447589Y-86516804D01*
X158443381Y-86468225D01*
X158443036Y-86462973D01*
X158442733Y-86456188D01*
X158442211Y-86444502D01*
X158442103Y-86444037D01*
X158442089Y-86443885D01*
X158376868Y-85085664D01*
X158363176Y-84800516D01*
X158363150Y-84799946D01*
X158349700Y-84487688D01*
X158325260Y-83920314D01*
X158300951Y-83355978D01*
X158300916Y-83355097D01*
X158256371Y-82119984D01*
X158256332Y-82118733D01*
X158247293Y-81772640D01*
X158229077Y-81075151D01*
X158229044Y-81073412D01*
X158228501Y-81027790D01*
X158218690Y-80204661D01*
X158218686Y-80202098D01*
X158219100Y-80153632D01*
X158224747Y-79491502D01*
X158224834Y-79487750D01*
X158238071Y-79142462D01*
X158246634Y-78919103D01*
X158246966Y-78913604D01*
X158247987Y-78901217D01*
X158280936Y-78501161D01*
X158285484Y-78476455D01*
X158286098Y-78474335D01*
X158286098Y-78474334D01*
X158289335Y-78463157D01*
X158288331Y-78451566D01*
X158288517Y-78449670D01*
X158289031Y-78425753D01*
X158292055Y-78402541D01*
X158337977Y-78049944D01*
X158338668Y-78045316D01*
X158403023Y-77662738D01*
X158405828Y-77646059D01*
X158406744Y-77641199D01*
X158486870Y-77257601D01*
X158488045Y-77252506D01*
X158580954Y-76884689D01*
X158582420Y-76879379D01*
X158687893Y-76527553D01*
X158689690Y-76522027D01*
X158690758Y-76518986D01*
X158770767Y-76291004D01*
X158807539Y-76186224D01*
X158809713Y-76180481D01*
X158887447Y-75989342D01*
X163164696Y-75989342D01*
X163190957Y-76264594D01*
X163192042Y-76269028D01*
X163192043Y-76269034D01*
X163253206Y-76518986D01*
X163256678Y-76533173D01*
X163258390Y-76537399D01*
X163258391Y-76537403D01*
X163351768Y-76767939D01*
X163360481Y-76789451D01*
X163362785Y-76793386D01*
X163362788Y-76793392D01*
X163484643Y-77001503D01*
X163500193Y-77028060D01*
X163672885Y-77244002D01*
X163874942Y-77432753D01*
X164102129Y-77590358D01*
X164204323Y-77641199D01*
X164345601Y-77711484D01*
X164345604Y-77711485D01*
X164349688Y-77713517D01*
X164612433Y-77799649D01*
X164616924Y-77800429D01*
X164616925Y-77800429D01*
X164881079Y-77846294D01*
X164881087Y-77846295D01*
X164884860Y-77846950D01*
X164888697Y-77847141D01*
X164970667Y-77851222D01*
X164970675Y-77851222D01*
X164972238Y-77851300D01*
X165144833Y-77851300D01*
X165147101Y-77851135D01*
X165147113Y-77851135D01*
X165280321Y-77841469D01*
X165350378Y-77836386D01*
X165354833Y-77835402D01*
X165354836Y-77835402D01*
X165615918Y-77777761D01*
X165615922Y-77777760D01*
X165620378Y-77776776D01*
X165792712Y-77711484D01*
X165874675Y-77680431D01*
X165874678Y-77680430D01*
X165878945Y-77678813D01*
X166120663Y-77544551D01*
X166340467Y-77376802D01*
X166414478Y-77301093D01*
X166467243Y-77247116D01*
X166533753Y-77179080D01*
X166668288Y-76994247D01*
X166693785Y-76959218D01*
X166693787Y-76959215D01*
X166696472Y-76955526D01*
X166825216Y-76710825D01*
X166917287Y-76450102D01*
X166968866Y-76188407D01*
X166969874Y-76183294D01*
X166970756Y-76178819D01*
X166976686Y-76059711D01*
X166984277Y-75907227D01*
X166984277Y-75907221D01*
X166984504Y-75902658D01*
X166958243Y-75627406D01*
X166946745Y-75580415D01*
X166893607Y-75363261D01*
X166892522Y-75358827D01*
X166871077Y-75305881D01*
X166790434Y-75106782D01*
X166790431Y-75106777D01*
X166788719Y-75102549D01*
X166786415Y-75098614D01*
X166786412Y-75098608D01*
X166651314Y-74867880D01*
X166649007Y-74863940D01*
X166487115Y-74661503D01*
X166479167Y-74651564D01*
X166479165Y-74651562D01*
X166476315Y-74647998D01*
X166274258Y-74459247D01*
X166047071Y-74301642D01*
X165869270Y-74213187D01*
X165803599Y-74180516D01*
X165803596Y-74180515D01*
X165799512Y-74178483D01*
X165536767Y-74092351D01*
X165532275Y-74091571D01*
X165268121Y-74045706D01*
X165268113Y-74045705D01*
X165264340Y-74045050D01*
X165253365Y-74044504D01*
X165178533Y-74040778D01*
X165178525Y-74040778D01*
X165176962Y-74040700D01*
X165004367Y-74040700D01*
X165002099Y-74040865D01*
X165002087Y-74040865D01*
X164868879Y-74050531D01*
X164798822Y-74055614D01*
X164794367Y-74056598D01*
X164794364Y-74056598D01*
X164533282Y-74114239D01*
X164533278Y-74114240D01*
X164528822Y-74115224D01*
X164513862Y-74120892D01*
X164274525Y-74211569D01*
X164274522Y-74211570D01*
X164270255Y-74213187D01*
X164028537Y-74347449D01*
X163808733Y-74515198D01*
X163805540Y-74518464D01*
X163805538Y-74518466D01*
X163793603Y-74530675D01*
X163615447Y-74712920D01*
X163452728Y-74936474D01*
X163323984Y-75181175D01*
X163231913Y-75441898D01*
X163178444Y-75713181D01*
X163178217Y-75717738D01*
X163178217Y-75717739D01*
X163167988Y-75923223D01*
X163164696Y-75989342D01*
X158887447Y-75989342D01*
X158939717Y-75860816D01*
X158942302Y-75854899D01*
X159070689Y-75580415D01*
X159084280Y-75551357D01*
X159087309Y-75545310D01*
X159141026Y-75444905D01*
X159241053Y-75257937D01*
X159244565Y-75251795D01*
X159409924Y-74980515D01*
X159413930Y-74974355D01*
X159590751Y-74719128D01*
X159595267Y-74713013D01*
X159783477Y-74473710D01*
X159788523Y-74467691D01*
X159796063Y-74459247D01*
X159988045Y-74244225D01*
X159993597Y-74238393D01*
X160204455Y-74030621D01*
X160210473Y-74025065D01*
X160336053Y-73916467D01*
X160432746Y-73832850D01*
X160439159Y-73827662D01*
X160667704Y-73654891D01*
X160677554Y-73648154D01*
X160708868Y-73628852D01*
X160711742Y-73625073D01*
X160713595Y-73623632D01*
X160881096Y-73512629D01*
X160886970Y-73508965D01*
X161103392Y-73382145D01*
X161109056Y-73379018D01*
X161339597Y-73259384D01*
X161345033Y-73256727D01*
X161588939Y-73144674D01*
X161594150Y-73142420D01*
X161850611Y-73038320D01*
X161855612Y-73036413D01*
X162011616Y-72980683D01*
X162123768Y-72940619D01*
X162128549Y-72939019D01*
X162197025Y-72917623D01*
X162407574Y-72851837D01*
X162412212Y-72850485D01*
X162529144Y-72818815D01*
X162701214Y-72772212D01*
X162705644Y-72771098D01*
X162913240Y-72722980D01*
X163003850Y-72701978D01*
X163008208Y-72701049D01*
X163314638Y-72641353D01*
X163318885Y-72640601D01*
X163632781Y-72590534D01*
X163636939Y-72589941D01*
X163957468Y-72549720D01*
X163961553Y-72549275D01*
X164144611Y-72532346D01*
X164287855Y-72519099D01*
X164291848Y-72518794D01*
X164623071Y-72498854D01*
X164627030Y-72498679D01*
X164962368Y-72489155D01*
X164966308Y-72489105D01*
X165255431Y-72490013D01*
G37*
%TD.AperFunction*%
%TD*%
M02*
